<svg xmlns="http://www.w3.org/2000/svg" xmlns:xlink="http://www.w3.org/1999/xlink" width="9.459" height="5.254" viewBox="0 0 9.459 5.254">
  <defs>
    <clipPath id="clip-path">
      <rect id="Rectangle_57" data-name="Rectangle 57" width="5.254" height="9.459" fill="#3d3d3d"/>
    </clipPath>
  </defs>
  <g id="Group_65" data-name="Group 65" transform="translate(0 5.254) rotate(-90)">
    <g id="Group_64" data-name="Group 64" transform="translate(0 0)" clip-path="url(#clip-path)">
      <path id="Path_44" data-name="Path 44" d="M4.977,1.506l-2.929,3.2L5.009,7.982a.837.837,0,0,1,.245.586.871.871,0,0,1-.229.59.8.8,0,0,1-.537.3c-.03,0-.059,0-.089,0A.914.914,0,0,1,3.77,9.2L.231,5.293A.851.851,0,0,1,.179,4.181l.055-.069L3.739.3A.882.882,0,0,1,4.463,0a.786.786,0,0,1,.574.326.854.854,0,0,1,.216.566.854.854,0,0,1-.277.612" transform="translate(0 0)" fill="#3d3d3d"/>
    </g>
  </g>
</svg>
