<svg xmlns="http://www.w3.org/2000/svg" xmlns:xlink="http://www.w3.org/1999/xlink" width="518" height="76" viewBox="0 0 518 76">
  <defs>
    <clipPath id="clip-path">
      <rect id="Rectangle_117" data-name="Rectangle 117" width="518" height="76" transform="translate(0 0.454)" fill="#2163ef"/>
    </clipPath>
  </defs>
  <g id="Group_199" data-name="Group 199" transform="translate(0.451 -0.453)">
    <g id="Group_198" data-name="Group 198" transform="translate(-0.451 -0.001)" clip-path="url(#clip-path)">
      <path id="Path_142" data-name="Path 142" d="M14.2,44.786a.684.684,0,0,0,.177.036c-.222-.073-.35-.1-.177-.036M512.51,29.565l.511-.019.632-.021c.714-.22.737-.517.049-.662l-.587-.16c-.182-.049-.367-.211-.352-.312s.318-.258.455-.248a2.147,2.147,0,0,0,1.594-.414.244.244,0,0,0-.028-.376,1.45,1.45,0,0,0-.707-.075l-.214.032c-.211.13-.427-.156-.481-.637l-.837-.28a1.825,1.825,0,0,1-.784-.688c-.31-.359.113-.707.912-.639l.4.034a2.228,2.228,0,0,0-1.57-1.211c-.76-.015-2.38.088-2.7.041a10,10,0,0,0-1.192-.081l-.308.026-.545.045a1.062,1.062,0,0,1-1.045-.675c0-.179,1.318-.38,1.786-.4s.049-.124-.925-.231l-.872-.043c-1.032-.053-1.846-.948-1.406-1.474l.406-.487c-.124-.523-.76-1.636-.543-1.85s-.117-.513-.743-.664l-.3-.2c-.521-.342-.844.69-1.35.015l-.175-.229a10.9,10.9,0,0,0-1.305-.479A9.119,9.119,0,0,1,502,16.778c.506-.094.4-2.089-.111-2.826s.989-.861,1.606-.707,1.094,0,1.057-.35l-.22-.173-.342-.269c-.523-.246-.889-.7-.865-.79s-.344-.143-.816-.109l-.427.043c-.073.006-.124.088-.194.094a.881.881,0,0,1-.37-.032c-.068-.081-.126-.239-.051-.269l.329-.128c.4-.115.8-.3.78-.367s-.2-.12-.406-.117l-.188-.009-.177-.009c-.182-.021-.513-.57-.735-1.22l-.156-.594-.075-.282a1.812,1.812,0,0,1,.479-1.124l-.739-.19-.015,0c.175-.216-.13-.493-.3-.532l-1.831-.434-.111-.261c-.246-.581-1.547-.62-1.681-.916l-.276-.6a23.709,23.709,0,0,0-3.9-.592,1.636,1.636,0,0,1-1.421-.419c-.015-.13-.66-.107-.852-.07s-2.006-.47-2.732-.474-1.66-.047-1.886,0-1.562.389-1.506.15-.474-.194-.733-.137-1.359-.145-1.72-.109a20.35,20.35,0,0,1-2.888-.288c-.6-.122-1.846-.35-2.769-.506l-.419-.526a2.8,2.8,0,0,0-1.275-.276c-.284-.017-.688.237-.9.19-.739-.164.408-.374.083-.461a5.555,5.555,0,0,0-2.094-.35,3.128,3.128,0,0,1-2.036-.079,9.254,9.254,0,0,0-3.865-.2l-1.092.211c-.523-.31-1.034-.15-1.137.355L461.853.542l-.63-.254A8.363,8.363,0,0,0,458.437.5a3.786,3.786,0,0,1-1.594-.066,4.52,4.52,0,0,0-1.5-.194c-.233.026-1.478-.207-1.263.068s-.874.1-1.149,0a4.52,4.52,0,0,0-1.587-.284,2.678,2.678,0,0,1-.664.169A7.7,7.7,0,0,0,449.54.7L448.621.5l-.786-.179c-.812.325-2.087,1-2.44.878a7.838,7.838,0,0,0-2-.175L442.77.835l-.135-.041c-.291.1-2.068-.263-2.709-.205a8.968,8.968,0,0,0-1.429.2c-.083.053.1.425.209.573s-.583.092-1.545-.126l-.107.077-.686.491c-.991-.06-2-.07-2.128-.083a4.451,4.451,0,0,1-.968-.423l-.534-.019a6.609,6.609,0,0,0-2.117.026l-.756.461c-.7-.2-.746-.036-.511.113s-1.318-.062-1.525-.167-.566-.273-.647-.3a9.461,9.461,0,0,1-1.468.237c-.4-.049-1.611-.1-1.906-.192s-1.5-.239-1.555-.017-.9.432-1.882.466l-.515-.222-.974-.425a13.606,13.606,0,0,1-2.384.254l-.209.062-.429.128a10.693,10.693,0,0,0-1.8.269l-.671-.07-.684-.073a6.283,6.283,0,0,1-2.123-.387c-.284-.179-1.361.122-1.632.267a1.282,1.282,0,0,1-1.051-.2c-.186-.154-.784-.062-1.333.207l-.4-.021-.526-.026a12.612,12.612,0,0,0-2.343.1l-.658.088-.171.023a13.224,13.224,0,0,0-1.4-.177,10.565,10.565,0,0,1-1.666-.1l-.318.12a2.337,2.337,0,0,1-2.288-.327l-.081-.041c-.162-.009-.444.4-.5.56s-1.017-.083-1.389-.036-1.891.329-2.38.382a7.14,7.14,0,0,1-2.123-.235L389.682,2l-.493-.021a1.568,1.568,0,0,0-1.2.564c-.053.173-.887-.421-1.051-.389a13.706,13.706,0,0,1-2.647.261,12.215,12.215,0,0,0-2-.2,4.432,4.432,0,0,1-.94.214,5.666,5.666,0,0,1-1.233-.278l-.645.261L379,2.606c-.833.034-1.9.092-2.38.128l-.365-.083-.224-.051c-.15-.293-.538-.122-.6-.021s-.714-.222-1.015-.3-2.431.009-3.153-.043-2,.22-2.322.173a13.1,13.1,0,0,0-2,.2,11.6,11.6,0,0,1-2.155.062c-.382-.073-2.023-.346-2.038-.1s-.139.387-.28.325l-.128-.056-1.275-.549a7.858,7.858,0,0,1-2.41.637l-.009-.038c-.094-.468-.344-.594-1.192-.316l-.271.09a4.271,4.271,0,0,0-1.839.092l-.583-.013c-.848-.015-1.675.088-2.559.062l-.867-.028c-1.045.015-2.974.545-3.516.545a24,24,0,0,1-2.88-.425,1.2,1.2,0,0,0-1.145.4c-.043.147-.4-.032-.79-.4l-.916.31-.487.164a19.169,19.169,0,0,0-1.886.342,16.832,16.832,0,0,1-2.141-.073,11.845,11.845,0,0,0-2.211-.267,20.977,20.977,0,0,1-2.363.372c-.464.062-1.329.2-1.923.3l-.493-.335-.308-.207a1.568,1.568,0,0,0-.754.84l-.391-.295-.654-.5a5.315,5.315,0,0,1-2.3.372l-.609-.019c-.724-.019-1.455,0-2.183,0h-1.459c-1.6,0-3.6-.009-4.448-.021l-.731.058c-.72.056.882.4-.109.551l-.938.143c-.314-.459-1.26-.333-1.436-.207a3.665,3.665,0,0,1-1.592.237,5.439,5.439,0,0,0-1.861-.479,12.47,12.47,0,0,1-2.7.115.786.786,0,0,0-.953.214c-.045.162-.581-.028-.741-.122a6.247,6.247,0,0,0-1.436-.338l.023.5,0,.073c-.15.081-1.8-.436-2.489-.367s-1.119-.06-.951-.286l-.034-.009-1.055-.288c-.047.438-.628.526-.837.423a1.876,1.876,0,0,0-1.03.147,2.154,2.154,0,0,1-.876.16,1.21,1.21,0,0,1-.6-.611l-.677.192c-.047.013.267.355.348.551l.026.066a2.261,2.261,0,0,1-1.038-.2c-.216-.1-1.5.237-1.784.023a2.708,2.708,0,0,0-1.081-.453c-.188.013-1.288.068-2.444.124l-1.028.1-.59.058c-.63-.036-1.732-.132-2.446-.216l-.722.128c-.423.073-1.038-.186-1.485-.126l-.807.111c-.728-.124-2.45.164-2.85.066a11.5,11.5,0,0,0-1.239-.162,5.46,5.46,0,0,0-1.331.13l-.346.015c-.722.032-1.592-.515-2.17.143l-.041.047a3.727,3.727,0,0,1-.9-.543c-.179-.147-1.013.019-1.2.147s-1.352.1-1.389-.06-.547-.034-.737.068a1.146,1.146,0,0,1-.931-.16l-.342-.135-.186-.073a2.814,2.814,0,0,0-1.271.423l-.754-.137c-.365-.066-.938.226-1.339.177l-.387-.047c-.372-.267-1.25.081-1.406.1s-1.525-.675-2.117-.515a16.411,16.411,0,0,1-2.784.288c-.468-.013-2.489.652-3.217.515a25.439,25.439,0,0,0-3.783-.19,11.461,11.461,0,0,1-1.363.145c-.169-.013-.812-.152-1.427-.305l-.782.068a25.347,25.347,0,0,1-3.149-.117,2.019,2.019,0,0,0-.506.043c-.026.632-.406.248-.863.126l-.434-.115a3.969,3.969,0,0,0-1.545.2,4.178,4.178,0,0,1-1.564-.068l-.681-.03-.805-.032a24.663,24.663,0,0,0-2.895-.169c-.276.113-1.156.139-1.363.233a3.011,3.011,0,0,1-1.023.179l-.286-.053-.714-.135a6.971,6.971,0,0,0-2.536,0l-.615-.3c-.06-.03-.432.179-.643.169l-.363-.015a3.865,3.865,0,0,0-1.542.164,1.886,1.886,0,0,1-.5.207c-.043-.009-.549-.265-.728-.361s-1.386.276-1.876.2a19,19,0,0,0-2.8-.331c-.487.066-1.07.126-1.139.137s-1.369-.412-1.457-.135-.107.182-.043-.214l-.9.312-1.186.412a.756.756,0,0,0-.594-.961l-.367.209-.077.043a8.705,8.705,0,0,1-2.831.177,3.056,3.056,0,0,0-.887-.188l-.1.056-.927.485a8.015,8.015,0,0,1-1.23-.545c-.088-.083-.587.023-1.109.237l-.4.162-1.741-.344-.579-.182a4.6,4.6,0,0,0-1.773.382c-.141.111-.506-.117-.577-.209s-.846.043-1.147.006a6.033,6.033,0,0,0-1.589-.015c-.406.1-1.987.6-1.938.346s-.709-.173-1.115-.167a28.471,28.471,0,0,1-3.745-.7l-1.248.925-.015.011c-.451-.158-1.762.291-2.275.169s-2.284-.015-2.946-.073a16.874,16.874,0,0,0-3.226.1c-.5.143-1.04.295-1.077.295a8.9,8.9,0,0,1-.769-.549c-.182-.143-.876.028-1.055.12a5.452,5.452,0,0,1-2-.246l-.859.457-.145.079a18.089,18.089,0,0,0-2.292-.2l-.566-.173c-.649-.2-.88.59-1.583.109a3.5,3.5,0,0,0-1.423.062l-.859.173a1.719,1.719,0,0,0-1.113-.519c-.177.053-.974.267-1.771.476l-.7-.017-.9-.023a17.127,17.127,0,0,0-2.3-.37l0,0,.015.553a4.452,4.452,0,0,0-1.754-.361,2.43,2.43,0,0,1-.97.006l-.169.019c-.284.032-.53.156-.814.194a6.474,6.474,0,0,1-.816.006h-.365c-.4,0-1.489-.083-1.786-.107s-1.079-.111-1.737-.19l-.237.124-.728.382a2.888,2.888,0,0,0-1.861-.235c-.043.152-1.053.017-1.465.015s-1.143.038-1.628.092l-.15-.094L149.9,4c-.989.111-2.937.25-4.332.308l-1.269.023c-.432.009-1.158-.2-1.256-.124l-.583.444a16.664,16.664,0,0,0-3.283-.083c-.675-.032-2.068-.006-3.1.058l-.769-.412-.094-.051a1.791,1.791,0,0,0-.833.429c-.1.115-.455-.092-.545-.192a8.321,8.321,0,0,0-2.536.331l-1.081-.1-.82-.077c-.692.109-2.371-.244-2.6,0a.37.37,0,0,1-.6-.15c-.058-.182-.461.077-.56.188s-1.527-.372-1.839-.088a1.159,1.159,0,0,1-1.057.162,10.415,10.415,0,0,0-2.094-.352l-.54.207a6.47,6.47,0,0,1-3.341.2l-1.171-.205c-1.068.132-2.869.081-2.98.233s-.575.194-.716.162-.419.188-.481.282-.718-.111-.934-.209a4.147,4.147,0,0,0-1.786.216l-.209-.2c-.491-.47-1.013.269-1.463-.1l-.2-.169a14.334,14.334,0,0,0-2.249.4,2.547,2.547,0,0,1-1.28-.211c-.218-.115-.812.1-.948.2s-1.109.173-1.154.047-.3-.173-.555-.1l-.241,0-.818.015c-.9,0-2.583.09-2.925.145s-1.156.25-1.809.429l-.647,0h-.355a9.7,9.7,0,0,1-1.656-.342l-.6.295-.25.124c-.581-.045-3.476-.1-4.266-.006s-1.929.22-2.119.218a14.575,14.575,0,0,0-3.5-.57c-.923.164-1.863.359-2.087.436l-.229.062a5.306,5.306,0,0,1-1.275.3l-1.292-.656c.028.523-.3.737-.491.615s-1.41-.1-1.433.075-.852.062-1.211.045a14.438,14.438,0,0,0-1.75.092l-.2-.122L70.3,5.52c-.026.551-.372.846-.53.769s-.686.214-.844.355-.8-.124-1.421-.59l-.822.5-.115.07c-.162.053-1.042.179-1.955.282l-.808.126-.107.015a1.274,1.274,0,0,1-.387-.346c-.045-.07-.2-.053-.335.038l-.113.088-.1.081c-.1.1-.57-.085-.684-.162s-1.23.226-1.681.173-1.955.028-2.384.006a6.378,6.378,0,0,0-1.023.011l-.132.017-.414.056c-.4.111-1.258.352-1.908.538L54.22,7.28l-.626-.547a7.377,7.377,0,0,1-2.905.156l.038.709,0,.028c-.1.03-1.9-.432-2.427-.169a5,5,0,0,1-1.41.491c-.141-.017-1.034-.182-1.985-.365l-.224.143c-.594.378-1.367-.167-1.918.235A1.648,1.648,0,0,1,41.072,8c-.019-.015-.594.1-.6.167-.028.6-.359.233-.859.154l-.489-.077c-.673.021-3.275-.244-4.048-.128s-1.547.248-1.718.295l-.006.051-.1.694a16.73,16.73,0,0,0-2.042-.459l-.075.252-.021.07c-.147.066-.991-.15-1.288-.079a5.228,5.228,0,0,1-1.581.109c-.376-.083-1.124.453-1.284.673s-.837.113-.983.043a9.306,9.306,0,0,0-1.641-.229c-.387-.009-1.042.521-1.367.412a5.764,5.764,0,0,0-1.653-.152l-.316.261-.323.269c-.376.387-1.374.081-1.711-.053s-2.049.158-2.517.032a5.226,5.226,0,0,0-1.508-.175l-.173.109-.316.2a1.141,1.141,0,0,1-1.342.079c-.139-.158-.549.094-.62.184s-.8.021-.906.152a.638.638,0,0,1-.573.164l-.2-.017c-.427-.034-.857-.06-1.288-.07H9.5c-.053.107.393.284.573.318s-.4.4-1.295.816l-.329-.372-.634-.722a3.7,3.7,0,0,0-1.886.869c-.056.158-.575.045-1.154-.25l-.538.419a1.718,1.718,0,0,1-1.974.075l-.068-.034c-.276.06.288.829-.1,1.032a3.92,3.92,0,0,1-1.508.254c-.211-.03-.254.068-.092.22l.028.143c.026.126-.143.258-.192.389l-.19.517c.526.453.741.9.664.925s-.438.156-.8.284l.03.075c.229.558.671-.045.735,0,.233.175,1.019.164.583.6l-.472.466c.718-.179,1.314-.032,1.324.329l-.021.192c-.06.513-.083.966,1.075,1.22l.461.1a1.726,1.726,0,0,1,.446,1.284l.218.291.056.073c.179.053,1.211.568,2.294,1.145L6.56,22.977l-.017.137c.056.188.846.355,1.754.37l.8-.036.419-.019c.746-.164.82.07.171.521l-.382.3-.07.056a.534.534,0,0,0,.517.141l.2-.026.244-.03a.636.636,0,0,1,.63.295l-.051.16-.056.171c-.186.177-.75.919-.583,1.136a3.215,3.215,0,0,0,.432.464l.446.244c.107.058.808-.427,1.218-.393s.44.921.068,1.974l2.833.066a30.169,30.169,0,0,0-3.858.767l-.1.218c-.634-.009-2.239-.344-2.459-.141s.222.707.434.82a6.868,6.868,0,0,0,1.989-.132c.427-.09,1.015-.237,1.3-.327l.226-.1.152-.07c.113-.109.549,0,.679.075a4.811,4.811,0,0,1,.752.748l-.453.335-.043.03c.327.173-.173.59.355.684a12.244,12.244,0,0,0,1.865-.013.106.106,0,0,0-.015.124c.156.273.226.459.8.4l1.286-.137c1.23.293-1.446.6-1.233.637a14.273,14.273,0,0,1,1.888,0c.342.12-.453.5-1.767.85l.13.9a2.058,2.058,0,0,1-.457.085l-.833.1c-.233.393,1.3,1.19,1.6,1.245a4.313,4.313,0,0,0,1.068-.013c.143-.032.192.092.113.276l-.085.164-.083.158c-.1.171.241.173.765,0l.408-.128L19.737,36c.376.107.562.376.515.444a6.269,6.269,0,0,1-2.461.229c-.59-.2-1.143-.235-1.23-.068l.047.124.156.4a1.585,1.585,0,0,1-.028,1.51l.412.355.184.158a4.15,4.15,0,0,0,1.542.293l-.03.476-.013.214c.579.252.374.577.184.611s2.017,1.083,1.8,1.455.647.953,1.047,1.062,1.577.664,1.015.667-1.709-.06-2.076-.045a16.177,16.177,0,0,1-2.025.226,7.484,7.484,0,0,0-1.066-.122l0,.019c-.207.893-.942.335-1.579.186l-.152-.036c-.28.1-.263.32-.171.376a2.923,2.923,0,0,1-1.431.286c.367.12.989.365.955.536-.053.271-.684.2-.8.135s-.872-.434-1.03-.335a6.233,6.233,0,0,1-.728.385,12.628,12.628,0,0,1-1.6.152c-.374,0-.893.414-1.1.464s-.688.194-1.066.32l-.062.15c-.273.677,3.781,1.363,3.651,2.051l-.043.226c.237.269-.132.622-.822.782l-.295-.553a1.524,1.524,0,0,0-1.013-.54l-1.44.13c-1.183-.425-3.734.363-4.681.551s-1.028.382-.182.434l.117.15a1.24,1.24,0,0,0,.981.513c.481.083.338.632-.154.814-.2.075-.555.068-.679.16-.237.175-.513.4-.47.59l.026.113c.564.1.62.237.122.3l-.12.117c-.419.419-.833-.276-1.19.028-.32.271-.664.534-.957.812-.122.113-.111.265-.207.391l-.3.385A2.309,2.309,0,0,0,3.1,54.63l.367-.164.346-.154c.594-.1.6,1.115-.214,1.327s-1.367.976-1.322,1.209a4.834,4.834,0,0,0,.869,1.367l-.1.532-.034.192c-.164.229.194.273.8.1l.261.064.491.122a3.415,3.415,0,0,0-.694.84l.269.224.53.44a3.02,3.02,0,0,1,1-.451,9.188,9.188,0,0,1-.476,1.7c-.169.459-.273,1.617.167,1.752a4.1,4.1,0,0,0,1.7.058l.464-.032.4-.028c.547.053-.051,1.042-.547,1.3s-1.19.611-1.542.788l.348.2c.323.184.4.3-.028.417a6.046,6.046,0,0,1-1.183.229c-.882.06-.188.241-.22.393-.064.288-.611.543.508.506a8.673,8.673,0,0,0,2.044-.258,1.36,1.36,0,0,1,.707.026l.211.128c.109.2.57.28.709.254a8.661,8.661,0,0,1,1.483.235,11.859,11.859,0,0,1,1.621.461,6.05,6.05,0,0,0,1.489.521l.643-.2c.092-.03.532.109.555.192l.222.754c1.117-.053,3.674-.147,4.3-.122s1.4.013,1.57.043,1.726.154,3.467.276l.985.8.028.021a6.744,6.744,0,0,1,2.484.434c.182.291,1.4.15,1.865.117s2.226.421,2.784.4a25.4,25.4,0,0,1,2.982.088,2.378,2.378,0,0,0,1.154.023l.15-.023.793-.118c-.117.28.179.461.662.4l.446-.041c.036,0,.167.154.179.239l.028.179c-.009.37.81-.006,1-.16a2.21,2.21,0,0,1,1.216-.011c.246.075.006.263-.53.421l-.017.135c-.056.489.724.273,1.175.295.124,0,.273-.184.423-.28l.122-.079c.15-.079,1.062.258,1.314.094s1.057.092,1.26.25,2.245-.3,2.647-.124a7.022,7.022,0,0,0,1.423.419l.205-.073.352-.126c.284-.22,1.822.032,2.346.013s1.324-.118,1.553-.1,1.038.041,1.8.047l.547-.15c1.03-.282,1.047.564,1.878.414l.079-.015c.081-.023,1.344-.472,1.28-.2s.132.226.235.122.782.109.972-.015,1-.62,1.327-.564a2.8,2.8,0,0,1,1.028.545c.137.139.72-.128.878-.256s.583.207.944.75l.5-.455c.752-.681,1.092-.545,1.82-.109a1.129,1.129,0,0,0,.549.079c.664-.421,1.075-.009,1.568.122.378.1.75.205,1.141.288l.754.16c.85-.094,1.72-.194,1.884-.254a2.773,2.773,0,0,1,1.109-.143,1.47,1.47,0,0,0,.872-.167,1.465,1.465,0,0,1,.761-.1l.194.079.286.115a2.027,2.027,0,0,0,1.288-.088.661.661,0,0,1,.647.171,21.586,21.586,0,0,0,2.337-.077c.63,0,1.7.036,1.957-.006s1.517-.239,2.811-.434l.722.22.983.3c.985-.088,3.506.231,4.322.092s2.745-.406,3.435-.414,1.848.03,2.576.088l.7-.113,1.013-.162a3.936,3.936,0,0,0,2.679-.032,7.16,7.16,0,0,1,2.239-.128c.449.023,1.357-.06,1.715-.015a13.225,13.225,0,0,0,2.435.246,18.038,18.038,0,0,1,1.839-.244l.6.19.479.152c.872-.147,2.132-.295,2.8-.325l.564.032c.446.026.643.37,1.369.218.925-.192,1.359.09,1.04.57l-.109.164c-.226.164,1.686.671,1.942.53s-.305-.523-.613-.63-.3-.211.024-.233l.085-.058c.246-.162.376-.453.66-.5s.72.2,1.085.2c.846,0,1.5.015,1.745.577l.1.229c.562.188,1.581.487,2.262.662l.081.316.045.177c.092.192.476.045.854-.327l.577-.288c.645-.32,1.7-.372,2.027-.968.184-.333,1.149-.887,1.472.088l.021.064c.367.036,1.459.344,1.465.515a.966.966,0,0,1-.449.592,11.612,11.612,0,0,1-1.7.258l-.352-.481-.066-.092a2.182,2.182,0,0,0-.976.194c-.158.083.489.348.76.417s.857.246.981.3.658.487.908.406a5.868,5.868,0,0,0,1.337-.9l1.008.023a21.221,21.221,0,0,0,4.253-.5.613.613,0,0,1,.38.2l.041.066a4.839,4.839,0,0,1-1.179.323c-.273.032-1.728.323-1.728.577s-1.008.528-1.357.551a1.326,1.326,0,0,0-.617.143c.006.028,1.408.049,1.923.049a6.248,6.248,0,0,0,2.117-.788c.346-.231.9.107.978.258s-.331.323-.908.382l.333.38.017.021a5.693,5.693,0,0,1,1.632-.062c.171.062.393-.224.491-.643l.1,0,.617-.019c.758.073,1.395-.023,1.412-.214l-.041-.182-.041-.179c-.12-.19-.436-.782-.15-.831s1.6.466,2.049.286.459.049.32.186-1.327.53-1.07.692a10.479,10.479,0,0,1,.946.675.9.9,0,0,0,.57.124c.1-.023.173-1.062.436-1.41a1.382,1.382,0,0,0,.361-.931l-.006-.124-.006-.2c.209-.218.953-.662,1.1-.528s.562.54.916.9l.566.261.235.109c.156.235,1.03.609.884.75s-.936.786-1.177,1,1.327-.09,1.634-.425a4.679,4.679,0,0,1,1.737-.972l.338.154a1.343,1.343,0,0,0,1.536-.068l.359-.269c.6-.013,1.128-1.019,1.128-1.41s.814-.609,1.077-.577a3.485,3.485,0,0,1,1.235.628l-.728.365c-.382.194-.38.59-.694.846l-.139.113a1.514,1.514,0,0,0-1.175.694l-.252.329a1.23,1.23,0,0,1-.677.132l-.455-.036a5.893,5.893,0,0,1-1.342-.393l-.305-.043-.329-.045c-.412-.032-1.145.38-1.132.573s-.019.442-.013.545.184.141.4.088l.2-.006.919-.03c1.025-.041,2.378.013,2.621-.013a2.771,2.771,0,0,0,.989-.778c.13-.184.737-1.147,1.128-.934s.814-.276.855-.543.224-.417.412-.331l.021.043c.188.361-.4,1.292,1.354.519.036-.015.754.256.773.408l.143,1.13a9.158,9.158,0,0,0,1.722.739l.308-.023.241-.019c.231-.156.184-.408.1-.453s-1.559-.252-1.352-.534.951.47,1.634.444,2.873-.015,3.292-.327a2.2,2.2,0,0,1,.938-.5l.064.032c.434.211-.382.79.654.756a1.831,1.831,0,0,0,1.028-.673l.2-.214c.006-.233,1.376-.276,1.839-.224s.248.761-.226.795-1.305.06-1.846.06l.15.348.045.1a11.5,11.5,0,0,0,1.448.139c.194-.011,1.455-.421,1.752-.226a4.34,4.34,0,0,0,.972.474.57.57,0,0,0,.429-.135l.015-.09.017-.1c-.045-.109.91-.517,1.333-.641a1.364,1.364,0,0,1,1.335.515l.487.107.5.107a11.367,11.367,0,0,1,2.7-.147c.359.073,1.036.2,1.173.237s2.106-.13,2.784-.028a15.923,15.923,0,0,0,2.5.137l.011-.7,0-.237c.412-.295,1.3.109,1.489.335a4.173,4.173,0,0,0,2.2-.1,1.631,1.631,0,0,1,1.515.214l.3.152.254.128c.38.111.773-.615.8-.912s.5-.154.566-.017.848.566.466.649.256.248,1.418.37l.852.085.126.013c.135,0,.891-.062,1.681-.132l.709-.066c1.025-.092,2.13.214,3.1-.239.348-.16.831-.079.876.276.041.333.278.15.628.094l.451-.073a1.368,1.368,0,0,0,1.218-.515c.064-.205.978-.222,2.032-.038l.092.654a2.231,2.231,0,0,0,.876.051l.378-.117a1.673,1.673,0,0,1,1.44.079c.218.167.925-.171,1.077-.305a3.329,3.329,0,0,1,1.76.111l.5.231.876.408a3.279,3.279,0,0,1,2.155-.346l.519-.041c.6-.045,1.384-.5,1.671-.4l1.049.338c.342-.391.69-.538.72-.47a13.62,13.62,0,0,0,2.247.363c.611.043,1.85,0,2.132-.023a8.036,8.036,0,0,1,1.423-.032c.22.064.88.021,1.209.064a17,17,0,0,0,2.944.4,4.3,4.3,0,0,0,1.436-.385l.135-.1.254-.192c.47-.338.855.175,1.233.179s1.685,0,2.9-.017l.863.16a10.076,10.076,0,0,0,2.8.12l.2-.017a17.583,17.583,0,0,0,1.777.021c.363-.115,1.639.1,2.021,0s2.292.132,2.942.1,1.557-.12,2.017-.2l.438,0,.545,0c.628.085,1.149-.085,1.162-.376l-.03-.192-.023-.152c-.182-.141.327-.258.566-.258s.421.434.367.583.38.419.963.6l.632-.077a1.168,1.168,0,0,0,.391-.2c.032-.015,2.523-.365,2.549-.355l1.038.436a40.561,40.561,0,0,1,4.7-.246c.684.053,1.745.094,1.935.077a7.108,7.108,0,0,1,1.762-.2c.363.109,1.25-.011,1.468.062a15.572,15.572,0,0,0,1.9.308l.329-.171,1.2-.617a48.092,48.092,0,0,0,5.45.782,2.773,2.773,0,0,0,1.534-.765c.2-.12,1.752.709,2.305.679s3.006-.184,3.766-.233a10.792,10.792,0,0,1,1.474-.043c.047.028.308.6.592.47a8.615,8.615,0,0,1,1.658-.382,6.068,6.068,0,0,1,1.668.3l.739-.314a10.183,10.183,0,0,1,2.1.135h.461a6.986,6.986,0,0,1,1.888-.107,1.762,1.762,0,0,0,.718.045c.079-.043-.021-.143-.22-.218l0-.068c0-.075.28-.22.333-.207.31.07.688.293.854.252.357-.092.568-.367,1.015-.049a5.864,5.864,0,0,1,.739-.145l.521.062c.592.1,1.931.021,2.307.162a6.817,6.817,0,0,0,1.935.15c.344-.045,1.416.214,1.7.186s.848-.111,1.245-.179l.474.115.9.224c.145-.414.372-.361.412-.209s.8.047,1.04-.026a3.474,3.474,0,0,1,1.352.081l.444-.269.387-.233a.982.982,0,0,1,1.156.16,3.959,3.959,0,0,0,1.694.342c.412-.036,1.559-.566,1.946-.438a4.849,4.849,0,0,0,1.893.017l.553.284.927.472a22.639,22.639,0,0,1,3.089-.432,7.289,7.289,0,0,1,1.876-.363c.316.045,2.7.293,3.533.3a10.488,10.488,0,0,0,1.758-.064c.1-.051.936-.359,1.115-.2a3.424,3.424,0,0,0,2.01-.286l.545.113,1.758.365c1.807-.226,4.587-.068,5.127-.1a1.748,1.748,0,0,0,1.171-.637c.051-.154,1.119.22,1.483.4a3.289,3.289,0,0,0,1.72-.188,1.538,1.538,0,0,1,.974-.066l.2.083a2.243,2.243,0,0,0,2.45.081c.414-.158,1.1-.233,1.248-.432l.175-.241a1.574,1.574,0,0,1,1.06.143c.1.132.508.117.656.064s.365.361.4.511,1.083.278,1.47.284a18.9,18.9,0,0,0,1.955.026,13.938,13.938,0,0,0,1.826-.058,5.839,5.839,0,0,1,1.666-.261c.3.036,1.361.19,1.656.258a3.272,3.272,0,0,0,1.461-.209l.654.216a3.485,3.485,0,0,0,2.006.036l.662-.175a5.927,5.927,0,0,1,2.395.335c.233.16,1.329-.194,1.611-.344a4.661,4.661,0,0,1,1.965.216,1.439,1.439,0,0,0,1.425-.444l.577.12.989.2c1.047-.094,2.158-.216,2.322-.194a33.461,33.461,0,0,0,4.347.4c1.134-.075,3.711-.474,4.236-.261a2.108,2.108,0,0,0,1.745-.135l.15.036.993.237a27.232,27.232,0,0,1,3.858-.25l.692.278.948.378a20.78,20.78,0,0,1,3.337-.387,9.607,9.607,0,0,1,2.472-.066c.2.175.837.028,1.092.028s2.322.111,3.036.145,1.668.077,2,.058,1.171.13,1.442.109a14.343,14.343,0,0,1,2.463-.449c.6.073,2.611,0,3.174.049a23.644,23.644,0,0,0,2.564.143c.432-.053,2.053.085,2.653.036s1.874-.083,2.162-.077,1.69.513,1.713.239.211-.265.278-.173,1.856-.137,2.551-.124a13.222,13.222,0,0,0,2.034-.043c.3-.085,1.348.107,1.66.077s1.384-.19,2.382-.361l.739.118,1.113.179a31.879,31.879,0,0,1,3.533-.167l.56-.169.782-.235a5.53,5.53,0,0,0,2.35.126l.667-.053.7-.058a15.137,15.137,0,0,1,2.551.188l.675-.115.662-.113a7.123,7.123,0,0,0,2.608-.325l.735.3.164.068c.464-.128,2.521.226,3.031-.017a3.11,3.11,0,0,1,1.551-.3,11.812,11.812,0,0,0,1.88-.158c.538-.038,1.733-.139,2.649-.226l.9.132.523.079a10,10,0,0,1,2.337-.38c.231.124,2.574-.258,3.459-.256s2.527-.147,2.875-.186a19.988,19.988,0,0,0,2.079.085,8.269,8.269,0,0,1,2.177-.111l.664-.323.07-.034a4.992,4.992,0,0,0,1.921-.391l.167.175c.476.506,1.145-.434,1.48.109a8.433,8.433,0,0,1,1.218-.143l.639.511a8.364,8.364,0,0,1,2.162-.857l.7,0,1.367,0c1.487-.03,3.29-.137,4.005-.241l.684-.058.667-.053c.711-.115,4.888-.282,6.174-.5a17.868,17.868,0,0,1,3.5-.3l.545-.145.455-.122a11.5,11.5,0,0,1,1.683-.256,9.053,9.053,0,0,0,1.369-.376,2.692,2.692,0,0,1,.709-.171c.068.006.481.071.916.141l-.224-.222-.784-.78a7.175,7.175,0,0,1-1.666-1.564c.034-.019.786-.308,1.671-.641l-1.045-.8-.423-.323c.2-.314.472-.793.611-1.064l-.425-.222-.355-.186c-.058-.278-.16-.771-.229-1.1l.036-.226.085-.551c-.664-.026.068-.338.308-.583a12.363,12.363,0,0,1,1.534-1.177l-.936-.278c-1.209-.357-1.41-.662-.56-1.252l.312-.216c.041-.389-.573-1.051-.857-1.2s-.4-.333-.348-.361.205-.252.374-.276.139-.4.276-.5a14.764,14.764,0,0,0,1.542-.737c.244-.22.3-.481.12-.581l-.141-.006a1.392,1.392,0,0,1-1.265-.615l-.244-.378a1.874,1.874,0,0,1,1.271-.624c.25.013.865-.664,1.015-.679a1.553,1.553,0,0,1,.758.273,5.529,5.529,0,0,0,1.811-.235c.455-.124.036-.325-.224-.3s-1.641.271-1.591.043a.289.289,0,0,0-.229-.367c-.094,0-.948.282-1.216.171s-.874-.429-1.038-.511.765-.2,1.094-.147a7.008,7.008,0,0,0,1.542,0,3.5,3.5,0,0,1,1.389.182c.229.128.237-.043.017-.378l-.256-.263-.135-.135c.019-.2,1.374-.489,1.66-.7s-.117-.771-.318-.882-.22-.472-.043-.81l.231-.288.436-.547c-1.115-.269-1.149-.444-.075-.389l.077.122.194.305c.432.045.867-.1.97-.323l-.335-.192c-.058-.032.15-.2.237-.3.318-.374.077-.513-.671-.519l-.282,0c-.308-.113-.282-.378-.175-.442a8.739,8.739,0,0,0,.793-.66l-.237-.261a2.4,2.4,0,0,0-1.874-.889l-.152.024c-.175.12-.722-.284-.854-.449s.686-.669,1.01-.8-.763-.314-1.13-.335-.211-.47-.07-.6a1.2,1.2,0,0,1,.654-.263l.051.026.4.184a2.139,2.139,0,0,0,1.3.107c.141-.077-.246-.555-.545-.981a1.678,1.678,0,0,0-1.506-.613l-.2-.2-.476-.47c.741-.291.805-.679.6-.737a4.071,4.071,0,0,0-1.555.316l-.543-.449-.036-.03c-.083-.017-.19.137-.235.346l-.169.147-.258.226a2.808,2.808,0,0,1-1.591.1c-.231-.12.173-.6.9-1.075l.113-.414c.1-.359-.511-.769-.767-1.162l-.038-.06c.16-.128,1.228.429,1.683.611a2.643,2.643,0,0,0,1.493-.021,4.072,4.072,0,0,1,1.568.1c.3.117.429-.066.291-.41l-.088-.3-.109-.367a11.275,11.275,0,0,1-2.014-.173l-.019-.12-.094-.6a.938.938,0,0,1-1.209-.077l-.145.011c-.9.066-.637-.363-.946-.532l-.147-.081c-.329,0-1.72-.115-1.777-.338a1.646,1.646,0,0,1,.374-.931c.141-.158,1.292.224,1.745.28s2.6-.034,3.187.122a16.754,16.754,0,0,0,3.689.485,13.651,13.651,0,0,1,2.865-.19,11.882,11.882,0,0,0,1.425.284l.049-.049c.393-.387.827.049,1.179-.034l.417-.1c.329-.126-.083-.587-.333-.724s-.622-.908-.2-1.025-.064-1.581-.327-2.029-.367-1.277.041-1.3,1.312-.132,2.01-.252l.158-.387.111-.263c-.009-.4.59-.528,1.327-.288M8.152,56.019c-.318.248-.652.664-1.032.681-1.049.047-.244-.551-.673-.737-.521-.224-.267-.342.062-.53.421-.239.534.017.79.088l.286.079c.34.049.632.207.652.35Zm7.073-6.449c-.419-.062-1.54-.694-1.235-1.036s.658-.41.782-.15l-.034.182c-.07.387.122.611.919.643l.1,0c.128.258-.111.419-.532.357M137.386,72.918a10.7,10.7,0,0,0-2.053-.587c-.427,0,.158-.152,1.3-.331l.944.481.12.062c.575-.164,1.045.246,1.045.466s-1.019.034-1.354-.09m7.086-.423a12.852,12.852,0,0,0-2.282.184c-.305.115-1.559.564-1.829.348s.081-.515.771-.66l.562-.167.594-.175a10.834,10.834,0,0,0,1.97.115c.342-.064,1.771-.256,2-.038s-1.254.4-1.788.393m14.8-.293-.263.171a.993.993,0,0,1-.423.117l-.769-.4a6.289,6.289,0,0,1-2.621-.017c-.286-.145-.421-.367-.382-.406a3.158,3.158,0,0,1,.97.12c.5.1,2.724-.224,3.213-.171s.615.314.276.581m10.895,2.922c-.436.024-.263-.857-.291-1.183s.028-.284.128.09.6,1.07.162,1.094m19.474-.276-.1.124a3.745,3.745,0,0,1-1.788-.342l-.669-.209-.54-.171c-.4-.517-.526-.916-.28-.889a3.364,3.364,0,0,1,1.237.726l.453.137.4.122c.726-.053,1.361.1,1.414.35Zm69.868-1.525a7.936,7.936,0,0,1-1.73.305c-.263-.09-.314-.359-.115-.6l-.194-.244-.045-.058a4.1,4.1,0,0,1,1.48-.209c.694-.011,1.094.724.6.8m90.607-.024a2.812,2.812,0,0,1-1.758-.763c-.164-.32.634-.459.784-.335s.878.519,1.134.664.184.342-.16.434m143.4-37.957c-.446-.1-1.754-.617-2.493-.863.036-.028.158-.122.594-.453l.822-.626c.455.489,1.365,1.427,1.624,1.686s.013.376-.547.256m10.51-.122-.019.169-.043.372c-.485-.028-2.143-.436-2.271-.8s.066-.365.434,0l.513.124.342.083c.976-.318,1.446-.295,1.045.051m11.64-.669-.387-.314-.525-.423c-.761-.026-.9.16-.31.414l-1.237.015-.511.006c-.669-.117-.953.124-.632.536l.34.3a1.43,1.43,0,0,0,.8.318l1.442-.164c1.2.474,1.972.743,1.724.6s.312-.741.549-.782-.327-.269-1.256-.5" transform="translate(0.511 0.002)" fill="#2163ef"/>
    </g>
  </g>
</svg>
