<svg xmlns="http://www.w3.org/2000/svg" xmlns:xlink="http://www.w3.org/1999/xlink" width="28.785" height="29.305" viewBox="0 0 28.785 29.305">
  <defs>
    <clipPath id="clip-path">
      <rect id="Rectangle_248" data-name="Rectangle 248" width="28.785" height="29.305" transform="translate(0 0)" fill="#2163ef"/>
    </clipPath>
  </defs>
  <g id="Group_587" data-name="Group 587" clip-path="url(#clip-path)">
    <path id="Path_412" data-name="Path 412" d="M26.279,8.985H24.388V2.236A2.236,2.236,0,0,0,22.152,0H6.633A2.236,2.236,0,0,0,4.4,2.236V8.985H2.506A2.506,2.506,0,0,0,0,11.491V21.9a2.506,2.506,0,0,0,2.506,2.506H4.4v2.855a2.043,2.043,0,0,0,2.044,2.043h15.9a2.043,2.043,0,0,0,2.044-2.043V24.407h1.891A2.506,2.506,0,0,0,28.785,21.9V11.491a2.506,2.506,0,0,0-2.506-2.506M5.651,2.5A1.243,1.243,0,0,1,6.894,1.254h15A1.243,1.243,0,0,1,23.134,2.5V8.918H5.651ZM23.134,27.113a.939.939,0,0,1-.939.939H6.59a.939.939,0,0,1-.939-.939V18.068H23.134v5.085h-.005v1.254h.005Zm4.4-5.605a1.646,1.646,0,0,1-1.646,1.646h-1.5V16.815H4.4v6.339H2.9a1.646,1.646,0,0,1-1.646-1.646V11.885A1.646,1.646,0,0,1,2.9,10.239H25.885a1.646,1.646,0,0,1,1.646,1.646Z" transform="translate(0 0)" fill="#2163ef"/>
    <path id="Path_413" data-name="Path 413" d="M416.743,1159.847H405.22a.573.573,0,0,0-.621.507v.01a.572.572,0,0,0,.621.507h11.523a.572.572,0,0,0,.62-.507v-.01a.573.573,0,0,0-.62-.507" transform="translate(-396.589 -1136.884)" fill="#2163ef"/>
    <path id="Path_414" data-name="Path 414" d="M416.743,998.842H405.22a.573.573,0,0,0-.621.507v.01a.573.573,0,0,0,.621.507h11.523a.573.573,0,0,0,.62-.507v-.01a.573.573,0,0,0-.62-.507" transform="translate(-396.589 -979.067)" fill="#2163ef"/>
    <path id="Path_415" data-name="Path 415" d="M416.743,1306.836H405.22a.573.573,0,0,0-.621.507v.01a.573.573,0,0,0,.621.507h11.523a.573.573,0,0,0,.62-.507v-.01a.573.573,0,0,0-.62-.507" transform="translate(-396.589 -1280.963)" fill="#2163ef"/>
    <path id="Path_416" data-name="Path 416" d="M1129.787,613.253a1.288,1.288,0,1,0,1.288,1.289,1.289,1.289,0,0,0-1.288-1.289" transform="translate(-1106.157 -601.112)" fill="#2163ef"/>
  </g>
</svg>
