<svg id="Group_553" data-name="Group 553" xmlns="http://www.w3.org/2000/svg" xmlns:xlink="http://www.w3.org/1999/xlink" width="23" height="20.706" viewBox="0 0 23 20.706">
  <defs>
    <clipPath id="clip-path">
      <rect id="Rectangle_244" data-name="Rectangle 244" width="23" height="20.706" fill="none"/>
    </clipPath>
  </defs>
  <g id="Group_552" data-name="Group 552" clip-path="url(#clip-path)">
    <path id="Path_407" data-name="Path 407" d="M54.82,37.952a1.158,1.158,0,1,0-1.158-1.158,1.158,1.158,0,0,0,1.158,1.158" transform="translate(-44.544 -29.581)" fill="#fff"/>
    <path id="Path_408" data-name="Path 408" d="M86.658,37.952A1.158,1.158,0,1,0,85.5,36.794a1.158,1.158,0,0,0,1.158,1.158" transform="translate(-70.972 -29.581)" fill="#fff"/>
    <path id="Path_409" data-name="Path 409" d="M60.062,57.347a.6.6,0,0,0-.725.449,2.975,2.975,0,0,1-2.957,1.977,2.871,2.871,0,0,1-2.956-1.991.6.6,0,0,0-1.184.228,4.048,4.048,0,0,0,4.054,2.97l.118,0A4.741,4.741,0,0,0,59.1,60.1a3.563,3.563,0,0,0,1.406-2.023.6.6,0,0,0-.449-.725" transform="translate(-43.355 -47.558)" fill="#fff"/>
    <path id="Path_410" data-name="Path 410" d="M22.88,7.842a8.681,8.681,0,0,0-1.554-3.666,10.039,10.039,0,0,0-3.612-3.046A10.556,10.556,0,0,0,12.985,0a10.328,10.328,0,0,0-1.377.092A10.992,10.992,0,0,0,6.341,2.321,8.335,8.335,0,0,0,3.2,7.264a15.881,15.881,0,0,0-.2,1.8,8.122,8.122,0,0,1-.447,2.569c-.206.438-.513.729-1.344.729a1.206,1.206,0,0,0-.963,1.932,9.614,9.614,0,0,0,4.606,3.273,2.389,2.389,0,1,0,4.655.848c.561.03,1.1.041,1.607.041h1.035c.293,0,.589,0,.887-.011a2.389,2.389,0,1,0,4.616-.98,10.232,10.232,0,0,0,2.595-1.813,8.745,8.745,0,0,0,2.286-3.526,8.855,8.855,0,0,0,.351-4.282M7.117,19.1a.789.789,0,1,1,.784-.837c0,.016,0,.032,0,.048a.789.789,0,0,1-.789.789m8.3,0a.788.788,0,0,1-.788-.775s0-.009,0-.014a.789.789,0,1,1,.789.789m5.967-7.358a8.385,8.385,0,0,1-4.452,4.719,2.389,2.389,0,0,0-3.642.761c-.4.017-.79.02-1.145.02H11.11c-.592,0-1.227-.014-1.884-.059a2.387,2.387,0,0,0-3.69-.663,8.549,8.549,0,0,1-4.33-2.96c3.41,0,2.737-3.811,3.178-6.071.672-3.444,4.08-5.76,7.385-6.207a9.116,9.116,0,0,1,1.216-.081c5.433,0,10.27,4.851,8.4,10.54" transform="translate(0 -0.001)" fill="#fff"/>
  </g>
</svg>
