<svg xmlns="http://www.w3.org/2000/svg" xmlns:xlink="http://www.w3.org/1999/xlink" width="252" height="51" viewBox="0 0 252 51">
  <defs>
    <clipPath id="clip-path">
      <rect id="Rectangle_117" data-name="Rectangle 117" width="252" height="51" transform="translate(-0.001 -0.395)" fill="#fff"/>
    </clipPath>
  </defs>
  <g id="Group_198" data-name="Group 198" transform="translate(0.001 0.395)" clip-path="url(#clip-path)">
    <path id="Path_142" data-name="Path 142" d="M6.9,29.83a.257.257,0,0,0,.086.024c-.108-.048-.17-.067-.086-.024M249.225,19.692l.248-.013.307-.014c.347-.147.358-.344.024-.441l-.286-.107c-.088-.033-.179-.141-.171-.208a.294.294,0,0,1,.221-.165.854.854,0,0,0,.775-.276.2.2,0,0,0-.014-.25.53.53,0,0,0-.344-.05l-.1.021c-.1.087-.208-.1-.234-.424l-.407-.186c-.186-.084-.278-.295-.381-.458-.151-.239.055-.471.444-.425l.2.023c.048-.063-.394-.8-.764-.807s-1.157.058-1.313.027a3.575,3.575,0,0,0-.58-.054l-.15.017-.265.03c-.279.041-.508-.33-.508-.45s.641-.253.868-.265.024-.083-.45-.154l-.424-.028c-.5-.036-.9-.632-.684-.982l.2-.324c-.06-.349-.37-1.09-.264-1.232s-.057-.341-.362-.443l-.145-.132c-.253-.228-.41.46-.657.01l-.085-.152a4.478,4.478,0,0,0-.635-.319,3.519,3.519,0,0,1,.83-.286c.246-.063.192-1.392-.054-1.882s.481-.573.781-.471.532,0,.514-.233l-.107-.115-.166-.179a1,1,0,0,1-.421-.526c.011-.063-.167-.1-.4-.073l-.208.028c-.035,0-.06.058-.095.063-.061.006-.165,0-.18-.021-.033-.054-.061-.159-.025-.179l.16-.085c.192-.077.387-.2.379-.245s-.1-.08-.2-.078l-.091-.006-.086-.006c-.088-.014-.249-.38-.357-.812l-.076-.4-.036-.188a1.469,1.469,0,0,1,.233-.748l-.359-.127-.007,0c.085-.144-.063-.329-.145-.354l-.89-.289-.054-.174c-.119-.387-.752-.413-.818-.61l-.134-.4a8.676,8.676,0,0,0-1.9-.394.683.683,0,0,1-.691-.279c-.007-.087-.321-.071-.414-.047s-.975-.313-1.329-.316a7.9,7.9,0,0,0-.917,0c-.111.03-.759.259-.732.1s-.231-.129-.356-.091-.661-.1-.836-.073a7.324,7.324,0,0,1-1.4-.192c-.291-.081-.9-.233-1.346-.337l-.2-.35c-.063-.11-.4-.164-.62-.184-.138-.011-.334.158-.437.127-.359-.11.2-.249.041-.307C229.806.6,229.3.4,229.114.488a1.141,1.141,0,0,1-.99-.053A3.328,3.328,0,0,0,226.245.3l-.531.141c-.255-.206-.5-.1-.553.236l-.57-.316-.306-.169A3.027,3.027,0,0,0,222.93.33a1.359,1.359,0,0,1-.775-.044,1.647,1.647,0,0,0-.73-.129c-.113.017-.719-.138-.614.046s-.425.064-.559,0-.649-.26-.772-.189a1.026,1.026,0,0,1-.323.112,3.338,3.338,0,0,0-.554.341l-.447-.138-.382-.12c-.395.216-1.015.663-1.186.585a2.824,2.824,0,0,0-.972-.117l-.3-.124-.065-.027c-.141.064-1.006-.175-1.317-.137a3.277,3.277,0,0,0-.695.132c-.041.036.047.283.1.381s-.284.061-.751-.084l-.052.051L212.2,1.2c-.482-.04-.974-.047-1.035-.055a1.913,1.913,0,0,1-.471-.282l-.26-.013c-.353-.017-.876-.111-1.029.017l-.368.307c-.34-.135-.363-.024-.248.075s-.641-.041-.742-.111-.275-.182-.315-.2a3.481,3.481,0,0,1-.714.158,8.972,8.972,0,0,1-.927-.128c-.143-.058-.73-.159-.756-.011s-.437.287-.915.31l-.25-.148L203.7.838a4.9,4.9,0,0,1-1.159.169l-.1.041-.209.085a3.911,3.911,0,0,0-.876.179l-.326-.047-.332-.048A2.35,2.35,0,0,1,199.659.96c-.138-.12-.662.081-.794.178s-.421-.031-.511-.135-.381-.041-.648.138l-.2-.014-.256-.017a4.5,4.5,0,0,0-1.14.065l-.32.058-.083.016a4.794,4.794,0,0,0-.681-.118,3.77,3.77,0,0,1-.81-.064l-.155.08c-.534.273-.8.009-1.113-.218L192.913.9c-.079-.006-.216.266-.243.373s-.495-.055-.675-.024-.919.219-1.157.255a2.585,2.585,0,0,1-1.033-.157l-.31-.016-.24-.014a.722.722,0,0,0-.582.376c-.026.115-.431-.28-.511-.259a4.943,4.943,0,0,1-1.287.174,4.395,4.395,0,0,0-.972-.134,1.68,1.68,0,0,1-.457.142,2.138,2.138,0,0,1-.6-.185l-.314.174-.233.129c-.405.023-.926.061-1.157.085l-.178-.055-.109-.034c-.073-.195-.262-.081-.294-.014s-.347-.148-.493-.2-1.182.006-1.533-.028-.97.147-1.129.115a4.715,4.715,0,0,0-.972.134,4.132,4.132,0,0,1-1.048.041c-.186-.048-.984-.231-.991-.07s-.067.258-.136.216l-.062-.037-.62-.366a3.031,3.031,0,0,1-1.172.424l0-.026c-.046-.312-.167-.4-.58-.211l-.132.06a1.537,1.537,0,0,0-.894.061l-.284-.009c-.412-.01-.814.058-1.245.041l-.422-.018c-.508.01-1.446.363-1.71.363a8.767,8.767,0,0,1-1.4-.283.518.518,0,0,0-.557.269c-.021.1-.193-.021-.384-.266l-.446.206-.237.11a7.1,7.1,0,0,0-.917.228,5.989,5.989,0,0,1-1.041-.048c-.233-.011-.9-.269-1.075-.178a7.692,7.692,0,0,1-1.149.248c-.225.041-.646.131-.935.2l-.24-.223-.15-.138a1.009,1.009,0,0,0-.367.559l-.19-.2-.318-.33a1.969,1.969,0,0,1-1.117.248l-.3-.013c-.352-.013-.707,0-1.062,0h-.71c-.779,0-1.752-.006-2.163-.014l-.355.038c-.35.037.429.266-.053.367l-.456.1c-.153-.306-.613-.222-.7-.138s-.726.24-.774.158a2.111,2.111,0,0,0-.9-.319c-.237,0-1.1.206-1.315.077a.325.325,0,0,0-.463.142c-.022.108-.283-.018-.36-.081a2.391,2.391,0,0,0-.7-.225l.011.333v.048c-.073.054-.875-.29-1.21-.245s-.544-.04-.462-.191l-.017-.006-.513-.192a.3.3,0,0,1-.407.282c-.1-.07-.412.038-.5.1a.8.8,0,0,1-.426.107.729.729,0,0,1-.294-.407l-.329.128c-.023.009.13.236.169.367l.012.044c-.069.057-.4-.068-.5-.134s-.728.158-.867.016a1.154,1.154,0,0,0-.526-.3c-.091.009-.626.046-1.188.083l-.5.068-.287.038c-.306-.024-.842-.088-1.189-.144l-.351.085c-.206.048-.5-.124-.722-.084l-.393.074c-.354-.083-1.192.11-1.386.044a4.173,4.173,0,0,0-.6-.108,1.965,1.965,0,0,0-.647.087l-.168.01c-.351.021-.774-.343-1.055.1l-.02.031a1.81,1.81,0,0,1-.435-.361c-.087-.1-.492.013-.585.1s-.658.067-.675-.04-.266-.023-.358.046-.3.02-.453-.107l-.166-.09-.09-.048a1.136,1.136,0,0,0-.618.282l-.367-.091c-.178-.044-.456.151-.651.118l-.188-.031c-.181-.178-.608.054-.684.064s-.742-.45-1.029-.343a5.915,5.915,0,0,1-1.354.192c-.227-.009-1.21.434-1.564.343a9.071,9.071,0,0,0-1.84-.127,4.129,4.129,0,0,1-.663.1,5.655,5.655,0,0,1-.694-.2l-.38.046a9.023,9.023,0,0,1-1.531-.078.728.728,0,0,0-.246.028c-.012.421-.2.165-.42.084l-.211-.077a1.457,1.457,0,0,0-.751.132,1.5,1.5,0,0,1-.76-.046l-.331-.02-.392-.021a8.8,8.8,0,0,0-1.408-.112c-.134.075-.562.092-.663.155a1.12,1.12,0,0,1-.5.12l-.139-.036-.347-.09a2.493,2.493,0,0,0-1.233,0l-.3-.2c-.029-.02-.21.12-.313.112l-.177-.01a1.406,1.406,0,0,0-.75.11.8.8,0,0,1-.242.138c-.021-.006-.267-.176-.354-.24s-.674.184-.912.135a6.875,6.875,0,0,0-1.361-.221c-.237.044-.52.084-.554.091s-.666-.275-.708-.09-.052.121-.021-.142l-.438.208-.577.275a.531.531,0,0,0-.289-.64l-.179.139L105,2.5a3.12,3.12,0,0,1-1.376.118,1.15,1.15,0,0,0-.431-.125l-.051.037-.451.323a3.5,3.5,0,0,1-.6-.363c-.043-.055-.286.016-.539.158l-.193.108-.847-.229-.282-.121a1.754,1.754,0,0,0-.862.255c-.069.074-.246-.078-.28-.139s-.411.028-.558,0a2.15,2.15,0,0,0-.773-.01c-.2.068-.966.4-.942.231s-.345-.115-.542-.111a10.543,10.543,0,0,1-1.821-.467l-.607.616-.007.007c-.219-.105-.857.194-1.106.112s-1.111-.01-1.433-.048a6.012,6.012,0,0,0-1.569.07c-.241.1-.506.2-.524.2a4.645,4.645,0,0,1-.374-.366c-.088-.1-.426.018-.513.08a1.978,1.978,0,0,1-.972-.164l-.418.3-.071.053a6.5,6.5,0,0,0-1.115-.135l-.275-.115c-.316-.132-.428.393-.77.073-.08-.075-.475-.018-.692.041l-.418.115c-.136-.215-.455-.38-.541-.346s-.474.178-.861.317l-.343-.011L81.4,2.951a6.276,6.276,0,0,0-1.12-.246h0l.007.369a1.673,1.673,0,0,0-.853-.24.87.87,0,0,1-.472,0l-.082.013c-.138.021-.258.1-.4.129a2.3,2.3,0,0,1-.4,0h-.178c-.194,0-.724-.055-.868-.071s-.525-.074-.845-.127l-.115.083-.354.255c-.229-.2-.884-.259-.9-.157s-.512.011-.713.01a5.917,5.917,0,0,0-.792.061l-.073-.063-.359-.312c-.481.074-1.428.166-2.107.2l-.617.016c-.21.006-.563-.132-.611-.083l-.284.3a5.934,5.934,0,0,0-1.6-.055,12.612,12.612,0,0,0-1.506.038L65.8,2.807l-.046-.034a.827.827,0,0,0-.405.286c-.05.077-.221-.061-.265-.128a3.017,3.017,0,0,0-1.233.221l-.526-.067-.4-.051c-.337.073-1.153-.162-1.266,0s-.267.02-.294-.1-.224.051-.272.125S60.348,2.809,60.2,3a.44.44,0,0,1-.514.108,3.858,3.858,0,0,0-1.018-.235l-.263.138a2.341,2.341,0,0,1-1.625.135l-.569-.137a10.744,10.744,0,0,0-1.449.155c-.054.1-.279.129-.348.108s-.2.125-.234.188-.349-.074-.454-.139a1.508,1.508,0,0,0-.868.144l-.1-.134c-.239-.313-.492.179-.712-.07l-.1-.112a5.3,5.3,0,0,0-1.094.263.949.949,0,0,1-.622-.141c-.106-.077-.395.067-.461.135s-.539.115-.561.031-.144-.115-.27-.068l-.117,0-.4.01a12.31,12.31,0,0,0-1.422.1c-.165.038-.562.166-.88.286h-.487a3.632,3.632,0,0,1-.805-.228l-.292.2-.122.083a15.239,15.239,0,0,0-2.075,0c-.384.064-.938.147-1.031.145a5.38,5.38,0,0,0-1.7-.38,9.373,9.373,0,0,0-1.015.29l-.111.041c-.211.075-.557.246-.62.2l-.628-.437c.014.349-.148.491-.239.41s-.686-.065-.7.05-.414.041-.589.03a5.147,5.147,0,0,0-.851.061l-.1-.081-.57-.464c-.012.367-.181.563-.258.512s-.333.142-.41.236-.389-.083-.691-.393l-.4.336-.056.047a7.476,7.476,0,0,1-.951.188l-.393.084-.052.01a.742.742,0,0,1-.188-.231c-.022-.047-.1-.036-.163.026l-.055.058-.049.054c-.049.065-.277-.057-.332-.108s-.6.151-.818.115-.951.018-1.159,0a2.269,2.269,0,0,0-.5.007l-.064.011-.2.037c-.194.074-.612.235-.928.359l-.152-.181-.3-.364a2.652,2.652,0,0,1-1.413.1l.019.472V5.08c-.048.02-.925-.287-1.18-.112a2.021,2.021,0,0,1-.686.327c-.069-.011-.5-.121-.965-.243l-.109.1c-.289.252-.665-.111-.933.157-.083.083-.529.337-.824.023-.009-.01-.289.07-.291.111-.014.4-.175.155-.418.1l-.238-.051c-.327.014-1.593-.162-1.969-.085s-.752.165-.835.2l0,.034-.047.462a6.312,6.312,0,0,0-.993-.306l-.036.168L15.133,6c-.072.044-.482-.1-.626-.053a1.877,1.877,0,0,1-.769.073c-.183-.055-.546.3-.624.448s-.407.075-.478.028a3.4,3.4,0,0,0-.8-.152c-.188-.006-.507.347-.665.275a2.081,2.081,0,0,0-.8-.1l-.154.174-.157.179c-.183.258-.668.054-.832-.036s-1,.105-1.224.021a1.894,1.894,0,0,0-.733-.117l-.084.073-.154.134A.44.44,0,0,1,6.378,7c-.068-.105-.267.063-.3.122s-.391.014-.44.1a.26.26,0,0,1-.278.11l-.1-.011c-.208-.023-.417-.04-.626-.047H4.618c-.026.071.191.189.278.212s-.2.266-.63.544l-.16-.248L3.8,7.3a1.675,1.675,0,0,0-.917.579c-.027.105-.279.03-.561-.166L2.058,8a.66.66,0,0,1-.96.05l-.033-.023c-.134.04.14.552-.047.687a1.45,1.45,0,0,1-.733.169c-.1-.02-.124.046-.045.147l.014.1c.012.084-.07.172-.093.259l-.092.344c.256.3.36.6.323.616L0,10.531l.015.05c.111.371.326-.03.357,0,.113.117.5.11.284.4l-.23.31c.349-.12.639-.021.644.219l-.01.128c-.029.341-.041.643.523.812l.224.068a1.438,1.438,0,0,1,.217.855l.106.194.027.048c.087.036.589.378,1.116.763L3.19,15.3l-.008.091c.027.125.411.236.853.246l.387-.024.2-.013c.363-.11.4.047.083.347l-.186.2-.034.037a.218.218,0,0,0,.251.094l.1-.017.118-.02a.292.292,0,0,1,.306.2l-.025.107-.027.114c-.09.118-.365.612-.284.757a2.016,2.016,0,0,0,.21.309l.217.162c.052.038.393-.285.592-.262s.214.613.033,1.315l1.377.044a11.252,11.252,0,0,0-1.876.511l-.048.145c-.309-.006-1.089-.229-1.2-.094s.108.471.211.546a2.462,2.462,0,0,0,.967-.088c.208-.06.493-.158.634-.218l.11-.07.074-.047c.055-.073.267,0,.33.05a2.916,2.916,0,0,1,.366.5l-.22.223-.021.02c.159.115-.084.393.172.455a4.353,4.353,0,0,0,.907-.009.092.092,0,0,0-.007.083c.076.182.11.306.391.266l.625-.091c.6.195-.7.4-.6.424a5.072,5.072,0,0,1,.918,0c.166.08-.22.334-.859.566l.063.6a.769.769,0,0,1-.222.057l-.405.065c-.113.262.633.793.78.83a1.537,1.537,0,0,0,.519-.009c.07-.021.093.061.055.184L8.983,24l-.041.105c-.05.114.117.115.372,0l.2-.085.085-.037c.183.071.273.25.25.3a2.275,2.275,0,0,1-1.2.152c-.287-.135-.556-.157-.6-.046l.023.083.076.266a1.4,1.4,0,0,1-.014,1.006l.2.236.089.105a1.558,1.558,0,0,0,.75.195l-.015.317-.006.142c.282.168.182.384.089.407s.981.721.876.969.315.635.509.707.767.443.493.444-.831-.04-1.01-.03a5.842,5.842,0,0,1-.985.151,2.7,2.7,0,0,0-.518-.081l0,.013c-.1.595-.458.223-.768.124l-.074-.024a.168.168,0,0,0-.083.25,1.117,1.117,0,0,1-.7.191c.179.08.481.243.464.357-.026.181-.332.131-.39.09s-.424-.289-.5-.223a2.874,2.874,0,0,1-.354.256,4.543,4.543,0,0,1-.776.1c-.182,0-.434.276-.535.309s-.335.129-.518.213l-.03.1c-.133.451,1.839.908,1.775,1.366l-.021.151c.115.179-.064.414-.4.521l-.143-.369a.714.714,0,0,0-.492-.36l-.7.087c-.576-.283-1.816.242-2.276.367s-.5.255-.088.289l.057.1a.589.589,0,0,0,.477.341c.234.055.164.421-.075.542-.1.05-.27.046-.33.107-.115.117-.249.269-.229.393l.012.075c.274.068.3.158.059.2l-.058.078c-.2.279-.405-.184-.579.018-.156.181-.323.356-.465.541-.059.075-.054.176-.1.26l-.146.256c.279.3.676.468.881.369l.179-.11.168-.1c.289-.064.292.743-.1.884a1.086,1.086,0,0,0-.643.805,3.572,3.572,0,0,0,.423.911l-.047.354-.017.128c-.08.152.095.182.39.064l.127.043.239.081A2.279,2.279,0,0,0,1.884,40l.131.149.258.293a1.305,1.305,0,0,1,.485-.3,7.97,7.97,0,0,1-.232,1.133c-.082.306-.133,1.077.081,1.167a1.473,1.473,0,0,0,.829.038l.225-.021.194-.018c.266.036-.025.694-.266.865s-.579.407-.75.525l.169.131c.157.122.193.2-.014.277a2.253,2.253,0,0,1-.576.152c-.429.04-.091.161-.107.262-.031.192-.3.361.247.337a3.149,3.149,0,0,0,.994-.172.491.491,0,0,1,.344.017l.1.085a.373.373,0,0,0,.345.169,3.175,3.175,0,0,1,.721.157,4.639,4.639,0,0,1,.788.307,2.486,2.486,0,0,0,.724.347l.313-.134c.045-.02.259.073.27.128l.108.5c.543-.036,1.787-.1,2.089-.081s.683.009.764.028.839.1,1.686.184l.479.532.014.014c.092-.02,1.12.1,1.208.289s.683.1.907.078,1.082.28,1.354.269a9.036,9.036,0,0,1,1.45.058.855.855,0,0,0,.561.016l.073-.016.385-.078c-.057.186.087.307.322.269l.217-.027c.018,0,.081.1.087.159l.014.12c0,.246.394,0,.484-.107s.472-.057.591-.007,0,.175-.258.28l-.008.09c-.027.326.352.182.571.2.06,0,.133-.122.206-.186l.059-.053c.073-.053.516.172.639.063s.514.061.613.166,1.092-.2,1.287-.083a2.761,2.761,0,0,0,.692.279l.1-.048.171-.084c.138-.147.886.021,1.141.009s.644-.078.755-.065.5.027.877.031l.266-.1c.5-.188.509.376.913.276l.038-.01c.039-.016.653-.314.622-.135s.064.151.114.081.38.073.473-.01.488-.413.645-.376a1.3,1.3,0,0,1,.5.363c.066.092.35-.085.427-.171s.284.138.459.5l.245-.3c.366-.454.531-.363.885-.073a.416.416,0,0,0,.267.053c.323-.28.523-.006.762.081.184.065.365.137.555.192l.367.107A7.041,7.041,0,0,0,35.254,49c.08-.04.454-.157.539-.1s.349-.051.424-.111a.54.54,0,0,1,.37-.065l.095.053.139.077c.137.111.519.016.626-.058s.283.048.315.114a7.678,7.678,0,0,0,1.136-.051c.306,0,.829.024.952,0s.738-.159,1.367-.289l.351.147.478.2c.479-.058,1.7.154,2.1.061a12.841,12.841,0,0,1,1.67-.276,11.77,11.77,0,0,1,1.253.058l.341-.075.492-.108a1.435,1.435,0,0,0,1.3-.021A2.567,2.567,0,0,1,50.3,48.47c.218.016.66-.04.834-.01a4.767,4.767,0,0,0,1.184.164,6.554,6.554,0,0,1,.894-.162l.292.127.233.1a10.217,10.217,0,0,1,1.363-.216l.274.021c.217.017.313.246.666.145.45-.128.661.06.506.38l-.053.11c-.11.11.82.447.944.353s-.149-.349-.3-.42-.144-.141.011-.155l.042-.038c.119-.108.183-.3.321-.333s.35.135.528.134c.411,0,.728.01.849.384l.049.152c.273.125.769.324,1.1.441l.039.211.022.118c.045.128.232.03.416-.218l.28-.192c.314-.213.827-.248.986-.645.089-.222.559-.59.716.058l.01.043c.179.024.71.229.713.343a.66.66,0,0,1-.218.394,4.261,4.261,0,0,1-.826.172L62,49.611l-.032-.061a.822.822,0,0,0-.475.129c-.077.055.238.232.37.277a4.855,4.855,0,0,1,.477.2c.06.037.32.324.441.27a2.973,2.973,0,0,0,.65-.6l.49.016a7.687,7.687,0,0,0,2.068-.333c.042-.01.159.077.185.134l.02.044a1.886,1.886,0,0,1-.573.215c-.133.021-.84.215-.84.384s-.49.351-.66.367a.517.517,0,0,0-.3.1c0,.018.685.033.935.033a2.6,2.6,0,0,0,1.029-.525c.168-.154.437.071.476.172s-.161.215-.442.255l.162.253.008.014a2.033,2.033,0,0,1,.794-.041c.083.041.191-.149.239-.428h.051l.3-.013c.369.048.678-.016.687-.142l-.02-.121-.02-.12c-.058-.127-.212-.521-.073-.554s.777.31,1,.191.223.033.156.124-.645.353-.52.461a5.493,5.493,0,0,1,.46.45.344.344,0,0,0,.277.083c.05-.016.084-.707.212-.939a1.145,1.145,0,0,0,.176-.62l0-.083,0-.134c.1-.145.463-.441.536-.351s.273.36.446.6l.275.174.114.073c.076.157.5.406.43.5s-.455.524-.572.667.645-.06.795-.283a2.225,2.225,0,0,1,.845-.647l.164.1c.323.2.531.175.747-.046l.175-.179c.291-.009.549-.679.549-.939s.4-.406.524-.384a1.577,1.577,0,0,1,.6.418l-.354.243c-.186.129-.185.393-.338.563l-.068.075a.737.737,0,0,0-.571.462l-.123.219c-.03.055-.222.1-.329.088l-.221-.024a2.324,2.324,0,0,1-.652-.262l-.149-.028-.16-.03c-.2-.021-.557.253-.551.381s-.009.295-.006.363.089.094.192.058l.1,0,.447-.02c.5-.027,1.156.009,1.275-.009s.417-.4.481-.518.358-.764.549-.622.4-.184.416-.361.109-.277.2-.221l.01.028c.091.24-.2.861.659.346.018-.01.367.171.376.272l.07.753a3.929,3.929,0,0,0,.837.492L77.56,51l.117-.013a.236.236,0,0,0,.047-.3c-.043-.03-.758-.168-.658-.356s.462.313.795.3,1.4-.01,1.6-.218.408-.359.456-.334l.031.021c.211.141-.186.526.318.5.183-.009.382-.273.5-.448l.1-.142c0-.155.669-.184.894-.149s.121.507-.11.529-.635.04-.9.04l.073.232.022.07a4.135,4.135,0,0,0,.7.092c.095-.007.707-.28.852-.151a1.937,1.937,0,0,0,.473.316.232.232,0,0,0,.209-.09l.007-.06.008-.067c-.022-.073.443-.344.648-.427a.585.585,0,0,1,.649.343l.237.071.242.071a4.061,4.061,0,0,1,1.313-.1c.175.048.5.135.57.158a12.186,12.186,0,0,1,1.354-.019,5.683,5.683,0,0,0,1.213.091l.005-.468,0-.158c.2-.2.631.073.724.223s.812.055,1.072-.065a.624.624,0,0,1,.737.142l.148.1.124.085c.185.074.376-.41.391-.608s.242-.1.275-.011.412.377.226.433.125.165.69.246l.415.057.061.009c.065,0,.433-.041.818-.088l.345-.044c.5-.061,1.036.142,1.509-.159a.262.262,0,0,1,.426.184c.02.222.135.1.305.063l.219-.048a.614.614,0,0,0,.592-.343c.031-.137.476-.148.988-.026l.045.435a.8.8,0,0,0,.426.034l.184-.078a.623.623,0,0,1,.7.053c.106.111.45-.114.524-.2s.459-.057.856.074l.241.154.426.272a1.229,1.229,0,0,1,1.048-.231l.252-.027c.291-.03.673-.332.812-.269l.51.225c.166-.26.336-.359.35-.313a5.016,5.016,0,0,0,1.093.242,7.612,7.612,0,0,0,1.037-.016,2.86,2.86,0,0,1,.692-.021c.107.043.428.014.588.043a6.193,6.193,0,0,0,1.431.265,1.687,1.687,0,0,0,.7-.256l.065-.068.124-.128c.229-.225.416.117.6.12s.82,0,1.411-.011l.42.107a3.6,3.6,0,0,0,1.361.08l.1-.011c.1-.04.688.092.864.014s.8.067.983,0,1.115.088,1.43.068a7.5,7.5,0,0,0,.981-.132h.213l.265,0c.305.057.559-.057.565-.25l-.015-.128-.011-.1c-.088-.094.159-.172.275-.172s.2.289.179.388.185.279.469.4l.307-.051c.074-.011.127-.087.19-.132.016-.01,1.227-.243,1.239-.236l.5.29a14.46,14.46,0,0,1,2.283-.164,8.43,8.43,0,0,0,.941.051c.091-.011.679-.208.857-.134s.608-.007.714.041a5.732,5.732,0,0,0,.924.2l.16-.114.584-.411a17.532,17.532,0,0,0,2.65.521c.412-.04.647-.43.746-.509s.852.472,1.121.452,1.462-.122,1.831-.155a3.838,3.838,0,0,1,.717-.028c.023.019.15.4.288.313a3.27,3.27,0,0,1,.806-.255,2.245,2.245,0,0,1,.811.2l.359-.209c.186-.108.669.088,1.019.09h.224a2.5,2.5,0,0,1,.918-.071.633.633,0,0,0,.349.03c.038-.028-.01-.1-.107-.145v-.046c0-.05.136-.147.162-.138.151.047.335.195.416.168.173-.061.276-.245.493-.033.02.02.25-.114.359-.1l.253.041c.288.067.939.014,1.122.108a2.449,2.449,0,0,0,.941.1c.167-.03.689.142.828.124s.412-.074.606-.12l.231.077.439.149c.071-.276.181-.24.2-.139s.391.031.506-.017a1.248,1.248,0,0,1,.658.054l.216-.179.188-.155a.391.391,0,0,1,.562.107,1.5,1.5,0,0,0,.824.228c.2-.024.758-.377.946-.292a1.737,1.737,0,0,0,.92.011l.269.189.451.314a8.242,8.242,0,0,1,1.5-.287,2.718,2.718,0,0,1,.912-.242c.154.03,1.312.195,1.718.2a3.739,3.739,0,0,0,.855-.043c.047-.034.455-.239.542-.131s.527.023.978-.191l.265.075.855.243a18.326,18.326,0,0,1,2.493-.07.841.841,0,0,0,.569-.424c.025-.1.544.147.721.263s.711-.043.836-.125a.561.561,0,0,1,.474-.044l.1.055c.6.353.619.35,1.192.054.2-.105.537-.155.607-.287l.085-.161a.589.589,0,0,1,.515.1c.047.088.247.078.319.043s.178.24.192.34.527.185.715.189a6.713,6.713,0,0,0,.951.017c.152-.04.718.055.888-.038a2.146,2.146,0,0,1,.81-.174c.146.024.662.127.805.172a1.2,1.2,0,0,0,.711-.139l.318.144a1.261,1.261,0,0,0,.975.024l.322-.117a2.188,2.188,0,0,1,1.165.223c.113.107.646-.129.783-.229s.738.044.956.144a.594.594,0,0,0,.693-.3l.281.08.481.135c.509-.063,1.049-.144,1.129-.129a12.033,12.033,0,0,0,2.114.268,8.476,8.476,0,0,1,2.06-.174.784.784,0,0,0,.849-.09l.073.024.483.158a9.733,9.733,0,0,1,1.876-.166l.337.185.461.252a7.512,7.512,0,0,1,1.623-.258c.271-.028,1.1-.162,1.2-.044s.407.018.531.018,1.129.074,1.476.1.811.051.97.038.569.087.7.073a5.322,5.322,0,0,1,1.2-.3c.292.048,1.269,0,1.544.033a8.433,8.433,0,0,0,1.247.1c.21-.036,1,.057,1.29.024s.911-.055,1.051-.051.822.341.833.159.1-.176.135-.115.9-.091,1.24-.083a4.7,4.7,0,0,0,.989-.028,5.975,5.975,0,0,1,.807.051c.153-.018.673-.127,1.158-.24l.359.078.541.12a11.358,11.358,0,0,1,1.718-.111l.272-.112.38-.157a1.991,1.991,0,0,0,1.143.084l.324-.036.343-.038a5.421,5.421,0,0,1,1.24.125l.328-.077.322-.075a2.6,2.6,0,0,0,1.268-.216l.357.2.08.046c.225-.085,1.226.151,1.474-.011s.705-.263.754-.2a4.234,4.234,0,0,0,.914-.105c.262-.026.842-.092,1.288-.151l.436.088.254.053c.323-.09,1.024-.334,1.137-.253s1.252-.172,1.682-.171a12.947,12.947,0,0,0,1.4-.124,7.116,7.116,0,0,0,1.011.057,2.96,2.96,0,0,1,1.059-.074l.323-.215.034-.023a1.869,1.869,0,0,0,.934-.26l.081.117c.232.337.557-.289.72.073.006.013.551-.142.592-.1l.311.34a3.528,3.528,0,0,1,1.051-.571h.34l.665,0a15.517,15.517,0,0,0,1.948-.161l.332-.038.324-.036c.346-.077,2.377-.188,3-.336a6.41,6.41,0,0,1,1.7-.2l.265-.1.221-.081a4.2,4.2,0,0,1,.819-.171,3.517,3.517,0,0,0,.666-.25,1.023,1.023,0,0,1,.345-.114c.033,0,.234.047.446.094l-.109-.148-.381-.519a4.351,4.351,0,0,1-.81-1.042c.017-.013.382-.2.812-.427l-.508-.531-.206-.215c.1-.209.23-.528.3-.709l-.207-.148-.172-.124c-.028-.185-.078-.514-.111-.731l.018-.151.042-.367c-.323-.017.033-.225.15-.388a6.715,6.715,0,0,1,.746-.784l-.455-.185c-.588-.238-.686-.441-.272-.834l.152-.144a1.312,1.312,0,0,0-.417-.8c-.137-.1-.2-.222-.169-.24s.1-.168.182-.184.067-.268.134-.33a6.564,6.564,0,0,0,.75-.491c.118-.147.144-.32.058-.387l-.069,0a.65.65,0,0,1-.615-.41l-.118-.252a.845.845,0,0,1,.618-.415c.122.009.421-.443.493-.452a.642.642,0,0,1,.369.182c.048.08.659-.073.881-.157s.018-.216-.109-.2-.8.181-.774.028-.064-.249-.111-.245-.461.188-.591.114-.425-.286-.5-.34.372-.131.532-.1a2.5,2.5,0,0,0,.75,0,1.28,1.28,0,0,1,.675.121c.111.085.115-.028.008-.252l-.125-.175-.065-.09c.009-.131.668-.326.807-.465s-.057-.514-.155-.588-.107-.314-.021-.539l.112-.192.212-.364c-.542-.179-.559-.3-.036-.259l.037.081.095.2a.432.432,0,0,0,.472-.215L244.9,32.3c-.028-.021.073-.131.115-.2.155-.249.037-.341-.326-.346h-.137a.2.2,0,0,1-.085-.295,4.9,4.9,0,0,0,.385-.44l-.115-.174c-.281-.421-.658-.645-.911-.592l-.074.016c-.085.08-.351-.189-.416-.3s.333-.445.491-.534-.371-.209-.55-.223-.1-.313-.034-.4a.513.513,0,0,1,.318-.175l.025.017.194.122a.779.779,0,0,0,.631.071c.069-.051-.12-.37-.265-.653a.73.73,0,0,0-.732-.408l-.1-.131-.232-.313c.36-.194.392-.452.294-.491a1.521,1.521,0,0,0-.756.211l-.264-.3-.018-.02c-.04-.011-.092.091-.114.231l-.082.1-.126.151a1.019,1.019,0,0,1-.774.067c-.112-.08.084-.4.436-.716l.055-.276c.049-.239-.248-.512-.373-.774l-.019-.04c.078-.085.6.286.819.407a.956.956,0,0,0,.726-.014,1.465,1.465,0,0,1,.763.068c.145.078.209-.044.141-.273l-.043-.2-.053-.245a4.048,4.048,0,0,1-.98-.115l-.009-.08-.046-.4a.37.37,0,0,1-.588-.051l-.071.007c-.435.044-.31-.242-.46-.354l-.072-.054c-.16,0-.836-.077-.864-.225a1.346,1.346,0,0,1,.182-.62c.069-.105.629.149.849.186a12.658,12.658,0,0,1,1.55.081,6.1,6.1,0,0,0,1.794.323,4.884,4.884,0,0,1,1.393-.127,4.436,4.436,0,0,0,.693.189l.024-.033c.191-.258.4.033.573-.023l.2-.065c.16-.084-.041-.391-.162-.482s-.3-.6-.1-.683-.031-1.053-.159-1.352-.179-.851.02-.864a7.747,7.747,0,0,0,.978-.168l.077-.258.054-.175c0-.265.287-.351.645-.192M3.964,37.312c-.155.165-.317.443-.5.454-.51.031-.118-.367-.327-.491-.253-.149-.13-.228.03-.353.2-.159.26.011.384.058l.139.053c.165.033.307.138.317.233Zm3.44-4.3c-.2-.041-.749-.462-.6-.69s.32-.273.38-.1l-.017.121c-.034.258.059.407.447.428l.049,0c.062.172-.054.279-.259.238m59.4,15.552a4.191,4.191,0,0,0-1-.391c-.208,0,.077-.1.632-.221l.459.32.058.041a.389.389,0,0,1,.508.31c0,.147-.5.023-.659-.06m3.446-.282a4.612,4.612,0,0,0-1.109.122c-.149.077-.758.376-.889.232s.039-.343.375-.44l.273-.111.289-.117a3.869,3.869,0,0,0,.958.077c.166-.043.861-.171.973-.026s-.61.263-.869.262m7.2-.195-.128.114a.387.387,0,0,1-.206.078l-.374-.263a2.255,2.255,0,0,1-1.275-.011c-.139-.1-.2-.245-.186-.27a1.143,1.143,0,0,1,.472.08c.242.07,1.324-.149,1.562-.114s.3.209.134.387m5.3,1.947c-.212.016-.128-.571-.141-.788s.013-.189.062.06.29.713.079.729m9.47-.184-.049.083a1.4,1.4,0,0,1-.869-.228l-.325-.139-.263-.114c-.194-.344-.256-.61-.136-.592a1.61,1.61,0,0,1,.6.484l.22.091.194.081c.353-.036.662.07.688.233ZM126.2,48.839c-.238.053-.715.265-.841.2s-.153-.239-.056-.4l-.095-.162-.022-.038a1.511,1.511,0,0,1,.72-.139c.338-.007.532.482.294.535m44.061-.016c-.167.063-.774-.3-.855-.508s.309-.306.381-.223.427.346.552.443.089.228-.078.289m69.732-25.282c-.217-.065-.853-.411-1.212-.575l.289-.3.4-.417c.221.326.664.95.79,1.123s.006.25-.266.171m5.111-.081-.009.112-.021.248c-.236-.018-1.042-.29-1.1-.535s.032-.243.211,0l.249.083.166.055c.475-.212.7-.2.508.034m5.661-.445-.188-.209-.256-.282c-.37-.017-.437.107-.151.276l-.6.01-.248,0c-.325-.078-.463.083-.307.357l.165.2a.607.607,0,0,0,.391.212l.7-.11c.582.316.959.5.838.4s.152-.494.267-.521-.159-.179-.611-.336" transform="translate(0.092 -0.474)" fill="#fff"/>
  </g>
</svg>
