<svg xmlns="http://www.w3.org/2000/svg" width="15.103" height="11.745" viewBox="0 0 15.103 11.745">
  <path id="Icon_awesome-home" data-name="Icon awesome-home" d="M7.35,5.3,2.516,9.282v4.3A.419.419,0,0,0,2.936,14l2.938-.008a.419.419,0,0,0,.417-.419V11.062a.419.419,0,0,1,.419-.419H8.389a.419.419,0,0,1,.419.419v2.508a.419.419,0,0,0,.419.421L12.165,14a.419.419,0,0,0,.419-.419v-4.3L7.751,5.3A.32.32,0,0,0,7.35,5.3Zm7.636,2.706L12.794,6.2V2.568a.315.315,0,0,0-.315-.315H11.011a.315.315,0,0,0-.315.315v1.9L8.349,2.541a1.258,1.258,0,0,0-1.6,0L.113,8.006a.315.315,0,0,0-.042.443l.669.813a.315.315,0,0,0,.443.043L7.35,4.225a.32.32,0,0,1,.4,0l6.167,5.08a.315.315,0,0,0,.443-.042l.669-.813a.315.315,0,0,0-.045-.444Z" transform="translate(0.001 -2.254)"/>
</svg>
