<svg 
 xmlns="http://www.w3.org/2000/svg"
 xmlns:xlink="http://www.w3.org/1999/xlink"
 width="25px" height="25px">
<path fill-rule="evenodd"  fill="rgb(32, 99, 237)"
 d="M20.955,21.014 C18.752,23.274 15.619,24.578 12.373,24.578 C9.050,24.578 5.983,23.307 3.735,21.000 C1.476,18.787 0.173,15.658 0.173,12.428 C0.173,9.110 1.440,6.048 3.743,3.805 C6.000,1.491 9.064,0.217 12.373,0.217 C15.610,0.217 18.742,1.527 20.968,3.814 C23.261,6.042 24.532,9.107 24.532,12.428 C24.532,15.657 23.228,18.786 20.955,21.014 ZM19.302,5.449 C17.487,3.634 14.961,2.595 12.373,2.595 C9.758,2.595 7.280,3.611 5.396,5.454 C3.551,7.299 2.532,9.777 2.532,12.428 C2.532,15.005 3.577,17.528 5.401,19.352 C7.285,21.191 9.763,22.208 12.373,22.208 C14.956,22.208 17.482,21.167 19.303,19.351 C21.119,17.534 22.162,15.011 22.162,12.428 C22.162,9.771 21.147,7.293 19.302,5.449 ZM15.883,17.541 C15.886,17.830 15.777,18.107 15.576,18.331 C15.400,18.553 15.143,18.696 14.856,18.728 C14.816,18.731 14.777,18.734 14.737,18.734 C14.429,18.734 14.115,18.607 13.894,18.391 L9.151,13.154 C8.778,12.819 8.726,12.183 9.081,11.665 L9.155,11.573 L13.853,6.468 C14.096,6.190 14.467,6.039 14.823,6.068 C15.135,6.095 15.410,6.252 15.593,6.504 C15.783,6.723 15.885,6.989 15.883,7.262 C15.881,7.564 15.749,7.856 15.512,8.081 L11.586,12.369 L15.555,16.755 C15.749,16.940 15.880,17.234 15.883,17.541 Z"/>
</svg>