<svg xmlns="http://www.w3.org/2000/svg" xmlns:xlink="http://www.w3.org/1999/xlink" width="26.608" height="22.129" viewBox="0 0 26.608 22.129">
  <defs>
    <clipPath id="clip-path">
      <rect id="Rectangle_133" data-name="Rectangle 133" width="26.608" height="22.129" fill="#fff"/>
    </clipPath>
  </defs>
  <g id="Group_256" data-name="Group 256" transform="translate(0 0)">
    <g id="Group_255" data-name="Group 255" transform="translate(0 -0.001)" clip-path="url(#clip-path)">
      <path id="Path_147" data-name="Path 147" d="M8.339,27.685a3.181,3.181,0,1,1,3.18-3.181,3.185,3.185,0,0,1-3.18,3.181m0-5.212A2.03,2.03,0,1,0,10.368,24.5a2.032,2.032,0,0,0-2.029-2.031" transform="translate(-1.344 -5.555)" fill="#fff"/>
      <path id="Path_148" data-name="Path 148" d="M25.816,27.685A3.181,3.181,0,1,1,29,24.5a3.186,3.186,0,0,1-3.18,3.181m0-5.212A2.03,2.03,0,1,0,27.845,24.5a2.033,2.033,0,0,0-2.029-2.031" transform="translate(-5.897 -5.555)" fill="#fff"/>
      <path id="Path_149" data-name="Path 149" d="M20.622,26H13.28a.576.576,0,0,1,0-1.151h7.342a.576.576,0,0,1,0,1.151" transform="translate(-3.31 -6.473)" fill="#fff"/>
      <path id="Path_150" data-name="Path 150" d="M7.409,16.841a.575.575,0,0,1-.549-.746l.7-2.255L3.626,2.045.419,1.13a.573.573,0,0,1-.4-.711.568.568,0,0,1,.71-.4l3.5,1a.577.577,0,0,1,.389.371L8.71,13.651a.575.575,0,0,1,0,.353l-.755,2.433a.575.575,0,0,1-.549.4" transform="translate(0 0)" fill="#fff"/>
      <path id="Path_151" data-name="Path 151" d="M24.511,15.888H9.837a.576.576,0,0,1-.549-.4L6.453,6.424A.575.575,0,0,1,7,5.676h20.7a.575.575,0,0,1,.553.734l-2.344,8.2a1.374,1.374,0,0,1-1.4,1.276M10.26,14.736h14.25a.231.231,0,0,0,.257-.216.573.573,0,0,1,.023-.158l2.153-7.535H7.786Z" transform="translate(-1.675 -1.479)" fill="#fff"/>
    </g>
  </g>
</svg>
