<svg xmlns="http://www.w3.org/2000/svg" xmlns:xlink="http://www.w3.org/1999/xlink" width="82.117" height="71.5" viewBox="0 0 82.117 71.5">
  <defs>
    <clipPath id="clip-path">
      <rect id="Rectangle_124" data-name="Rectangle 124" width="82.117" height="71.5" fill="#2163ef"/>
    </clipPath>
  </defs>
  <g id="Group_213" data-name="Group 213" transform="translate(0 0)">
    <g id="Group_212" data-name="Group 212" transform="translate(0 0)" clip-path="url(#clip-path)">
      <path id="Path_143" data-name="Path 143" d="M66.82,48.52c5.922-7.018,8.137-15.108,5.94-24.1-1.96-8.051-6.981-13.984-13.9-18.3A40.362,40.362,0,0,0,31.721.368C22.346,1.55,14.2,5.3,7.875,12.428,1.606,19.484-.8,27.725,1.447,37c.9,3.7,2.195,7.3,2.419,11.15a24.338,24.338,0,0,1-2.7,13.58C.808,62.373.4,62.994,0,63.65c.162.056.235.1.3.093A40.86,40.86,0,0,0,17.57,57.7a1.351,1.351,0,0,1,1.538-.207,41.6,41.6,0,0,0,25.5,3.351C53.41,59.266,61.012,55.42,66.82,48.52ZM81.7,70.313a13.068,13.068,0,0,1-1.427-2.028c-2.384-4.627-2.129-9.413-.553-14.161a19.28,19.28,0,0,0-.76-14.716c-.619-1.323-1.465-2.543-2.336-4.053-.169.639-.255.909-.311,1.192a29.009,29.009,0,0,1-4.644,11.074c-6.627,9.61-16.022,14.752-27.339,16.666-2.008.338-4.053.452-6.129.677a1,1,0,0,0,.2.263c.518.338,1.015.684,1.558.975a29.991,29.991,0,0,0,26.662,1.323,1.631,1.631,0,0,1,1.258,0,29.045,29.045,0,0,0,9.443,3.586,18.642,18.642,0,0,0,3.94.384C82.287,71.477,82.342,71.121,81.7,70.313Z" transform="translate(0 0.002)" fill="#2163ef"/>
    </g>
  </g>
</svg>
