<svg id="Component_5_1" data-name="Component 5 – 1" xmlns="http://www.w3.org/2000/svg" xmlns:xlink="http://www.w3.org/1999/xlink" width="131" height="131" viewBox="0 0 131 131">
  <defs>
    <clipPath id="clip-path">
      <rect id="Rectangle_55" data-name="Rectangle 55" width="77.323" height="62.158" fill="#fff"/>
    </clipPath>
  </defs>
  <g id="Ellipse_10" data-name="Ellipse 10" fill="#3d3d3d" stroke="#f6f6f6" stroke-width="5">
    <circle cx="65.5" cy="65.5" r="65.5" stroke="none"/>
    <circle cx="65.5" cy="65.5" r="63" fill="none"/>
  </g>
  <g id="Group_57" data-name="Group 57" transform="translate(27 34)">
    <g id="Group_56" data-name="Group 56" transform="translate(0 0)" clip-path="url(#clip-path)">
      <path id="Path_27" data-name="Path 27" d="M45.092,48.037a.642.642,0,0,1-.288-.068C34.62,42.878,20.84,44.988,20.7,45.01a.643.643,0,0,1-.743-.634V.857a.642.642,0,0,1,.576-.639c19.492-2.035,25.1,10.8,25.15,10.931a.634.634,0,0,1,.051.247v36a.646.646,0,0,1-.643.643M27.8,43.25c4.747,0,11.064.6,16.649,3.129V11.533C43.861,10.249,38.536-.126,21.243,1.44v42.2A53.955,53.955,0,0,1,27.8,43.25" transform="translate(-6.181 0)" fill="#fff"/>
      <path id="Path_28" data-name="Path 28" d="M37.515,52.781a.645.645,0,0,1-.243-.048c-12.236-5.008-24.63-.05-24.755,0a.643.643,0,0,1-.886-.594V4.381a.642.642,0,0,1,.2-.465.658.658,0,0,1,.475-.176c1.943.1,4.175,2.308,4.423,2.56a.642.642,0,0,1-.914.9,9.665,9.665,0,0,0-2.9-2.028V51.217c3.124-1.081,13.9-4.152,24.842.328a.642.642,0,0,1-.244,1.236" transform="translate(-3.602 -1.158)" fill="#fff"/>
      <path id="Path_29" data-name="Path 29" d="M4.509,11.8H2.343A2.343,2.343,0,0,0,0,14.146V58.854A2.343,2.343,0,0,0,2.343,61.2H33.685s1.856,4.616,5.3,4.616,5.3-4.3,5.3-4.3H74.98a2.342,2.342,0,0,0,2.343-2.342V14.146A2.342,2.342,0,0,0,74.98,11.8H73.14V54.688a2.182,2.182,0,0,1-2.182,2.182H46.473a2.933,2.933,0,0,0-2.7,1.851,5.021,5.021,0,0,1-4.789,3.407c-2.553,0-3.977-2.012-4.692-3.547a2.947,2.947,0,0,0-2.672-1.711H6.5a2.182,2.182,0,0,1-2.181-2.192Z" transform="translate(0 -3.655)" fill="#fff"/>
      <path id="Path_30" data-name="Path 30" d="M44.012,20.1a.639.639,0,0,1-.462-.2c-5.081-5.266-13.75-4.695-13.837-4.69a.642.642,0,0,1-.1-1.281c.38-.029,9.35-.627,14.856,5.079a.642.642,0,0,1-.462,1.088" transform="translate(-8.988 -4.307)" fill="#fff"/>
      <path id="Path_31" data-name="Path 31" d="M44.012,26.347a.638.638,0,0,1-.465-.2c-5.089-5.341-13.744-4.693-13.829-4.687a.634.634,0,0,1-.692-.587.642.642,0,0,1,.587-.693c.381-.03,9.357-.7,14.864,5.081a.642.642,0,0,1-.465,1.085" transform="translate(-8.988 -6.238)" fill="#fff"/>
      <path id="Path_32" data-name="Path 32" d="M44.012,32.942a.641.641,0,0,1-.436-.171c-5.727-5.29-13.78-4.725-13.86-4.716a.642.642,0,0,1-.1-1.281c.353-.026,8.685-.627,14.834,5.053a.642.642,0,0,1-.436,1.113" transform="translate(-8.988 -8.283)" fill="#fff"/>
      <path id="Path_33" data-name="Path 33" d="M44.012,39.129a.638.638,0,0,1-.436-.172A17.011,17.011,0,0,0,29.79,34.232a.642.642,0,0,1-.249-1.259c.318-.064,7.883-1.475,14.908,5.043a.642.642,0,0,1-.436,1.113" transform="translate(-8.988 -10.158)" fill="#fff"/>
      <path id="Path_34" data-name="Path 34" d="M44.012,45.738a.641.641,0,0,1-.448-.182,17.657,17.657,0,0,0-13.8-4.709.642.642,0,0,1-.193-1.269A18.634,18.634,0,0,1,44.46,44.636a.642.642,0,0,1-.448,1.1" transform="translate(-8.988 -12.22)" fill="#fff"/>
      <path id="Path_35" data-name="Path 35" d="M44.012,51.97a.64.64,0,0,1-.468-.2c-5.583-5.951-13.693-4.7-13.775-4.689a.642.642,0,1,1-.208-1.267c.359-.058,8.872-1.367,14.918,5.079a.642.642,0,0,1-.468,1.081" transform="translate(-8.988 -14.141)" fill="#fff"/>
      <path id="Path_36" data-name="Path 36" d="M56.08,48.036a.642.642,0,0,1-.642-.642v-36a.637.637,0,0,1,.05-.247c.054-.13,5.657-12.963,25.15-10.932a.644.644,0,0,1,.576.639V44.376a.642.642,0,0,1-.743.634c-.139-.023-13.92-2.132-24.1,2.959a.65.65,0,0,1-.287.068m.642-36.5V46.378c9.136-4.135,20.235-3.114,23.208-2.74V1.44c-17.3-1.569-22.618,8.808-23.208,10.092" transform="translate(-17.168 0)" fill="#fff"/>
      <path id="Path_37" data-name="Path 37" d="M63.321,52.781a.642.642,0,0,1-.244-1.236c10.944-4.479,21.717-1.408,24.843-.328V5.173A9.661,9.661,0,0,0,85.02,7.2a.642.642,0,0,1-.914-.9c.248-.252,2.48-2.46,4.424-2.56A.633.633,0,0,1,89,3.915a.644.644,0,0,1,.2.465V52.139a.642.642,0,0,1-.885.594c-.124-.051-12.537-5-24.755,0a.645.645,0,0,1-.243.048" transform="translate(-19.41 -1.157)" fill="#fff"/>
      <path id="Path_38" data-name="Path 38" d="M61.712,20.1a.642.642,0,0,1-.462-1.088c5.505-5.705,14.477-5.108,14.856-5.079a.642.642,0,0,1-.1,1.281c-.089-.007-8.756-.576-13.837,4.69a.639.639,0,0,1-.462.2" transform="translate(-18.912 -4.307)" fill="#fff"/>
      <path id="Path_39" data-name="Path 39" d="M61.712,26.346a.642.642,0,0,1-.465-1.085c5.507-5.781,14.483-5.113,14.864-5.081a.642.642,0,0,1-.1,1.28c-.088-.008-8.751-.644-13.83,4.687a.638.638,0,0,1-.465.2" transform="translate(-18.912 -6.237)" fill="#fff"/>
      <path id="Path_40" data-name="Path 40" d="M61.712,32.942a.642.642,0,0,1-.436-1.113c6.149-5.68,14.481-5.08,14.834-5.053a.642.642,0,0,1,.588.691.636.636,0,0,1-.69.59c-.081-.008-8.133-.574-13.86,4.716a.641.641,0,0,1-.436.171" transform="translate(-18.912 -8.282)" fill="#fff"/>
      <path id="Path_41" data-name="Path 41" d="M61.712,39.129a.642.642,0,0,1-.436-1.113C68.3,31.5,75.866,32.91,76.184,32.973a.642.642,0,0,1-.249,1.259,17.01,17.01,0,0,0-13.786,4.725.638.638,0,0,1-.436.172" transform="translate(-18.912 -10.158)" fill="#fff"/>
      <path id="Path_42" data-name="Path 42" d="M61.712,45.738a.642.642,0,0,1-.448-1.1,18.634,18.634,0,0,1,14.891-5.059.642.642,0,0,1-.193,1.269,17.659,17.659,0,0,0-13.8,4.709.641.641,0,0,1-.448.182" transform="translate(-18.912 -12.22)" fill="#fff"/>
      <path id="Path_43" data-name="Path 43" d="M61.712,51.97a.642.642,0,0,1-.468-1.081C67.29,44.443,75.8,45.751,76.162,45.81a.642.642,0,0,1-.207,1.267c-.08-.014-8.206-1.247-13.775,4.689a.64.64,0,0,1-.468.2" transform="translate(-18.912 -14.141)" fill="#fff"/>
    </g>
  </g>
</svg>
