<svg id="Component_6_1" data-name="Component 6 – 1" xmlns="http://www.w3.org/2000/svg" xmlns:xlink="http://www.w3.org/1999/xlink" width="131" height="131" viewBox="0 0 131 131">
  <defs>
    <clipPath id="clip-path">
      <rect id="Rectangle_53" data-name="Rectangle 53" width="72.146" height="62.642" fill="#fff"/>
    </clipPath>
  </defs>
  <g id="Ellipse_11" data-name="Ellipse 11" fill="#3d3d3d" stroke="#f6f6f6" stroke-width="5">
    <circle cx="65.5" cy="65.5" r="65.5" stroke="none"/>
    <circle cx="65.5" cy="65.5" r="63" fill="none"/>
  </g>
  <g id="Group_53" data-name="Group 53" transform="translate(29 34)">
    <g id="Group_52" data-name="Group 52" transform="translate(0 0)" clip-path="url(#clip-path)">
      <path id="Path_24" data-name="Path 24" d="M64.618,44.009A42.7,42.7,0,0,1,56.773,42.2l-.01.012a20.43,20.43,0,0,1-3.316-1.505,26.537,26.537,0,0,0,4.324-.769l-.362.044c-5.35-7.28-2.4-9.767-2.224-12.572,3.2-6.779,3.391-19.5-2.57-22.265a10.537,10.537,0,0,0-.682-.835C49.474-.419,41.772-1.316,35.63,2.2a7.83,7.83,0,0,1,5.411,7.781,52.984,52.984,0,0,1-.825,7.429,2.6,2.6,0,0,1,.954,1.006,4.542,4.542,0,0,1,.469,2.181c0,2.415-1.394,6.974-3.964,7.512L36.8,30.877a19.845,19.845,0,0,1-4.282,6.964,8.393,8.393,0,0,0,.113,1.32c.187.087.386.171.586.256l2.7,1.211v.054c8.729,4.041,11.938,6.4,13.6,7.836a9.951,9.951,0,0,1,2.417,4.28l.33.938-.755.646a40.31,40.31,0,0,1-14.285,7.89,38.569,38.569,0,0,0,4.314.37h.272L41.8,62.63c.3.008.61.012.914.012s.582-.006.871-.012l-.008.012H43.9a38.34,38.34,0,0,0,15.267-3.634l.006,0c.266-.127.531-.254.795-.384.111-.054.219-.111.33-.167.151-.076.3-.153.451-.231.205-.109.41-.219.614-.33l.145-.08a38.711,38.711,0,0,0,10.641-8.649,9.522,9.522,0,0,0-7.526-5.155M48.563,49.617c-1.36-1.175-4.4-3.572-14.1-8v-.044l-1.813-.815c-.318-.135-.636-.272-.908-.406l-.34-.052a9.431,9.431,0,0,1-.33-3.012,19.08,19.08,0,0,0,4.342-6.84l1.223-3.89c2.5,1.537,5.4-8.638,2-8,.006-.211.006-.421,0-.632a52.451,52.451,0,0,0,.95-7.96C39.721,3.308,32.149,2.9,32.149,2.9,29.2-1.757,20.722.593,20.722.593a10.96,10.96,0,0,0-9.25,9.135A23.753,23.753,0,0,0,11.512,18c0,.181,0,.362.006.543-3.447-.634-.5,9.542,1.95,8l1.36,3.934a22.281,22.281,0,0,0,4.63,7.172,9.271,9.271,0,0,1-.342,2.632l-.254.056-.181.044-.408.181,0,0c-.527.241-1.038.469-1.543.72l-.091.044a11.112,11.112,0,0,0-1.27.588l-.952.408a2.171,2.171,0,0,1-.455.225c-.135.091-.316.137-.453.227a4.357,4.357,0,0,1-.455.225c-.135.046-.272.135-.406.181-.137.091-.272.135-.408.225-.137.046-.272.137-.408.181a1.638,1.638,0,0,1-.406.181c-.137.091-.227.135-.364.225a3.023,3.023,0,0,0-.362.181,2.786,2.786,0,0,0-.364.181,2.521,2.521,0,0,0-.362.181c-.135.046-.225.137-.362.181-.091.044-.227.135-.318.181s-.225.135-.316.181a.735.735,0,0,0-.318.179c-.091.046-.227.091-.318.137s-.181.137-.272.181a1.97,1.97,0,0,0-.318.137l-.272.179c-.091.046-.181.091-.274.137s-.181.135-.272.181-.135.091-.225.135l-.272.137c-.091.044-.137.091-.227.135s-.137.091-.227.135-.135.091-.225.137l-.227.135-.181.135-.227.137c-.044.046-.135.091-.181.137l-.181.135a.231.231,0,0,0-.181.091l-.181.135-.183.091-.135.137-.181.091-.137.091-.137.135-.135.091-.137.091-.135.091-.137.091-.091.091-.137.091-.091.091-.091.091-.137.089-.089.046-.091.091-.091.046-.046.089-.091.046-.091.091-.046.044A8.552,8.552,0,0,0,0,53.281a38.815,38.815,0,0,0,50.559,0,9.073,9.073,0,0,0-2-3.664" transform="translate(0 0)" fill="#fff" fill-rule="evenodd"/>
    </g>
  </g>
</svg>
