<svg id="Component_7_1" data-name="Component 7 – 1" xmlns="http://www.w3.org/2000/svg" xmlns:xlink="http://www.w3.org/1999/xlink" width="131" height="131" viewBox="0 0 131 131">
  <defs>
    <clipPath id="clip-path">
      <rect id="Rectangle_54" data-name="Rectangle 54" width="64.975" height="52.962" fill="#fff"/>
    </clipPath>
  </defs>
  <g id="Ellipse_12" data-name="Ellipse 12" fill="#3d3d3d" stroke="#f6f6f6" stroke-width="5">
    <circle cx="65.5" cy="65.5" r="65.5" stroke="none"/>
    <circle cx="65.5" cy="65.5" r="63" fill="none"/>
  </g>
  <g id="Group_55" data-name="Group 55" transform="translate(33 39)">
    <g id="Group_54" data-name="Group 54" clip-path="url(#clip-path)">
      <path id="Path_25" data-name="Path 25" d="M43.5,15.581H32.409A1.624,1.624,0,0,0,30.787,17.2V41.291a1.624,1.624,0,0,0,1.622,1.622H43.5a1.624,1.624,0,0,0,1.622-1.622V17.2A1.624,1.624,0,0,0,43.5,15.581" transform="translate(19.857 10.05)" fill="#fff"/>
      <path id="Path_26" data-name="Path 26" d="M61.763,0H1.627A1.627,1.627,0,0,0,0,1.627V41.658a1.624,1.624,0,0,0,.074.484,1.594,1.594,0,0,0,.087.222c.023.046.048.092.076.137s.036.058.054.086.046.063.071.094l.016.021c.031.036.063.071.1.1l0,0a1.621,1.621,0,0,0,1.15.477H25.114l-.2,5.132a1.153,1.153,0,0,1-.331.7l-1.666,1.41-.137.137a1.562,1.562,0,0,0-.148.148l-.043.041-.01.012-.007.008a.313.313,0,0,0-.066.112.182.182,0,0,0-.02.046.433.433,0,0,0-.025.262l0,.018a.648.648,0,0,0,.118.326.529.529,0,0,0,.148.16l0,0a.892.892,0,0,0,.133.077h0a2.808,2.808,0,0,0,1.017.2l.059,0c2.421.243,7.751.194,7.751.194s5.33.049,7.751-.194l.059,0a3.02,3.02,0,0,0,.967-.176l0,0,.041-.016,0,0v0a.828.828,0,0,0,.138-.081l0,0a.493.493,0,0,0,.138-.145.646.646,0,0,0,.125-.3c0-.018,0-.036-.007-.054a.428.428,0,0,0-.1-.4l-.026-.031L38.8,49.118a1.146,1.146,0,0,1-.332-.7l-.2-5.132H48.654v-4.5H3.67V4.182H59.721V24.116h2.894a1.776,1.776,0,0,1,.775.179V1.627A1.627,1.627,0,0,0,61.763,0" fill="#fff"/>
    </g>
  </g>
</svg>
