<svg xmlns="http://www.w3.org/2000/svg" xmlns:xlink="http://www.w3.org/1999/xlink" width="8.496" height="15.296" viewBox="0 0 8.496 15.296">
  <defs>
    <clipPath id="clip-path">
      <rect id="Rectangle_166" data-name="Rectangle 166" width="8.496" height="15.296" transform="translate(0 0)" fill="none"/>
    </clipPath>
  </defs>
  <g id="Group_319" data-name="Group 319" transform="translate(0 0)">
    <g id="Group_317" data-name="Group 317" clip-path="url(#clip-path)">
      <path id="Path_171" data-name="Path 171" d="M8.048,2.435,3.312,7.612l4.788,5.3a1.354,1.354,0,0,1,.4.948,1.408,1.408,0,0,1-.37.954,1.285,1.285,0,0,1-.869.479c-.048,0-.1.007-.144.007A1.479,1.479,0,0,1,6.1,14.882L.374,8.559a1.377,1.377,0,0,1-.084-1.8L.379,6.65,6.047.487A1.427,1.427,0,0,1,7.217,0a1.272,1.272,0,0,1,.929.527,1.381,1.381,0,0,1,.35.915,1.382,1.382,0,0,1-.448.989" fill="#2163EF"/>
    </g>
  </g>
</svg>
