<svg id="Group_469" data-name="Group 469" xmlns="http://www.w3.org/2000/svg" xmlns:xlink="http://www.w3.org/1999/xlink" width="36.09" height="36.123" viewBox="0 0 36.09 36.123">
  <defs>
    <clipPath id="clip-path">
      <rect id="Rectangle_216" data-name="Rectangle 216" width="36.09" height="36.123" fill="#c7c7c7"/>
    </clipPath>
  </defs>
  <g id="Group_468" data-name="Group 468" transform="translate(0 0)" clip-path="url(#clip-path)">
    <path id="Path_232" data-name="Path 232" d="M13.928,10.243a.474.474,0,0,1,0-.741.447.447,0,0,1,.742,0l7.486,8.139a.539.539,0,0,1,0,.739l-7.486,8.274a.493.493,0,0,1-.742,0,.511.511,0,0,1,0-.775l7.1-7.868Zm16.1-4.168h0A17.1,17.1,0,0,0,17.99,1.146a16.921,16.921,0,0,0,0,33.842,17.131,17.131,0,0,0,12.034-4.93,16.992,16.992,0,0,0,0-23.983M17.99,0h0A17.768,17.768,0,0,1,30.8,5.324a18.013,18.013,0,0,1,0,25.507A17.757,17.757,0,0,1,17.99,36.123a17.7,17.7,0,0,1-12.7-5.292A17.785,17.785,0,0,1,0,18.109,17.731,17.731,0,0,1,5.29,5.324,17.709,17.709,0,0,1,17.99,0" transform="translate(0 0)" fill="#c7c7c7" fill-rule="evenodd"/>
  </g>
</svg>
