<svg xmlns="http://www.w3.org/2000/svg" xmlns:xlink="http://www.w3.org/1999/xlink" width="407" height="82" viewBox="0 0 407 82">
  <defs>
    <clipPath id="clip-path">
      <rect id="Rectangle_3" data-name="Rectangle 3" width="407" height="82" transform="translate(0 0)" fill="#3d3d3d"/>
    </clipPath>
  </defs>
  <g id="Group_3" data-name="Group 3" transform="translate(0 0)" clip-path="url(#clip-path)">
    <path id="Path_12" data-name="Path 12" d="M403.315,31.511l.4-.02.5-.023c.562-.235.58-.551.039-.706l-.462-.171c-.143-.052-.289-.225-.277-.332a.474.474,0,0,1,.358-.264,1.4,1.4,0,0,0,1.254-.439.322.322,0,0,0-.022-.4.837.837,0,0,0-.556-.08l-.168.032c-.166.139-.336-.166-.378-.678l-.659-.3c-.3-.134-.451-.471-.619-.733-.242-.383.091-.754.719-.681l.318.036c.077-.1-.637-1.275-1.236-1.291s-1.873.093-2.125.046a5.6,5.6,0,0,0-.938-.089l-.242.027-.429.05c-.452.064-.824-.531-.824-.722s1.039-.405,1.407-.423.039-.13-.728-.246l-.686-.048c-.812-.055-1.452-1.009-1.106-1.569l.319-.519c-.1-.558-.6-1.744-.427-1.972s-.092-.546-.585-.708l-.235-.212c-.41-.364-.664.735-1.062.018l-.138-.246a7.187,7.187,0,0,0-1.027-.51,5.7,5.7,0,0,1,1.343-.458c.4-.1.311-2.227-.087-3.012s.778-.918,1.264-.751.861,0,.832-.376l-.173-.184-.269-.287a1.6,1.6,0,0,1-.681-.842c.018-.1-.271-.153-.642-.116l-.336.046c-.057.007-.1.093-.155.1-.1.009-.266,0-.289-.034-.054-.087-.1-.255-.04-.287l.259-.137c.311-.123.627-.319.614-.392s-.156-.128-.319-.125l-.148-.009-.14-.009c-.143-.023-.4-.608-.578-1.3l-.123-.633-.059-.3a2.338,2.338,0,0,1,.377-1.2l-.582-.2-.012,0c.138-.23-.1-.526-.235-.567s-.782-.25-1.441-.462l-.087-.278c-.193-.619-1.217-.66-1.323-.977l-.217-.64a14.173,14.173,0,0,0-3.07-.631,1.1,1.1,0,0,1-1.116-.446c-.012-.139-.52-.114-.671-.075s-1.579-.5-2.15-.505a12.956,12.956,0,0,0-1.486,0c-.178.048-1.227.414-1.183.159s-.373-.2-.577-.146-1.069-.155-1.353-.116a11.978,11.978,0,0,1-2.273-.307c-.471-.13-1.452-.373-2.179-.54l-.329-.56c-.1-.175-.646-.262-1-.291-.224-.02-.541.25-.708.2-.582-.175.321-.4.066-.492-.528-.194-1.343-.521-1.647-.373a1.869,1.869,0,0,1-1.6-.082A5.431,5.431,0,0,0,366.126.48l-.859.225c-.412-.33-.814-.159-.894.378L363.45.578l-.5-.271a4.993,4.993,0,0,0-2.192.221,2.223,2.223,0,0,1-1.254-.071A2.692,2.692,0,0,0,358.326.25c-.185.027-1.163-.221-.993.075s-.686.1-.906,0-1.049-.417-1.247-.3a1.672,1.672,0,0,1-.523.18,5.412,5.412,0,0,0-.9.546L353.039.53l-.62-.191c-.639.346-1.642,1.061-1.92.936a4.619,4.619,0,0,0-1.574-.187l-.493-.2-.106-.043c-.229.1-1.627-.28-2.132-.219A5.355,5.355,0,0,0,345.07.84c-.066.057.076.453.165.612s-.459.1-1.215-.137l-.084.082-.54.524c-.78-.064-1.577-.075-1.676-.089a3.166,3.166,0,0,1-.76-.451l-.42-.02c-.572-.027-1.417-.178-1.666.027l-.6.492c-.55-.214-.587-.039-.4.121s-1.037-.066-1.2-.175-.446-.294-.509-.321a5.689,5.689,0,0,1-1.155.253,14.675,14.675,0,0,1-1.5-.2c-.234-.093-1.182-.255-1.224-.018s-.708.46-1.481.5l-.405-.239-.767-.451a8.017,8.017,0,0,1-1.876.271l-.165.066-.34.137a6.4,6.4,0,0,0-1.415.287l-.528-.075-.538-.075a3.864,3.864,0,0,1-1.671-.414c-.224-.191-1.071.13-1.284.285s-.681-.05-.827-.216-.619-.066-1.049.221l-.318-.023-.414-.027a7.356,7.356,0,0,0-1.844.1l-.518.093L316.715,2a7.523,7.523,0,0,0-1.1-.187,6.35,6.35,0,0,1-1.31-.1l-.251.128c-.864.437-1.293.014-1.8-.348l-.064-.046c-.128-.007-.35.428-.393.6s-.8-.089-1.093-.039-1.488.351-1.874.408a4.181,4.181,0,0,1-1.669-.25l-.5-.025-.388-.023a1.172,1.172,0,0,0-.941.6c-.042.184-.7-.449-.827-.414a8.083,8.083,0,0,1-2.083.278,7.188,7.188,0,0,0-1.574-.214,2.766,2.766,0,0,1-.738.228,3.536,3.536,0,0,1-.972-.294l-.508.275-.377.207c-.656.036-1.5.1-1.873.137l-.287-.089-.177-.055c-.118-.312-.424-.13-.476-.023s-.561-.237-.8-.319-1.913.009-2.481-.043-1.57.235-1.827.18a7.884,7.884,0,0,0-1.573.216,6.761,6.761,0,0,1-1.7.066c-.3-.077-1.592-.369-1.6-.112s-.109.412-.22.346l-.1-.059-1-.585a4.942,4.942,0,0,1-1.9.678l-.007-.041c-.074-.5-.271-.633-.938-.337l-.213.1a2.514,2.514,0,0,0-1.447.1l-.459-.014c-.667-.016-1.318.093-2.014.066l-.682-.03c-.822.016-2.34.581-2.767.581a14.366,14.366,0,0,1-2.266-.453.84.84,0,0,0-.9.43c-.034.157-.313-.034-.622-.426l-.721.33-.383.175a11.6,11.6,0,0,0-1.484.364,9.8,9.8,0,0,1-1.684-.077c-.378-.018-1.449-.43-1.738-.285a12.64,12.64,0,0,1-1.861.4c-.365.066-1.046.209-1.513.319l-.388-.357-.242-.221a1.614,1.614,0,0,0-.593.895L259,4.312l-.516-.528a3.207,3.207,0,0,1-1.805.4l-.477-.018c-.572-.023-1.147-.007-1.72-.007h-1.148c-1.261,0-2.836-.009-3.5-.023l-.575.061c-.566.059.694.426-.086.587l-.738.153c-.247-.487-.992-.355-1.13-.221s-1.175.385-1.254.253a3.446,3.446,0,0,0-1.463-.51c-.382,0-1.784.33-2.128.123a.53.53,0,0,0-.75.228c-.035.173-.457-.03-.583-.13A3.825,3.825,0,0,0,240,4.316l.02.533,0,.077c-.118.087-1.415-.464-1.958-.392s-.881-.064-.748-.305l-.027-.009-.83-.307a.481.481,0,0,1-.659.451c-.163-.112-.667.061-.81.157a1.312,1.312,0,0,1-.689.171,1.168,1.168,0,0,1-.476-.651l-.533.2c-.037.014.21.378.274.587l.02.071c-.113.091-.647-.109-.817-.214s-1.178.253-1.4.025a1.873,1.873,0,0,0-.851-.483c-.148.014-1.014.073-1.923.132l-.81.109-.462.061c-.5-.039-1.363-.141-1.925-.23l-.568.137c-.333.077-.817-.2-1.168-.134l-.635.118c-.573-.132-1.928.175-2.243.071a6.821,6.821,0,0,0-.975-.173,3.28,3.28,0,0,0-1.047.139l-.272.016c-.568.034-1.252-.549-1.708.155l-.032.048a2.924,2.924,0,0,1-.7-.578c-.141-.157-.8.02-.946.157S214.024,4.367,214,4.2s-.432-.036-.583.073-.479.032-.731-.171l-.271-.143-.145-.077a1.848,1.848,0,0,0-1,.451l-.593-.146c-.287-.071-.738.241-1.054.189l-.3-.05c-.293-.285-.983.089-1.106.1s-1.2-.719-1.666-.546a9.793,9.793,0,0,1-2.19.305c-.368-.014-1.958.694-2.532.549a14.849,14.849,0,0,0-2.977-.2,6.753,6.753,0,0,1-1.073.155,9.233,9.233,0,0,1-1.123-.326l-.615.073a14.765,14.765,0,0,1-2.478-.125,1.19,1.19,0,0,0-.4.046c-.022.674-.319.264-.679.134l-.341-.123a2.381,2.381,0,0,0-1.215.212A2.448,2.448,0,0,1,189.69,4.5l-.536-.03-.634-.036a14.069,14.069,0,0,0-2.278-.178c-.217.118-.909.146-1.073.248a1.862,1.862,0,0,1-.805.189l-.225-.057-.562-.143a4.078,4.078,0,0,0-2,0l-.484-.321c-.047-.032-.34.191-.506.18l-.286-.016a2.3,2.3,0,0,0-1.214.175,1.294,1.294,0,0,1-.392.221c-.034-.009-.432-.282-.573-.385s-1.091.294-1.476.216a11.415,11.415,0,0,0-2.2-.353c-.385.071-.842.134-.9.146s-1.078-.439-1.147-.143-.084.194-.034-.228l-.709.335-.933.437a.847.847,0,0,0-.467-1.025l-.289.223L169.912,4a5.1,5.1,0,0,1-2.226.189,1.878,1.878,0,0,0-.7-.2l-.082.059-.73.517a5.673,5.673,0,0,1-.968-.581c-.071-.089-.462.025-.872.253l-.313.175-1.368-.369-.457-.194a2.832,2.832,0,0,0-1.4.41c-.111.118-.4-.128-.454-.225s-.666.046-.9.007a3.47,3.47,0,0,0-1.251-.014c-.319.107-1.563.642-1.525.367s-.558-.184-.878-.178a17,17,0,0,1-2.947-.747l-.982.986-.012.011c-.356-.168-1.389.31-1.79.18s-1.8-.016-2.318-.077a9.833,9.833,0,0,0-2.538.112c-.39.153-.82.314-.847.314a7.486,7.486,0,0,1-.605-.585c-.143-.153-.689.03-.83.128a3.234,3.234,0,0,1-1.574-.262l-.676.49-.114.082a10.627,10.627,0,0,0-1.8-.216l-.445-.184c-.511-.212-.693.628-1.246.116-.129-.121-.768-.03-1.12.066l-.676.184c-.22-.342-.736-.608-.876-.553s-.767.285-1.394.508l-.555-.018-.709-.025a10.255,10.255,0,0,0-1.812-.394v0l.012.59a2.722,2.722,0,0,0-1.379-.385,1.424,1.424,0,0,1-.763.007l-.133.02c-.224.034-.417.166-.641.207a3.765,3.765,0,0,1-.642.007h-.287c-.314,0-1.17-.089-1.405-.114s-.849-.116-1.367-.2l-.187.132L122.557,5c-.37-.326-1.431-.414-1.464-.25s-.83.018-1.153.016a9.682,9.682,0,0,0-1.281.1l-.118-.1-.582-.5c-.778.121-2.312.269-3.409.33l-1,.025c-.34.009-.911-.212-.988-.132l-.459.474c-.39-.262-2.053-.052-2.584-.089a20.639,20.639,0,0,0-2.438.061l-.605-.439-.074-.055a1.353,1.353,0,0,0-.656.458c-.082.123-.358-.1-.429-.2a4.93,4.93,0,0,0-2,.353l-.851-.107-.646-.082c-.545.116-1.866-.26-2.049,0s-.432.032-.476-.159-.365.084-.44.2-1.2-.4-1.447-.1a.718.718,0,0,1-.832.173,6.4,6.4,0,0,0-1.647-.376l-.425.221a3.827,3.827,0,0,1-2.629.216l-.923-.219a17.071,17.071,0,0,0-2.343.25c-.087.159-.452.2-.565.171s-.328.2-.377.3-.565-.118-.735-.223a2.465,2.465,0,0,0-1.405.23l-.165-.214c-.387-.5-.8.287-1.152-.109l-.16-.182a8.662,8.662,0,0,0-1.77.421,1.549,1.549,0,0,1-1.007-.225c-.171-.123-.639.107-.746.216s-.872.184-.908.05-.234-.184-.437-.109l-.19,0-.644.016a19.535,19.535,0,0,0-2.3.157,14.477,14.477,0,0,0-1.424.455l-.509,0H73.84a5.928,5.928,0,0,1-1.3-.364l-.472.314-.2.132a24.939,24.939,0,0,0-3.357-.007c-.622.1-1.518.237-1.668.232s-2.027-.781-2.755-.608a15.3,15.3,0,0,0-1.642.464l-.18.066c-.341.121-.9.394-1,.323l-1.017-.7c.022.558-.239.786-.387.656s-1.111-.1-1.128.08-.671.066-.953.048a8.174,8.174,0,0,0-1.377.1l-.16-.13-.923-.742c-.02.587-.293.9-.417.82s-.54.228-.664.378-.629-.13-1.118-.628l-.647.537-.091.077a12.848,12.848,0,0,1-1.538.3l-.635.134-.084.018a1.226,1.226,0,0,1-.3-.371c-.035-.075-.155-.057-.264.041l-.089.093-.079.087c-.079.1-.449-.091-.538-.173s-.968.241-1.323.184-1.538.03-1.876.007a3.712,3.712,0,0,0-.805.011l-.1.018-.328.059c-.313.118-.988.378-1.5.574l-.245-.289-.493-.583a4.338,4.338,0,0,1-2.286.166l.03.756,0,.03c-.077.032-1.5-.46-1.91-.18a3.288,3.288,0,0,1-1.11.524c-.111-.018-.814-.194-1.562-.389l-.177.153c-.467.4-1.076-.178-1.51.25-.134.132-.856.54-1.333.036-.015-.016-.467.112-.471.178-.022.638-.282.248-.677.164l-.383-.082c-.53.023-2.577-.26-3.187-.137s-1.215.264-1.35.314l-.005.055-.076.74a10.247,10.247,0,0,0-1.607-.49l-.059.269-.017.075c-.116.071-.78-.159-1.014-.084a3.071,3.071,0,0,1-1.244.116c-.3-.089-.884.483-1.01.717s-.661.121-.773.046a5.673,5.673,0,0,0-1.291-.244c-.3-.009-.82.556-1.074.439a3.416,3.416,0,0,0-1.3-.162l-.249.278L16.276,11c-.3.412-1.081.087-1.347-.057s-1.612.168-1.979.034a3.11,3.11,0,0,0-1.189-.187l-.136.116-.249.214a.715.715,0,0,1-1.056.084c-.109-.171-.432.1-.488.2s-.63.023-.713.162a.423.423,0,0,1-.451.175l-.155-.018c-.336-.036-.674-.064-1.014-.075h-.03c-.042.114.309.3.451.339s-.318.426-1.019.87l-.259-.4-.5-.77a2.725,2.725,0,0,0-1.484.927c-.045.168-.452.048-.908-.266L3.33,12.8a1.076,1.076,0,0,1-1.553.08l-.054-.036c-.217.064.227.883-.076,1.1a2.368,2.368,0,0,1-1.187.271c-.166-.032-.2.073-.072.235L.41,14.6c.02.134-.113.275-.151.417l-.15.549c.414.483.583.956.523.986s-.345.166-.632.3l.024.08c.18.594.528-.048.578,0,.183.187.8.175.459.635l-.372.5c.565-.191,1.034-.034,1.042.351l-.018.2c-.045.546-.066,1.029.847,1.3l.363.109A2.281,2.281,0,0,1,3.275,21.4l.171.31.044.077c.141.057.953.606,1.805,1.22l-.133,1.482-.013.146c.045.2.666.378,1.38.394l.627-.039.329-.02c.587-.175.646.075.133.556l-.3.321-.055.059a.355.355,0,0,0,.407.15l.155-.027L8.017,26a.473.473,0,0,1,.5.314l-.04.171-.044.182c-.146.189-.59.979-.459,1.211a3.225,3.225,0,0,0,.34.494l.351.26c.084.061.635-.455.958-.419s.346.984.054,2.1l2.229.071c.141,0,.41.567.326.817l-.077.232c-.5-.009-1.762-.369-1.935-.148s.173.751.341.872a4.027,4.027,0,0,0,1.565-.141c.336-.1.8-.253,1.025-.348l.178-.112.119-.073c.089-.118.432,0,.535.077a4.67,4.67,0,0,1,.592.8l-.356.357-.034.034a11.059,11.059,0,0,0,1.96.726,1.538,1.538,0,0,0,1.274-.312l.182.43c.123.291.178.492.632.426l1.012-.146c.968.312,2.224.64,2.392.678a8.3,8.3,0,0,1,1.486,0c.269.128-.356.535-1.39.906l.1.959a1.272,1.272,0,0,1-.361.091l-.654.1c-.185.417-.657,1.268-.419,1.327a2.514,2.514,0,0,0,.841-.014c.113-.034.151.1.089.294l-.067.175-.066.168c-.081.182.19.184.6,0l.321-.137.138-.059c.3.114.442.4.405.471a3.693,3.693,0,0,1-1.937.246c-.464-.216-.9-.248-.968-.073l.037.132.123.426a2.224,2.224,0,0,1-.022,1.61l.324.378.145.168a2.543,2.543,0,0,0,1.214.312l-.024.51-.01.225c.456.266.294.615.145.651s1.587,1.154,1.417,1.551.509,1.015.824,1.132-.44.71-.883.71-1.347-.064-1.634-.048a9.553,9.553,0,0,1-1.594.241,4.42,4.42,0,0,0-.839-.13l0,.02c-.163.952-.741.357-1.242.2l-.119-.039a.268.268,0,0,0-.134.4,1.707,1.707,0,0,1-1.268.266c-.356-.182-.745.319-.788.61s-.54.209-.63.143-.686-.462-.81-.357a4.65,4.65,0,0,1-.573.41,7.428,7.428,0,0,1-1.257.162c-.293,0-.7.442-.864.494s-.541.207-.839.342L10.4,49.7a14.8,14.8,0,0,0-.489,2.183l-.034.241c.187.287-.1.663-.647.833L9,52.367a1.154,1.154,0,0,0-.8-.576l-1.133.139c-.931-.453-2.939.387-3.683.587s-.809.408-.143.462l.092.159a.959.959,0,0,0,.772.549c.378.087.266.672-.121.867-.158.077-.437.071-.535.168-.187.187-.4.43-.37.628l.02.121c.444.109.488.253.1.314l-.1.128c-.328.446-.654-.294-.935.03-.252.289-.523.569-.753.865-.1.121-.087.285-.163.417l-.237.41c.452.485,1.094.749,1.426.59l.289-.173L3,57.886c.467-.1.472,1.189-.168,1.414a1.74,1.74,0,0,0-1.041,1.289,5.685,5.685,0,0,0,.684,1.457l-.076.567-.027.2c-.129.244.153.291.63.1l.205.068.387.13a3.639,3.639,0,0,0-.546.895l.212.239.417.469a2.117,2.117,0,0,1,.785-.48,12.565,12.565,0,0,1-.375,1.812c-.133.49-.215,1.724.131,1.867a2.389,2.389,0,0,0,1.342.061l.366-.034.313-.03c.43.057-.04,1.111-.43,1.384s-.936.651-1.214.84l.274.209c.254.2.311.323-.022.446a3.792,3.792,0,0,1-.931.241c-.694.064-.148.257-.173.419-.05.307-.481.578.4.54a5.215,5.215,0,0,0,1.609-.275.791.791,0,0,1,.556.027l.166.137a.6.6,0,0,0,.558.269,5.342,5.342,0,0,1,1.167.253,7.559,7.559,0,0,1,1.276.492,4.042,4.042,0,0,0,1.172.556l.506-.214c.072-.032.419.118.437.2l.175.8c.879-.057,2.891-.157,3.379-.13s1.106.014,1.237.046,1.358.164,2.728.294l.775.852.022.023c.15-.032,1.812.153,1.955.462s1.1.162,1.468.125,1.752.449,2.19.43a14.788,14.788,0,0,1,2.347.093,1.383,1.383,0,0,0,.908.025l.118-.023.624-.128c-.092.3.141.492.521.43l.351-.043c.029,0,.131.164.141.255l.024.191c-.01.394.635-.007.782-.168s.763-.093.957-.014.005.28-.417.449l-.012.143c-.047.521.568.291.923.314.1,0,.215-.2.333-.3l.1-.084c.116-.087.834.275,1.032.1s.832.1.992.266,1.767-.316,2.083-.132a4.5,4.5,0,0,0,1.12.446L38.6,78.1l.277-.134c.224-.235,1.434.034,1.846.014s1.042-.125,1.222-.1.817.043,1.419.05l.43-.159c.81-.3.824.6,1.478.442l.062-.016c.064-.025,1.057-.5,1.007-.216s.1.241.185.13.615.116.765-.016.79-.66,1.046-.6a2.116,2.116,0,0,1,.807.581c.108.148.567-.137.691-.273s.459.221.743.8l.4-.485c.59-.724.859-.581,1.432-.116a.679.679,0,0,0,.432.084c.525-.449.844-.009,1.234.13.3.1.59.221.9.307l.593.171a11.1,11.1,0,0,0,1.483-.271c.129-.064.735-.25.872-.153s.565-.082.686-.175a.87.87,0,0,1,.6-.107l.153.084.225.123c.222.178.841.025,1.014-.093s.457.077.509.182a12.556,12.556,0,0,0,1.839-.082c.5,0,1.342.039,1.54-.007s1.194-.255,2.212-.462l.568.235.773.319c.775-.093,2.759.246,3.4.1a21,21,0,0,1,2.7-.442,19.264,19.264,0,0,1,2.027.093l.551-.121.8-.173A2.353,2.353,0,0,0,79.63,77.7a4.2,4.2,0,0,1,1.762-.139c.351.025,1.067-.064,1.348-.016a7.82,7.82,0,0,0,1.918.262,10.717,10.717,0,0,1,1.447-.26l.472.2.377.162a17.13,17.13,0,0,1,2.206-.348l.444.036c.351.027.506.394,1.078.232.728-.2,1.071.1.819.608l-.086.175c-.178.175,1.325.715,1.528.565s-.24-.558-.482-.672-.234-.225.018-.248l.067-.061c.193-.173.3-.483.519-.533s.567.216.854.214c.666,0,1.178.016,1.373.615l.079.244c.442.2,1.244.519,1.78.706l.064.337.035.189c.072.2.375.048.672-.351l.452-.3c.509-.344,1.34-.4,1.6-1.034.145-.355.9-.945,1.158.093l.017.068c.289.039,1.148.367,1.153.549a1.053,1.053,0,0,1-.353.631,6.963,6.963,0,0,1-1.336.275l-.277-.512-.052-.1a1.342,1.342,0,0,0-.768.207c-.124.089.385.371.6.444a7.778,7.778,0,0,1,.773.321c.1.059.518.519.714.433a4.792,4.792,0,0,0,1.052-.961l.793.025a12.59,12.59,0,0,0,3.349-.533c.066-.016.256.123.3.214l.032.071a3.015,3.015,0,0,1-.928.344c-.215.034-1.36.344-1.36.615s-.793.562-1.067.587a.862.862,0,0,0-.486.153c0,.03,1.108.052,1.513.052a4.217,4.217,0,0,0,1.666-.84c.272-.246.708.114.77.276s-.261.344-.714.408l.262.405.013.02a3.36,3.36,0,0,1,1.284-.064c.134.068.309-.241.387-.685l.082,0,.486-.02c.6.077,1.1-.025,1.111-.228l-.032-.194-.032-.191c-.094-.2-.343-.833-.118-.886s1.257.5,1.612.305.361.052.252.2-1.046.565-.842.738a8.849,8.849,0,0,1,.745.719.56.56,0,0,0,.449.132c.081-.025.136-1.132.343-1.5a1.816,1.816,0,0,0,.284-.993l-.005-.132-.005-.214c.165-.232.75-.7.867-.562s.44.576.721.963l.445.278.185.116c.123.25.809.649.7.8s-.736.838-.926,1.068,1.044-.1,1.286-.453a3.6,3.6,0,0,1,1.367-1.036l.266.164c.523.319.859.28,1.209-.073l.282-.287c.469-.014.888-1.086.888-1.5s.64-.649.847-.615a2.554,2.554,0,0,1,.972.669l-.573.389c-.3.207-.3.631-.546.9l-.109.121a1.19,1.19,0,0,0-.925.74l-.2.353a.778.778,0,0,1-.533.139l-.358-.039a3.763,3.763,0,0,1-1.056-.419l-.24-.043-.259-.05c-.324-.032-.9.405-.891.61s-.015.471-.01.581.145.153.311.093l.153-.007.726-.032c.805-.043,1.869.014,2.061-.014s.674-.633.777-.829.582-1.223.889-.995.641-.294.672-.578.177-.444.324-.353l.017.046c.148.385-.316,1.377,1.066.553.029-.016.593.273.609.437l.113,1.2a6.376,6.376,0,0,0,1.355.788l.242-.025.19-.02a.375.375,0,0,0,.076-.483c-.069-.048-1.227-.269-1.064-.569s.748.5,1.286.476,2.263-.018,2.591-.351.661-.574.738-.535l.05.034c.341.228-.3.842.514.806.3-.014.619-.437.809-.717l.155-.228c.005-.248,1.083-.294,1.447-.239s.195.811-.178.847-1.027.064-1.452.064l.118.371.035.112a6.768,6.768,0,0,0,1.138.148c.155-.011,1.147-.449,1.38-.241a3.08,3.08,0,0,0,.767.505.377.377,0,0,0,.336-.143l.012-.1.012-.107c-.034-.116.716-.551,1.051-.683a.95.95,0,0,1,1.051.549l.383.114.392.114a6.644,6.644,0,0,1,2.125-.157c.282.077.815.216.925.253a19.905,19.905,0,0,1,2.189-.03,9.3,9.3,0,0,0,1.964.146l.008-.749,0-.253c.324-.314,1.02.116,1.172.357s1.315.089,1.735-.1a1.015,1.015,0,0,1,1.19.228l.239.164.2.134c.3.118.609-.656.634-.97s.39-.166.442-.02.669.6.368.69.2.266,1.116.4l.671.091.1.014c.106,0,.7-.068,1.323-.141l.558-.068c.807-.1,1.676.225,2.444-.257a.425.425,0,0,1,.688.294c.032.355.219.159.494.1l.355-.077a.991.991,0,0,0,.958-.549c.05-.219.77-.237,1.6-.041l.072.694a1.287,1.287,0,0,0,.689.057l.3-.125a1.017,1.017,0,0,1,1.133.084c.17.178.728-.18.847-.326s.743-.091,1.385.118l.39.246.689.435a2.022,2.022,0,0,1,1.7-.369l.408-.043c.471-.048,1.089-.53,1.315-.43l.825.36c.271-.417.543-.574.567-.5a8.307,8.307,0,0,0,1.769.389,13.266,13.266,0,0,0,1.678-.025,4.57,4.57,0,0,1,1.12-.036c.173.068.694.025.952.068A10.107,10.107,0,0,0,179,81.8a2.748,2.748,0,0,0,1.13-.41l.108-.109.2-.2c.37-.362.672.184.97.189s1.326,0,2.283-.018l.679.171a5.893,5.893,0,0,0,2.2.127l.158-.018c.158-.064,1.115.148,1.4.023s1.289.107,1.59,0,1.8.139,2.315.107a12.265,12.265,0,0,0,1.587-.212l.345,0,.429,0c.494.091.9-.089.915-.4l-.024-.2-.019-.162c-.143-.15.257-.276.445-.276s.331.462.289.622.3.446.758.635l.5-.082c.118-.018.205-.139.308-.212.025-.016,1.985-.389,2.006-.378l.817.464a23.66,23.66,0,0,1,3.7-.262,13.8,13.8,0,0,0,1.523.082c.148-.018,1.1-.332,1.387-.214s.983-.011,1.153.066a9.444,9.444,0,0,0,1.5.328l.259-.182.945-.658a28.655,28.655,0,0,0,4.288.833c.667-.064,1.047-.688,1.207-.815s1.379.756,1.814.724,2.365-.2,2.964-.248a6.281,6.281,0,0,1,1.16-.046c.037.03.242.638.466.5a5.335,5.335,0,0,1,1.3-.408,3.667,3.667,0,0,1,1.313.319l.582-.335c.3-.173,1.084.141,1.649.143h.363a4.082,4.082,0,0,1,1.484-.114,1.042,1.042,0,0,0,.567.048c.062-.046-.017-.15-.173-.232l0-.073c0-.08.22-.235.262-.221.244.075.541.312.671.269.282-.1.449-.392.8-.052.032.032.405-.182.582-.155l.408.066c.467.107,1.521.023,1.817.173a4,4,0,0,0,1.521.159c.272-.048,1.116.228,1.341.2s.667-.118.98-.191l.373.123.711.239c.114-.442.293-.385.324-.221s.632.048.819-.03a2.041,2.041,0,0,1,1.064.087l.35-.287.3-.248a.637.637,0,0,1,.909.171,2.446,2.446,0,0,0,1.333.364c.324-.039,1.227-.6,1.531-.467a2.841,2.841,0,0,0,1.489.018l.435.3.73.505a13.47,13.47,0,0,1,2.431-.46,4.438,4.438,0,0,1,1.476-.387c.249.048,2.123.312,2.781.321a6.12,6.12,0,0,0,1.384-.068c.076-.055.736-.383.878-.209s.852.039,1.582-.305l.429.121,1.384.389a29.989,29.989,0,0,1,4.035-.112,1.348,1.348,0,0,0,.921-.678c.04-.164.881.235,1.167.421s1.15-.068,1.353-.2a.918.918,0,0,1,.767-.071l.155.089c.978.565,1,.56,1.93.087.324-.168.867-.248.98-.46l.138-.257a.962.962,0,0,1,.834.153c.076.141.4.125.516.068s.287.385.311.544.852.3,1.157.3a11.346,11.346,0,0,0,1.538.027c.245-.064,1.16.089,1.437-.059a3.467,3.467,0,0,1,1.311-.28c.237.039,1.071.2,1.3.275a1.983,1.983,0,0,0,1.15-.223l.514.23a2.062,2.062,0,0,0,1.579.039l.521-.187a3.574,3.574,0,0,1,1.885.357c.183.171,1.046-.207,1.268-.367s1.2.071,1.547.23a.966.966,0,0,0,1.121-.474l.454.128.778.216c.824-.1,1.7-.23,1.827-.207a19.682,19.682,0,0,0,3.421.428c.893-.08,2.92-.505,3.332-.278a1.282,1.282,0,0,0,1.375-.143l.118.039.782.253a15.924,15.924,0,0,1,3.036-.266l.545.3.746.4a12.287,12.287,0,0,1,2.626-.412c.439-.046,1.785-.26,1.945-.071s.659.03.859.03,1.827.118,2.389.155,1.313.082,1.57.061.921.139,1.135.118a8.45,8.45,0,0,1,1.938-.478c.472.075,2.054,0,2.5.05a13.821,13.821,0,0,0,2.019.153c.34-.057,1.616.091,2.088.039s1.474-.089,1.7-.082,1.33.546,1.346.255.168-.282.222-.184,1.459-.146,2.005-.134a7.57,7.57,0,0,0,1.6-.043,9.419,9.419,0,0,1,1.306.084c.247-.032,1.089-.2,1.874-.387l.582.125.876.191a18.92,18.92,0,0,1,2.781-.18l.44-.178.615-.248a3.255,3.255,0,0,0,1.849.132l.525-.057.555-.061a8.88,8.88,0,0,1,2.007.2l.531-.123.521-.121a4.254,4.254,0,0,0,2.053-.346l.578.321.129.073c.365-.137,1.984.241,2.385-.018s1.141-.421,1.22-.314a7.131,7.131,0,0,0,1.479-.171c.425-.041,1.362-.148,2.085-.241l.706.143.412.082c.523-.143,1.658-.535,1.839-.405s2.026-.275,2.722-.273a21.179,21.179,0,0,0,2.263-.2,11.645,11.645,0,0,0,1.636.091,4.836,4.836,0,0,1,1.711-.118l.525-.344.055-.036a3.069,3.069,0,0,0,1.511-.414l.129.184c.377.54.9-.462,1.167.116.008.02.889-.228.958-.153l.5.546a5.681,5.681,0,0,1,1.7-.915l.55,0,1.076,0a25.389,25.389,0,0,0,3.152-.257l.538-.061.525-.059c.56-.121,3.845-.3,4.858-.535a10.581,10.581,0,0,1,2.752-.316l.432-.155.356-.13a7.085,7.085,0,0,1,1.325-.275,5.561,5.561,0,0,0,1.078-.4,1.6,1.6,0,0,1,.558-.18c.054,0,.378.073.721.148l-.177-.237-.617-.831a6.971,6.971,0,0,1-1.311-1.667c.027-.02.619-.328,1.315-.683l-.822-.849-.333-.344c.155-.335.372-.845.481-1.134l-.335-.237-.279-.2c-.045-.3-.126-.822-.18-1.168l.029-.244.067-.585c-.523-.032.054-.362.242-.624a10.987,10.987,0,0,1,1.207-1.255l-.736-.294c-.952-.383-1.111-.708-.44-1.336l.245-.23a2.093,2.093,0,0,0-.674-1.282c-.224-.159-.318-.355-.274-.385s.161-.269.294-.294.109-.428.217-.528a10.641,10.641,0,0,0,1.214-.786c.192-.235.234-.512.094-.619l-.111-.007a1.051,1.051,0,0,1-1-.656l-.192-.4a1.376,1.376,0,0,1,1-.665c.2.016.681-.708.8-.724a1.044,1.044,0,0,1,.6.291c.077.128,1.066-.116,1.426-.25s.029-.346-.178-.316-1.289.289-1.251.046-.1-.4-.18-.392-.746.3-.957.182-.688-.458-.817-.544.6-.209.859-.157a4.093,4.093,0,0,0,1.215,0,2.093,2.093,0,0,1,1.093.194c.18.137.187-.046.013-.4l-.2-.278-.1-.146c.015-.209,1.081-.521,1.306-.745s-.092-.822-.25-.94-.173-.5-.034-.861l.182-.31.343-.583c-.878-.287-.9-.474-.059-.414l.061.13.151.326a.7.7,0,0,0,.763-.344l-.262-.2c-.045-.034.118-.209.187-.319.251-.4.061-.546-.528-.553l-.222,0a.317.317,0,0,1-.138-.471,7.862,7.862,0,0,0,.624-.7l-.187-.278c-.454-.674-1.064-1.031-1.474-.947l-.119.025c-.138.127-.57-.3-.672-.478s.538-.713.8-.854-.6-.335-.889-.357-.166-.5-.055-.642a.834.834,0,0,1,.513-.28l.042.027.314.2a1.274,1.274,0,0,0,1.02.114c.111-.082-.193-.592-.429-1.045a1.184,1.184,0,0,0-1.185-.653l-.158-.209-.377-.5c.585-.31.635-.724.477-.786a2.484,2.484,0,0,0-1.224.337l-.427-.478-.029-.032c-.066-.018-.15.146-.185.369l-.133.157-.2.241a1.666,1.666,0,0,1-1.252.107c-.182-.128.136-.644.706-1.145l.089-.442c.079-.38-.4-.82-.6-1.239l-.03-.064c.126-.137.967.458,1.325.653a1.573,1.573,0,0,0,1.175-.025,2.4,2.4,0,0,1,1.234.109c.235.125.338-.071.229-.437l-.071-.319-.084-.394a6.5,6.5,0,0,1-1.585-.182l-.015-.128-.074-.642a.6.6,0,0,1-.951-.082l-.114.011c-.7.071-.5-.387-.745-.567l-.116-.087c-.259,0-1.353-.123-1.4-.36a2.154,2.154,0,0,1,.294-.993c.111-.168,1.017.239,1.373.3a20.717,20.717,0,0,1,2.508.13,9.968,9.968,0,0,0,2.9.517,7.99,7.99,0,0,1,2.254-.2,7.5,7.5,0,0,0,1.121.3l.039-.052c.309-.412.651.052.928-.036l.328-.1c.259-.134-.066-.626-.262-.772s-.491-.97-.16-1.093-.049-1.685-.256-2.163-.289-1.362.032-1.382a12.664,12.664,0,0,0,1.582-.269l.124-.41.087-.282c-.005-.423.464-.562,1.046-.307M6.415,59.7c-.25.264-.513.708-.814.726-.824.052-.19-.587-.528-.786-.409-.239-.21-.364.049-.565.331-.255.42.018.622.093l.225.084c.267.05.5.221.513.376Zm5.566-6.874c-.329-.066-1.212-.74-.972-1.1s.518-.437.615-.159l-.027.194c-.055.412.1.651.723.685l.079,0c.1.275-.087.446-.419.38m96.133,24.886a6.828,6.828,0,0,0-1.616-.626c-.336,0,.124-.162,1.022-.353l.743.512.094.066a.629.629,0,0,1,.822.5c0,.235-.8.036-1.066-.1m5.576-.451a7.543,7.543,0,0,0-1.8.2c-.24.123-1.227.6-1.439.371s.064-.549.607-.7l.442-.178.467-.187a6.33,6.33,0,0,0,1.55.123c.269-.068,1.394-.273,1.575-.041s-.987.421-1.407.419m11.648-.312-.207.182a.631.631,0,0,1-.333.125l-.605-.421a3.688,3.688,0,0,1-2.063-.018c-.225-.155-.331-.392-.3-.433a1.872,1.872,0,0,1,.763.127c.392.112,2.143-.239,2.528-.182s.484.335.217.619m8.574,3.115c-.343.025-.207-.913-.23-1.261s.022-.3.1.1.469,1.138.128,1.163m15.325-.291-.079.132a2.306,2.306,0,0,1-1.407-.367l-.526-.223-.425-.182c-.314-.551-.414-.977-.22-.947a2.6,2.6,0,0,1,.973.774l.356.146.314.13c.572-.057,1.071.112,1.113.373ZM204.22,78.15c-.385.084-1.157.423-1.363.326s-.245-.383-.089-.638l-.153-.26-.035-.061a2.469,2.469,0,0,1,1.165-.223c.546-.011.861.772.476.856m71.3-.025a1.981,1.981,0,0,1-1.384-.813c-.129-.342.5-.49.617-.357s.691.553.893.708.145.364-.126.462M388.367,37.67c-.353-.1-1.38-.658-1.962-.92.029-.03.124-.13.467-.483l.649-.667c.356.521,1.073,1.521,1.276,1.8s.01.4-.43.273m8.271-.13-.015.182-.034.394c-.382-.03-1.686-.464-1.787-.856s.054-.389.341,0l.4.132.269.089c.768-.339,1.138-.314.822.055m9.16-.713-.306-.335-.412-.451c-.6-.027-.708.171-.244.442l-.973.016-.4.007c-.526-.125-.75.132-.5.571l.267.321a.975.975,0,0,0,.632.339L405,37.563c.941.505,1.552.792,1.357.635s.245-.79.432-.833-.257-.287-.988-.537" transform="translate(0.17 0.033)" fill="#3d3d3d"/>
  </g>
</svg>
