<svg xmlns="http://www.w3.org/2000/svg" width="25px" height="25px" viewBox="0 0 34 34"><defs><style>.cls-1{isolation:isolate;}.cls-2{mix-blend-mode:multiply;}.cls-3{fill:#ffffff;stroke:#ffffff;stroke-miterlimit:10;}</style></defs><title>Recommendations</title><g class="cls-1"><g id="Layer_1" data-name="Layer 1"><g id="New_Symbol_12" data-name="New Symbol 12"><g id="New_Symbol_14-2" data-name="New Symbol 14"><path class="cls-3" d="M17,33.5A16.5,16.5,0,1,1,33.5,17,16.52,16.52,0,0,1,17,33.5h0ZM17,1.23A15.77,15.77,0,1,0,32.77,17,15.78,15.78,0,0,0,17,1.23h0Z"/><path class="cls-3" d="M17,25.39A0.37,0.37,0,0,1,16.61,25V9a0.37,0.37,0,1,1,.73,0V25a0.37,0.37,0,0,1-.37.37h0Z"/><path class="cls-3" d="M25,17.37H9a0.37,0.37,0,0,1,0-.73H25a0.37,0.37,0,0,1,0,.73h0Z"/></g></g></g></g></svg>