<svg 
 xmlns="http://www.w3.org/2000/svg"
 xmlns:xlink="http://www.w3.org/1999/xlink"
 width="83px" height="79px">
<path fill-rule="evenodd"  fill="rgb(255, 255, 255)"
 d="M82.859,61.058 C82.008,63.359 80.859,65.157 79.657,66.683 L56.311,45.222 C56.376,45.103 56.443,44.985 56.492,44.856 C56.798,44.049 56.767,43.128 56.354,42.227 C56.301,42.131 56.193,41.891 56.344,41.726 L56.402,41.663 L56.450,41.594 C57.449,40.194 57.236,38.249 55.955,37.072 C55.830,36.957 55.774,36.818 55.750,36.668 C64.464,44.509 73.365,52.126 82.423,59.441 C82.982,59.782 83.101,60.412 82.859,61.058 ZM78.888,69.753 C78.716,69.941 74.078,75.935 66.573,78.773 C66.045,79.156 65.224,79.099 64.837,78.570 C57.512,70.855 49.870,63.325 42.225,56.093 L42.730,53.910 C44.042,54.665 45.704,54.440 46.777,53.273 L46.843,53.202 L46.898,53.122 C46.946,53.052 47.036,52.920 47.361,53.040 C49.079,53.538 50.755,52.681 51.344,51.001 L51.375,50.911 L51.394,50.816 C51.414,50.714 51.574,50.583 51.804,50.568 C52.617,50.462 53.399,50.035 53.949,49.396 C54.547,48.702 54.823,47.815 54.719,47.085 C54.712,46.959 54.731,46.648 54.916,46.538 C55.091,46.461 55.256,46.365 55.411,46.257 L78.800,67.759 C79.368,68.281 79.408,69.188 78.888,69.753 ZM54.138,41.957 C54.541,42.849 54.227,43.953 53.336,44.350 C52.628,44.744 52.296,45.481 52.330,46.206 C52.465,47.199 51.598,48.143 50.605,48.272 C49.878,48.302 49.177,48.874 49.030,49.606 C48.708,50.527 47.825,51.107 46.722,50.787 C46.071,50.537 45.259,50.661 44.747,51.407 C44.054,52.160 42.880,52.298 42.028,51.515 C41.715,51.228 41.210,51.088 40.725,51.150 L37.998,62.936 L35.218,59.684 L31.292,61.293 L34.108,48.914 C34.003,48.794 33.917,48.657 33.848,48.506 L24.094,52.763 L25.083,48.457 L21.262,46.335 L30.713,42.210 C30.649,42.131 30.594,42.048 30.516,41.976 C29.758,41.280 29.615,40.104 30.309,39.350 C30.730,38.695 30.784,37.876 30.484,37.254 C29.988,36.274 30.302,35.172 31.192,34.775 C31.901,34.381 32.232,33.643 32.200,32.919 C32.063,31.925 32.930,30.982 33.924,30.852 C34.650,30.822 35.264,30.345 35.499,29.518 C35.823,28.597 36.799,28.105 37.807,28.336 C38.549,28.672 39.267,28.460 39.873,27.800 C40.471,26.961 41.743,26.911 42.501,27.608 C42.974,28.044 43.889,28.189 44.597,27.798 C45.395,27.312 46.498,27.632 47.085,28.520 C47.392,29.323 48.135,29.657 48.860,29.631 C49.853,29.500 50.791,30.190 50.843,31.278 C50.961,31.909 51.538,32.613 52.184,32.859 C53.194,33.091 53.786,34.158 53.378,35.173 C53.230,35.908 53.444,36.626 54.012,37.148 C54.770,37.845 54.914,39.019 54.314,39.860 C53.795,40.425 53.741,41.244 54.138,41.957 ZM47.822,32.847 C44.049,29.726 38.526,30.214 35.515,33.878 C32.413,37.632 32.930,43.151 36.703,46.273 C40.384,49.308 45.904,48.819 48.919,45.158 C52.022,41.404 51.502,35.882 47.822,32.847 ZM37.302,45.432 C34.091,42.654 33.603,37.860 36.273,34.575 C39.036,31.377 43.828,30.915 47.128,33.602 C50.343,36.383 50.832,41.179 48.162,44.463 C45.492,47.747 40.603,48.119 37.302,45.432 ZM42.413,25.666 C41.737,25.043 40.818,24.739 39.893,24.834 C39.054,24.919 38.298,25.334 37.801,25.978 C37.546,26.239 37.440,26.191 37.353,26.151 L37.227,26.095 L37.093,26.064 C36.538,25.937 35.993,25.955 35.486,26.077 L11.401,3.937 C12.977,2.556 14.751,1.279 16.677,0.217 C17.202,-0.167 17.937,-0.013 18.323,0.515 C26.447,9.004 34.864,17.309 43.492,25.404 C43.292,25.470 43.096,25.549 42.913,25.662 C42.739,25.757 42.481,25.713 42.413,25.666 ZM33.161,28.202 C33.066,28.537 32.899,28.543 32.723,28.556 C31.910,28.662 31.129,29.090 30.578,29.729 C29.980,30.423 29.705,31.311 29.811,32.039 C29.816,32.165 29.798,32.476 29.610,32.586 C28.869,32.917 28.311,33.526 28.037,34.299 C27.742,35.135 27.817,36.096 28.231,36.912 C28.308,37.071 28.309,37.352 28.174,37.604 C27.457,38.472 27.295,39.643 27.649,40.667 L26.182,41.309 C17.982,33.954 9.445,26.622 0.738,19.645 C0.738,19.645 0.738,19.645 0.647,19.561 C0.265,19.210 0.060,18.671 0.218,18.121 C2.415,10.404 8.080,5.008 8.348,4.906 C8.868,4.341 9.775,4.304 10.342,4.826 L34.170,26.731 C33.727,27.103 33.373,27.598 33.161,28.202 Z"/>
</svg>