<svg 
 xmlns="http://www.w3.org/2000/svg"
 xmlns:xlink="http://www.w3.org/1999/xlink"
 width="65px" height="88px">
<path fill-rule="evenodd"  fill="#fff"
 d="M57.769,34.048 C54.492,38.609 50.246,41.777 47.001,43.747 C44.664,48.317 42.000,52.420 36.998,53.840 C36.606,53.951 35.151,54.264 32.931,54.264 C30.927,54.264 29.295,53.938 28.907,53.840 C24.147,52.633 21.535,48.803 19.295,44.513 C15.963,42.651 10.958,39.252 7.218,34.048 C-1.133,22.431 0.082,14.089 1.487,11.867 C4.189,7.598 7.595,9.437 9.112,11.551 C9.581,12.206 10.478,12.401 11.367,12.165 C10.906,7.172 10.805,3.748 10.805,3.748 L55.100,3.748 C55.100,3.748 54.998,7.215 54.529,12.260 C55.079,12.213 55.569,11.979 55.876,11.551 C57.392,9.437 60.798,7.598 63.500,11.867 C64.906,14.089 66.120,22.431 57.769,34.048 ZM11.600,14.501 C10.480,14.756 9.109,14.562 8.606,14.066 C7.133,12.614 5.526,9.881 3.451,13.161 C2.371,14.866 2.100,23.381 8.517,32.307 C11.151,35.973 14.607,38.477 17.136,39.971 C14.012,32.331 12.409,22.134 11.600,14.501 ZM61.537,13.161 C59.461,9.881 57.854,12.614 56.381,14.066 C56.010,14.432 55.162,14.637 54.293,14.618 C53.506,21.986 51.980,31.702 49.070,39.209 C51.419,37.679 54.237,35.415 56.470,32.307 C62.887,23.381 62.616,14.866 61.537,13.161 ZM55.568,2.101 L10.337,2.101 C10.027,2.101 9.776,1.643 9.776,1.076 C9.776,0.510 10.027,0.051 10.337,0.051 L55.568,0.051 C55.878,0.051 56.129,0.510 56.129,1.076 C56.129,1.643 55.878,2.101 55.568,2.101 ZM44.639,79.173 L21.267,79.173 L21.807,74.606 L44.100,74.606 L44.639,79.173 ZM30.649,57.886 C30.084,57.886 29.626,57.441 29.626,56.892 L29.626,56.272 C29.626,55.723 30.084,55.279 30.649,55.279 L35.256,55.279 C35.822,55.279 36.280,55.723 36.280,56.272 L36.280,56.892 C36.280,57.441 35.822,57.886 35.256,57.886 L30.649,57.886 ZM41.657,73.022 L24.248,73.022 C24.248,70.366 27.414,70.226 28.387,68.758 C29.827,66.585 30.647,59.856 30.737,58.811 L35.187,58.811 C35.277,59.856 36.078,66.585 37.518,68.758 C38.491,70.226 41.657,70.366 41.657,73.022 ZM51.534,80.326 L52.433,87.938 L13.472,87.938 L14.372,80.326 L51.534,80.326 Z"/>
</svg>