<svg 
 xmlns="http://www.w3.org/2000/svg"
 xmlns:xlink="http://www.w3.org/1999/xlink"
 width="60px" height="85px">
<path fill-rule="evenodd"  fill="rgb(255, 255, 255)"
 d="M56.651,6.553 L45.077,6.553 C44.158,5.550 42.840,4.907 41.368,4.907 L36.325,4.907 L36.325,4.060 C36.325,2.105 33.917,0.517 30.956,0.517 C27.992,0.517 25.593,2.105 25.593,4.060 L25.593,4.907 L20.556,4.907 C19.075,4.907 17.760,5.547 16.833,6.553 L3.317,6.553 C1.929,6.553 0.814,7.667 0.814,9.037 L0.814,81.930 C0.814,83.300 1.929,84.414 3.317,84.414 L56.651,84.414 C58.036,84.414 59.160,83.303 59.160,81.930 L59.160,9.037 C59.160,7.667 58.036,6.553 56.651,6.553 ZM54.143,79.448 L5.820,79.448 L5.820,11.522 L15.805,11.522 C16.482,13.486 18.339,14.904 20.556,14.904 L41.365,14.904 C43.576,14.904 45.428,13.483 46.108,11.522 L54.143,11.522 L54.143,79.448 L54.143,79.448 L54.143,79.448 ZM12.586,26.716 L49.322,26.716 L49.322,28.371 L12.586,28.371 L12.586,26.716 ZM12.586,32.510 L49.322,32.510 L49.322,34.168 L12.586,34.168 L12.586,32.510 ZM12.586,38.822 L49.322,38.822 L49.322,40.479 L12.586,40.479 L12.586,38.822 ZM12.586,44.616 L49.322,44.616 L49.322,46.271 L12.586,46.271 L12.586,44.616 ZM43.731,56.125 C38.036,60.520 33.617,66.139 28.877,71.475 C28.130,72.320 26.273,73.550 25.191,72.458 C22.542,69.804 19.851,66.985 18.339,63.520 C17.232,60.966 21.890,56.844 23.121,59.677 C24.200,62.164 25.885,64.225 27.731,66.172 C32.052,61.220 36.325,56.220 41.565,52.173 C44.821,49.660 46.459,54.023 43.731,56.125 Z"/>
</svg>