<svg 
 xmlns="http://www.w3.org/2000/svg"
 xmlns:xlink="http://www.w3.org/1999/xlink"
 width="88px" height="76px">
<path fill-rule="evenodd"  fill="rgb(255, 255, 255)"
 d="M74.322,69.668 C74.264,69.700 74.206,69.731 74.148,69.763 C73.905,69.896 73.661,70.027 73.416,70.156 C73.237,70.250 73.058,70.342 72.878,70.434 C72.747,70.500 72.616,70.567 72.485,70.632 C72.171,70.788 71.854,70.941 71.536,71.090 C71.534,71.092 71.531,71.093 71.529,71.094 C65.971,73.705 59.814,75.247 53.315,75.430 L52.937,75.430 L52.946,75.415 C52.601,75.422 52.255,75.430 51.908,75.430 C51.543,75.430 51.180,75.423 50.817,75.414 L50.827,75.430 L50.501,75.430 C48.760,75.380 47.045,75.226 45.357,74.986 C51.574,73.055 57.386,69.874 62.397,65.575 L63.298,64.803 L62.904,63.686 C61.997,61.110 61.111,59.538 60.022,58.580 C58.040,56.867 54.212,54.052 43.798,49.231 L43.798,49.166 L40.579,47.722 C40.341,47.620 40.102,47.518 39.880,47.416 C39.806,46.984 39.752,46.459 39.745,45.842 C41.653,43.673 43.830,40.841 44.854,37.533 L45.892,34.234 C48.959,33.592 50.623,28.153 50.623,25.273 C50.623,24.229 50.435,23.353 50.063,22.671 C49.780,22.151 49.390,21.745 48.926,21.469 C49.796,16.707 49.906,12.790 49.910,12.607 C50.018,7.356 46.723,4.595 43.455,3.325 C50.780,-0.874 59.971,0.195 62.904,5.840 C63.190,6.157 63.463,6.487 63.717,6.837 C70.828,10.139 70.599,25.312 66.784,33.399 C66.568,36.744 63.053,39.711 69.436,48.398 L69.868,48.344 C68.480,48.745 66.715,49.044 64.708,49.261 C65.947,49.971 67.265,50.559 68.666,51.059 L68.677,51.042 C71.383,52.013 74.520,52.660 78.037,53.200 C82.905,53.902 85.557,56.545 87.016,59.350 C83.445,63.502 79.146,67.002 74.322,69.668 ZM48.173,12.572 C48.173,12.572 48.059,16.981 47.041,22.071 C47.043,22.322 47.044,22.573 47.037,22.824 C51.094,22.069 47.631,34.209 44.656,32.374 L43.196,37.014 C42.251,40.065 40.198,42.748 38.015,45.174 C37.957,46.764 38.168,47.953 38.408,48.768 L38.814,48.829 C39.138,48.992 39.517,49.154 39.896,49.315 L42.060,50.286 L42.060,50.341 C53.636,55.628 57.261,58.488 58.883,59.890 C59.803,60.699 60.561,62.264 61.264,64.261 C53.150,71.220 42.600,75.430 31.078,75.430 C19.555,75.430 9.006,71.220 0.946,64.261 C1.595,62.264 2.406,60.699 3.326,59.890 L3.380,59.836 L3.488,59.728 L3.597,59.674 L3.651,59.567 L3.759,59.513 L3.867,59.404 L3.975,59.350 L4.138,59.243 L4.246,59.135 L4.354,59.028 L4.517,58.919 L4.625,58.811 L4.787,58.703 L4.949,58.596 L5.111,58.488 L5.273,58.380 L5.436,58.218 L5.599,58.110 L5.815,58.002 L5.977,57.839 L6.193,57.732 L6.409,57.570 C6.463,57.516 6.518,57.462 6.626,57.462 L6.843,57.301 C6.897,57.247 7.005,57.193 7.059,57.139 L7.329,56.976 L7.545,56.815 L7.816,56.653 C7.925,56.599 7.979,56.545 8.086,56.491 C8.194,56.437 8.249,56.383 8.357,56.329 C8.465,56.276 8.520,56.221 8.628,56.168 L8.952,56.006 C9.060,55.952 9.114,55.898 9.222,55.843 C9.330,55.790 9.439,55.681 9.547,55.628 C9.656,55.574 9.764,55.520 9.872,55.466 L10.196,55.251 C10.305,55.196 10.412,55.142 10.575,55.089 C10.684,55.034 10.792,54.926 10.900,54.873 C11.008,54.818 11.170,54.765 11.278,54.710 C11.386,54.602 11.494,54.548 11.657,54.495 C11.766,54.440 11.928,54.333 12.035,54.279 C12.144,54.225 12.306,54.117 12.414,54.064 C12.577,54.010 12.685,53.902 12.847,53.847 C12.955,53.793 13.118,53.685 13.280,53.631 C13.388,53.577 13.550,53.470 13.713,53.416 C13.821,53.362 13.983,53.254 14.145,53.200 C14.307,53.092 14.415,53.039 14.579,52.930 C14.741,52.876 14.903,52.822 15.065,52.714 C15.227,52.660 15.389,52.552 15.552,52.498 C15.715,52.391 15.877,52.337 16.039,52.229 C16.201,52.175 16.363,52.067 16.525,52.013 C16.743,51.906 16.905,51.851 17.067,51.743 C17.229,51.635 17.445,51.581 17.607,51.474 C17.770,51.419 17.987,51.311 18.148,51.204 C18.527,51.042 18.906,50.879 19.285,50.718 C19.772,50.449 20.258,50.233 20.800,50.017 L20.908,49.963 C21.510,49.662 22.120,49.391 22.749,49.104 L22.747,49.100 L23.234,48.883 L23.450,48.829 L23.752,48.764 C23.970,48.029 24.160,46.985 24.160,45.624 C21.937,43.095 19.678,40.186 18.636,37.068 L17.012,32.374 C14.092,34.209 10.575,22.069 14.687,22.824 C14.679,22.607 14.680,22.391 14.680,22.175 C14.170,19.055 13.986,15.586 14.633,12.302 C14.633,12.302 15.715,3.076 25.668,1.403 C25.668,1.403 35.784,-1.401 39.301,4.156 C39.301,4.156 48.335,4.642 48.173,12.572 Z"/>
</svg>