<svg xmlns="http://www.w3.org/2000/svg" xmlns:xlink="http://www.w3.org/1999/xlink" width="21.291" height="17.537" viewBox="0 0 21.291 17.537">
  <defs>
    <clipPath id="clip-path">
      <rect id="Rectangle_203" data-name="Rectangle 203" width="21.291" height="17.537" fill="#2163ef"/>
    </clipPath>
  </defs>
  <g id="Group_394" data-name="Group 394" transform="translate(0 0)">
    <g id="Group_393" data-name="Group 393" transform="translate(0 0)" clip-path="url(#clip-path)">
      <path id="Path_198" data-name="Path 198" d="M21.211,2.1a8.763,8.763,0,0,1-2.151.614c.347-.058.858-.685,1.062-.939a3.951,3.951,0,0,0,.716-1.3c.019-.037.033-.084,0-.112a.119.119,0,0,0-.114.01,11,11,0,0,1-2.555.977.171.171,0,0,1-.176-.047,2.022,2.022,0,0,0-.223-.228A4.51,4.51,0,0,0,16.528.315a4.3,4.3,0,0,0-1.9-.306,4.544,4.544,0,0,0-1.8.508A4.646,4.646,0,0,0,11.377,1.7a4.476,4.476,0,0,0-.868,1.738,4.705,4.705,0,0,0-.045,1.835c.014.1,0,.116-.089.1A13.646,13.646,0,0,1,1.6.911c-.1-.117-.158-.117-.243.009a4.452,4.452,0,0,0,.759,5.26c.172.163.349.326.54.475A4.479,4.479,0,0,1,.958,6.18C.856,6.115.8,6.152.8,6.268a2.652,2.652,0,0,0,.028.5A4.5,4.5,0,0,0,3.6,10.36a2.658,2.658,0,0,0,.563.172,5.017,5.017,0,0,1-1.662.051c-.121-.023-.167.037-.121.154A4.674,4.674,0,0,0,5.869,13.66c.158.028.316.028.475.065-.01.014-.019.014-.028.029a5.528,5.528,0,0,1-2.384,1.263,8.542,8.542,0,0,1-3.621.464c-.195-.029-.235-.026-.288,0s-.007.08.056.13c.247.163.5.307.754.448a11.984,11.984,0,0,0,2.42.968A12.89,12.89,0,0,0,15.767,14.1c2.565-2.548,3.463-6.062,3.463-9.581,0-.137.163-.213.26-.286a8.439,8.439,0,0,0,1.695-1.771.514.514,0,0,0,.105-.34V2.1c0-.056.007-.039-.08,0" transform="translate(0 0)" fill="#2163ef"/>
      <path id="Path_199" data-name="Path 199" d="M7.925,21.886h0" transform="translate(-1.602 -4.424)" fill="#2163ef" fill-rule="evenodd"/>
      <path id="Path_200" data-name="Path 200" d="M7.884,21.886c-.028,0-.351,0,0,0h0" transform="translate(-1.561 -4.424)" fill="#2163ef" fill-rule="evenodd"/>
      <path id="Path_201" data-name="Path 201" d="M8.823,21.9c0-.036.377,0,0,0,0-.018.046,0,0,0" transform="translate(-1.784 -4.424)" fill="#2163ef" fill-rule="evenodd"/>
      <path id="Path_202" data-name="Path 202" d="M18.24.032a.077.077,0,0,1-.088,0Z" transform="translate(-3.669 -0.007)" fill="#2163ef" fill-rule="evenodd"/>
    </g>
  </g>
</svg>
