<svg xmlns="http://www.w3.org/2000/svg" xmlns:xlink="http://www.w3.org/1999/xlink" width="20.972" height="13.117" viewBox="0 0 20.972 13.117">
  <defs>
    <clipPath id="clip-path">
      <rect id="Rectangle_205" data-name="Rectangle 205" width="20.972" height="13.117" fill="#2163ef"/>
    </clipPath>
  </defs>
  <g id="Group_398" data-name="Group 398" transform="translate(0 0)">
    <g id="Group_397" data-name="Group 397" transform="translate(0 0)" clip-path="url(#clip-path)">
      <path id="Path_204" data-name="Path 204" d="M20.069,0h-19A.979.979,0,0,0,.406.259L9.873,8.067a1.133,1.133,0,0,0,1.39,0L20.729.259A.981.981,0,0,0,20.069,0" transform="translate(-0.082 0)" fill="#2163ef"/>
      <path id="Path_205" data-name="Path 205" d="M11.23,9.654a1.217,1.217,0,0,1-1.489,0L0,1.619V12.461a.984.984,0,0,0,.983.983h19a.985.985,0,0,0,.985-.983V1.619ZM6.047,8.227,1.458,12.6a.41.41,0,0,1-.285.113A.412.412,0,0,1,.889,12L5.477,7.629a.413.413,0,1,1,.57.6M20.1,12.582a.415.415,0,0,1-.584.014L14.926,8.227a.413.413,0,1,1,.568-.6L20.082,12a.415.415,0,0,1,.014.584" transform="translate(0 -0.327)" fill="#2163ef"/>
    </g>
  </g>
</svg>
