<svg xmlns="http://www.w3.org/2000/svg" xmlns:xlink="http://www.w3.org/1999/xlink" width="17.961" height="17.962" viewBox="0 0 17.961 17.962">
  <defs>
    <clipPath id="clip-path">
      <rect id="Rectangle_206" data-name="Rectangle 206" width="17.961" height="17.962" fill="#2163ef"/>
    </clipPath>
  </defs>
  <g id="Group_400" data-name="Group 400" transform="translate(0 0)">
    <g id="Group_399" data-name="Group 399" transform="translate(0 0)" clip-path="url(#clip-path)">
      <path id="Path_206" data-name="Path 206" d="M8.981,0A8.979,8.979,0,0,0,1.435,13.848L.07,16.853a.784.784,0,0,0,.714,1.108.8.8,0,0,0,.207-.028L4.75,16.9A8.98,8.98,0,1,0,8.981,0m0,16.393a7.4,7.4,0,0,1-3.732-1.009.779.779,0,0,0-.395-.107.8.8,0,0,0-.208.028l-2.455.673.855-1.884a.785.785,0,0,0-.078-.783,7.411,7.411,0,1,1,6.013,3.081" transform="translate(0 0)" fill="#2163ef" fill-rule="evenodd"/>
      <path id="Path_207" data-name="Path 207" d="M13.6,11.561a1.536,1.536,0,0,0-1.308-.3c-.34.14-.557.672-.777.943a.326.326,0,0,1-.421.092A5.928,5.928,0,0,1,8.137,9.767a.364.364,0,0,1,.046-.5A1.992,1.992,0,0,0,8.72,8.4a1.906,1.906,0,0,0-.24-1.032,2.442,2.442,0,0,0-.762-1.149,1.045,1.045,0,0,0-1.135.168,2.305,2.305,0,0,0-.8,1.825,2.558,2.558,0,0,0,.073.578,4.776,4.776,0,0,0,.555,1.281,10.353,10.353,0,0,0,.579.882,8.961,8.961,0,0,0,2.515,2.335,7.62,7.62,0,0,0,1.569.746,3.487,3.487,0,0,0,1.825.288,2.208,2.208,0,0,0,1.655-1.231,1.068,1.068,0,0,0,.077-.629c-.094-.432-.68-.69-1.03-.9" transform="translate(-1.169 -1.236)" fill="#2163ef" fill-rule="evenodd"/>
    </g>
  </g>
</svg>
