<svg xmlns="http://www.w3.org/2000/svg" xmlns:xlink="http://www.w3.org/1999/xlink" width="21.644" height="21.645" viewBox="0 0 21.644 21.645">
  <defs>
    <clipPath id="clip-path">
      <rect id="Rectangle_155" data-name="Rectangle 155" width="21.644" height="21.645" transform="translate(0 0)" fill="none"/>
    </clipPath>
  </defs>
  <g id="Group_301" data-name="Group 301" transform="translate(0 0.001)">
    <g id="Group_296" data-name="Group 296" transform="translate(0 -0.001)" clip-path="url(#clip-path)">
      <path id="Path_165" data-name="Path 165" d="M10.823,1.79a8.962,8.962,0,0,1,4.11.993l-1.064.991,2.26.692,2.26.692-.531-2.3-.531-2.3L16.312,1.5a10.819,10.819,0,0,0-14.8,14.833l1.316-1.316a9.029,9.029,0,0,1,8-13.225" transform="translate(0 0.002)" fill="#221f1f"/>
      <path id="Path_166" data-name="Path 166" d="M180.234,300.73a10.819,10.819,0,0,0,9.311-16.333l-1.316,1.316a9.026,9.026,0,0,1-12.113,12.229l1.04-.969-2.26-.692-2.26-.692.531,2.3.531,2.3,1.04-.969a10.756,10.756,0,0,0,5.5,1.5" transform="translate(-169.412 -279.085)" fill="#221f1f"/>
      <path id="Path_167" data-name="Path 167" d="M554.346,292.548a.134.134,0,0,0-.183.027l-3.748,4.8a.521.521,0,0,0,.252.977h.019l3.873,1.393a.133.133,0,0,0,.045.008.134.134,0,0,0,.065-.252l-3.328-1.848,3.042-4.921a.134.134,0,0,0-.038-.181m-1.258,6.379-2.046-.736a.521.521,0,0,0,.141-.283l.018-.029Zm-1.981-1.408-.034-.019a.521.521,0,0,0-.277-.177l2.072-2.652Z" transform="translate(-539.872 -287.06)" fill="#221f1f"/>
    </g>
  </g>
</svg>
