<svg xmlns="http://www.w3.org/2000/svg" xmlns:xlink="http://www.w3.org/1999/xlink" width="24.831" height="21.831" viewBox="0 0 24.831 21.831">
  <defs>
    <clipPath id="clip-path">
      <rect id="Rectangle_154" data-name="Rectangle 154" width="24.831" height="21.831" fill="#2163ef"/>
    </clipPath>
  </defs>
  <g id="Group_294" data-name="Group 294" clip-path="url(#clip-path)">
    <path id="Path_164" data-name="Path 164" d="M24.831,9.73V19.915a1.915,1.915,0,0,1-1.916,1.916H1.941A1.937,1.937,0,0,1,0,19.915V10.461l4.261,3.529.252.152-.151.529V15.6a.7.7,0,0,0,.681.706h1.84a.7.7,0,0,0,.68-.706V14.5h9.681V15.6a.7.7,0,0,0,.68.706h1.84a.7.7,0,0,0,.681-.706V14.067l4.311-3.58.025-.026.05-.05V9.73ZM14.823,4.613a2.392,2.392,0,0,0-2.394-2.194,2.434,2.434,0,0,0-2.42,2.194Zm-7.235,0a4.833,4.833,0,0,1,9.656,0h7.588V8.571l-4.437,3.757-.025.025A.732.732,0,0,0,19.764,12h-1.84a.7.7,0,0,0-.705.681v.455H7.563V12.68A.678.678,0,0,0,6.883,12H5.043a.7.7,0,0,0-.606.353l-.151-.126L0,8.621V4.613ZM20.47,14.671h-.025" transform="translate(0 0)" fill="#221f1f" fill-rule="evenodd"/>
  </g>
</svg>
