<svg id="Group_5454" data-name="Group 5454" xmlns="http://www.w3.org/2000/svg" xmlns:xlink="http://www.w3.org/1999/xlink" width="26.353" height="26.351" viewBox="0 0 26.353 26.351">
  <defs>
    <clipPath id="clip-path">
      <rect id="Rectangle_1786" data-name="Rectangle 1786" width="26.353" height="26.351" fill="none"></rect>
    </clipPath>
  </defs>
  <g id="Group_5342" data-name="Group 5342" transform="translate(0 0)" clip-path="url(#clip-path)">
    <path id="Path_4006" data-name="Path 4006" d="M22.48,3.868a13.122,13.122,0,0,0-18.606,0,13.12,13.12,0,0,0,0,18.616,13.122,13.122,0,0,0,18.606,0,13.118,13.118,0,0,0,0-18.616M20.966,20.96a11.08,11.08,0,1,1,3.2-7.78,10.966,10.966,0,0,1-3.2,7.78" transform="translate(0 0)" fill="#a6a6a6" fill-rule="evenodd"></path>
    <path id="Path_4007" data-name="Path 4007" d="M19.816,12.416H14.482V7.083H12.417v5.333H7.084v2.065h5.333v5.334h2.065V14.482h5.334Z" transform="translate(-0.273 -0.274)" fill="#a6a6a6"></path>
  </g>
</svg>