<svg xmlns="http://www.w3.org/2000/svg" xmlns:xlink="http://www.w3.org/1999/xlink" width="15" height="15" viewBox="0 0 15 15">
  <defs>
    <clipPath id="clip-path">
      <rect id="Rectangle_236" data-name="Rectangle 236" width="14.999" height="15" fill="none"/>
    </clipPath>
  </defs>
  <g id="Group_506" data-name="Group 506" transform="translate(0 0)">
    <g id="Group_505" data-name="Group 505" transform="translate(0 0)" clip-path="url(#clip-path)">
      <path id="Path_393" data-name="Path 393" d="M14.538,11.98c-.157-.089-.3.024-.3.2v4.067c0,.179.141.292.3.207l3.612-1.981a.237.237,0,0,0,.029-.412Z" transform="translate(-8.004 -6.718)"/>
      <path id="Path_394" data-name="Path 394" d="M7.5,15A7.5,7.5,0,1,1,15,7.5,7.508,7.508,0,0,1,7.5,15m0-13.741A6.241,6.241,0,1,0,13.741,7.5,6.248,6.248,0,0,0,7.5,1.259" transform="translate(0 0)"/>
    </g>
  </g>
</svg>
