<svg xmlns="http://www.w3.org/2000/svg" xmlns:xlink="http://www.w3.org/1999/xlink" width="26.353" height="26.351" viewBox="0 0 26.353 26.351">
  <defs>
    <clipPath id="clip-path">
      <rect id="Rectangle_1789" data-name="Rectangle 1789" width="26.353" height="26.351" fill="#d13131"></rect>
    </clipPath>
  </defs>
  <g id="Group_5346" data-name="Group 5346" clip-path="url(#clip-path)">
    <path id="Path_4009" data-name="Path 4009" d="M13.177,2.173A11.025,11.025,0,1,0,24.162,13.18,10.947,10.947,0,0,0,13.177,2.173m-3.6,15.769h0a1.1,1.1,0,0,1-.417-.077.7.7,0,0,1-.359-.224,1,1,0,0,1-.321-.771.9.9,0,0,1,.321-.718l2.9-2.926L8.663,10.21a1.157,1.157,0,0,1-.307-.729,1.363,1.363,0,0,1,.307-.8,1.358,1.358,0,0,1,.814-.324,1.06,1.06,0,0,1,.73.324L13.234,11.7,16.27,8.663a1.012,1.012,0,0,1,.752-.3,1.07,1.07,0,0,1,1.1,1.075,1.068,1.068,0,0,1-.325.749l-3.049,3.041,2.929,2.926A1.073,1.073,0,0,1,18,16.9a1.143,1.143,0,0,1-.324.776.724.724,0,0,1-.329.222,1.62,1.62,0,0,1-.446.071,1.15,1.15,0,0,1-.4-.071.5.5,0,0,1-.348-.222l-2.916-2.9-2.9,2.869a.468.468,0,0,1-.37.224.854.854,0,0,1-.379.077m3.6,8.409h0A13.215,13.215,0,0,1,0,13.18,13.215,13.215,0,0,1,13.177,0a13.04,13.04,0,0,1,9.3,3.868,13.12,13.12,0,0,1,0,18.616,13,13,0,0,1-9.3,3.868" transform="translate(0 0)" fill="#d13131" fill-rule="evenodd"></path>
  </g>
</svg>