<svg xmlns="http://www.w3.org/2000/svg" xmlns:xlink="http://www.w3.org/1999/xlink" width="205" height="44" viewBox="0 0 205 44">
  <defs>
    <clipPath id="clip-path">
      <rect id="Rectangle_117" data-name="Rectangle 117" width="205" height="44" transform="translate(0.333 0)" fill="#3d3d3d"/>
    </clipPath>
  </defs>
  <g id="Group_459" data-name="Group 459" transform="translate(-0.307 -0.453)">
    <g id="Group_198" data-name="Group 198" transform="translate(-0.026 0.453)" clip-path="url(#clip-path)">
      <path id="Path_142" data-name="Path 142" d="M5.633,25.962a.2.2,0,0,0,.07.021c-.088-.042-.139-.058-.07-.021M203.38,17.139l.2-.011.251-.012c.283-.128.292-.3.02-.384l-.233-.093a.232.232,0,0,1-.14-.181.242.242,0,0,1,.181-.144.674.674,0,0,0,.632-.24.186.186,0,0,0-.011-.218.409.409,0,0,0-.281-.043l-.085.019c-.084.076-.17-.09-.191-.369l-.332-.162c-.152-.073-.227-.256-.311-.4-.123-.208.045-.41.362-.37l.16.02c.039-.054-.321-.693-.623-.7s-.944.051-1.072.024a2.741,2.741,0,0,0-.473-.047l-.122.015-.216.026c-.228.036-.415-.287-.415-.391s.523-.22.709-.23.02-.072-.367-.134l-.346-.025c-.409-.031-.732-.55-.558-.854l.161-.282c-.049-.3-.3-.949-.215-1.072s-.047-.3-.3-.385l-.119-.115c-.207-.2-.335.4-.536.009l-.07-.133a3.566,3.566,0,0,0-.518-.277,2.757,2.757,0,0,1,.677-.249c.2-.054.157-1.211-.044-1.638s.393-.5.638-.41.434,0,.42-.2l-.087-.1L200,7.218a.867.867,0,0,1-.343-.458c.009-.054-.136-.083-.324-.063l-.17.025c-.029,0-.049.051-.077.054-.05,0-.135,0-.147-.019-.027-.047-.05-.139-.02-.156l.131-.074c.157-.067.316-.173.309-.213s-.079-.069-.161-.068l-.075,0-.07,0c-.072-.012-.2-.331-.292-.707l-.062-.344-.03-.163a1.34,1.34,0,0,1,.19-.651l-.293-.11-.006,0a.25.25,0,0,0-.119-.308l-.726-.251-.044-.151c-.1-.337-.614-.359-.667-.531l-.109-.348a6.7,6.7,0,0,0-1.547-.343.545.545,0,0,1-.564-.243c-.006-.076-.262-.062-.338-.041s-.8-.272-1.084-.275a6.042,6.042,0,0,0-.749,0c-.091.026-.62.225-.6.087s-.188-.113-.291-.079-.539-.084-.682-.063a5.626,5.626,0,0,1-1.146-.167c-.237-.071-.732-.2-1.1-.293l-.166-.3c-.052-.1-.326-.142-.506-.16-.113-.01-.273.137-.357.11-.293-.1.162-.217.033-.267-.266-.105-.677-.284-.831-.2a.88.88,0,0,1-.808-.046,2.556,2.556,0,0,0-1.534-.118l-.433.123c-.208-.18-.41-.087-.451.206l-.465-.275-.25-.147a2.33,2.33,0,0,0-1.105.12,1.043,1.043,0,0,1-.632-.038,1.27,1.27,0,0,0-.6-.113c-.092.015-.587-.12-.5.04s-.347.056-.456,0-.53-.227-.63-.165a.8.8,0,0,1-.264.1,2.7,2.7,0,0,0-.452.3l-.364-.12-.312-.1c-.322.188-.828.577-.968.509a2.17,2.17,0,0,0-.793-.1L175.7.484l-.053-.024c-.115.056-.821-.152-1.075-.119a2.529,2.529,0,0,0-.567.115c-.033.031.038.246.083.332s-.231.053-.613-.073l-.042.045-.272.285c-.393-.035-.8-.041-.844-.048a1.541,1.541,0,0,1-.384-.245L171.725.74c-.288-.015-.715-.1-.84.015l-.3.267c-.277-.118-.3-.021-.2.066s-.523-.036-.605-.1-.225-.159-.257-.173-.423.166-.582.137a6.893,6.893,0,0,1-.756-.111c-.117-.051-.6-.139-.617-.01s-.357.25-.747.27l-.2-.129-.387-.246a3.767,3.767,0,0,1-.946.147L165.2.913l-.17.074a3.019,3.019,0,0,0-.715.156l-.266-.041-.271-.042a1.825,1.825,0,0,1-.843-.224c-.113-.1-.54.071-.648.155s-.343-.027-.417-.118-.311-.036-.529.12l-.16-.012L160.97.966a3.444,3.444,0,0,0-.93.057l-.261.051-.068.014a3.692,3.692,0,0,0-.556-.1,2.889,2.889,0,0,1-.661-.056L158.367,1c-.436.238-.651.007-.908-.189l-.032-.024c-.064,0-.176.232-.2.324s-.4-.048-.551-.021-.75.191-.944.222a1.989,1.989,0,0,1-.843-.136l-.253-.014-.2-.012a.59.59,0,0,0-.475.327c-.021.1-.352-.244-.417-.225a3.8,3.8,0,0,1-1.05.151,3.376,3.376,0,0,0-.793-.116,1.31,1.31,0,0,1-.373.124,1.665,1.665,0,0,1-.489-.161l-.256.151-.19.113c-.331.02-.755.053-.944.074l-.145-.048-.089-.03c-.059-.17-.214-.071-.24-.012s-.283-.129-.4-.173-.965,0-1.251-.025-.792.128-.922.1a3.623,3.623,0,0,0-.793.116,3.164,3.164,0,0,1-.855.036c-.152-.042-.8-.2-.809-.061s-.055.224-.111.188l-.051-.032-.506-.318a2.375,2.375,0,0,1-.956.369l0-.022c-.037-.271-.136-.344-.473-.183l-.108.052a1.181,1.181,0,0,0-.73.053l-.231-.007c-.337-.009-.665.051-1.016.036l-.344-.016c-.415.009-1.18.316-1.4.316a6.765,6.765,0,0,1-1.143-.246.417.417,0,0,0-.454.234c-.017.085-.158-.019-.314-.232l-.364.18-.193.1a5.5,5.5,0,0,0-.749.2,4.586,4.586,0,0,1-.849-.042c-.19-.01-.731-.234-.877-.155a5.941,5.941,0,0,1-.938.215c-.184.036-.527.114-.763.173l-.2-.194-.122-.12a.886.886,0,0,0-.3.487l-.155-.171-.259-.287a1.525,1.525,0,0,1-.911.215l-.242-.011c-.287-.011-.577,0-.866,0h-.579c-.636,0-1.43,0-1.765-.012l-.29.033c-.286.032.35.232-.043.319l-.372.083a.406.406,0,0,0-.57-.12c-.07.074-.593.209-.632.137a1.656,1.656,0,0,0-.738-.277c-.193,0-.9.18-1.073.067a.259.259,0,0,0-.378.124c-.018.094-.231-.016-.294-.071a1.868,1.868,0,0,0-.57-.2l.009.29V2.68c-.059.047-.714-.253-.988-.213s-.444-.035-.377-.166l-.014,0-.419-.167c-.019.254-.249.3-.332.245s-.337.033-.409.085a.623.623,0,0,1-.348.093.632.632,0,0,1-.24-.354l-.269.111c-.019.007.106.206.138.32l.01.038c-.056.05-.326-.059-.412-.116s-.594.137-.708.014a.928.928,0,0,0-.429-.263c-.075.007-.511.04-.97.072l-.408.059-.234.033c-.25-.021-.687-.077-.971-.125l-.287.074c-.168.042-.412-.108-.589-.073l-.32.064c-.289-.072-.972.1-1.131.038a3.213,3.213,0,0,0-.492-.094,1.51,1.51,0,0,0-.528.076l-.137.009c-.287.019-.632-.3-.861.083l-.016.027a1.5,1.5,0,0,1-.355-.315c-.071-.085-.4.011-.477.085s-.537.058-.551-.035-.217-.02-.292.04-.242.017-.37-.093l-.136-.078-.074-.042a.9.9,0,0,0-.5.245l-.3-.079c-.145-.038-.372.131-.532.1l-.153-.027c-.147-.155-.5.047-.558.056s-.605-.391-.84-.3a4.546,4.546,0,0,1-1.1.167c-.186-.007-.988.378-1.277.3a6.949,6.949,0,0,0-1.5-.11,3.173,3.173,0,0,1-.541.084,4.4,4.4,0,0,1-.566-.177l-.31.04a6.909,6.909,0,0,1-1.25-.068.559.559,0,0,0-.2.025c-.01.367-.161.144-.342.073l-.172-.067a1.126,1.126,0,0,0-.613.115,1.148,1.148,0,0,1-.621-.04l-.27-.017-.32-.019a6.741,6.741,0,0,0-1.149-.1c-.109.066-.459.08-.541.135a.869.869,0,0,1-.406.1l-.114-.031-.283-.078a1.911,1.911,0,0,0-1.006,0l-.244-.175c-.024-.017-.171.1-.255.1l-.144-.009a1.084,1.084,0,0,0-.612.1.639.639,0,0,1-.2.12c-.017,0-.218-.154-.289-.209s-.55.16-.744.118a5.29,5.29,0,0,0-1.111-.192c-.193.038-.425.073-.452.079s-.543-.239-.578-.078-.042.105-.017-.124l-.358.181-.47.239a.472.472,0,0,0-.236-.557l-.146.121-.031.025a2.394,2.394,0,0,1-1.123.1.9.9,0,0,0-.352-.109l-.042.032-.368.281a2.83,2.83,0,0,1-.488-.316c-.035-.048-.233.014-.44.137l-.158.094-.691-.2-.23-.105a1.369,1.369,0,0,0-.7.222c-.056.064-.2-.068-.229-.121s-.336.025-.455,0a1.647,1.647,0,0,0-.631-.009c-.161.059-.788.35-.769.2s-.281-.1-.443-.1a8.165,8.165,0,0,1-1.486-.406l-.5.536-.006.006c-.179-.092-.7.168-.9.1A11.609,11.609,0,0,0,74.5,2.484a4.6,4.6,0,0,0-1.28.061c-.2.083-.413.171-.427.171A3.917,3.917,0,0,1,72.49,2.4c-.072-.083-.348.016-.419.069a1.523,1.523,0,0,1-.793-.142l-.341.265-.058.046a4.988,4.988,0,0,0-.91-.118l-.225-.1c-.258-.115-.349.342-.628.063-.065-.066-.387-.016-.565.036l-.341.1c-.111-.187-.371-.331-.442-.3s-.387.155-.7.276l-.28-.01-.358-.014a4.846,4.846,0,0,0-.914-.214h0l.006.321a1.3,1.3,0,0,0-.7-.209.668.668,0,0,1-.385,0l-.067.011c-.113.019-.21.09-.323.113a1.761,1.761,0,0,1-.324,0h-.145c-.159,0-.591-.048-.709-.062s-.428-.064-.689-.11l-.094.072-.289.222c-.187-.177-.721-.225-.738-.136s-.418.01-.582.009a4.534,4.534,0,0,0-.646.053l-.059-.054-.293-.271c-.393.064-1.166.145-1.719.178l-.5.014c-.171,0-.459-.115-.5-.072l-.231.258c-.2-.142-1.035-.028-1.3-.048A9.652,9.652,0,0,0,54,2.682l-.305-.239-.037-.03a.678.678,0,0,0-.331.249c-.041.067-.181-.053-.216-.111a2.323,2.323,0,0,0-1.006.192l-.429-.058-.326-.045c-.275.063-.941-.141-1.033,0s-.218.017-.24-.087-.183.045-.222.109-.606-.215-.73-.051a.343.343,0,0,1-.42.094,2.988,2.988,0,0,0-.831-.2l-.214.12a1.8,1.8,0,0,1-1.326.118l-.465-.119a8.244,8.244,0,0,0-1.183.135c-.044.089-.228.113-.284.094s-.166.109-.191.163-.285-.064-.37-.121a1.162,1.162,0,0,0-.709.125L43.049,2.9c-.195-.272-.4.156-.581-.061l-.081-.1a4.106,4.106,0,0,0-.893.229.736.736,0,0,1-.508-.123c-.086-.067-.322.058-.376.118s-.44.1-.458.027-.118-.1-.22-.059l-.1,0-.325.009a9.43,9.43,0,0,0-1.161.084,7.3,7.3,0,0,0-.718.249h-.4a2.821,2.821,0,0,1-.657-.2l-.238.171-.1.072a11.662,11.662,0,0,0-1.693,0c-.314.056-.766.128-.841.126s-1.022-.425-1.389-.331a7.287,7.287,0,0,0-.828.253L31.4,3.4c-.172.066-.454.214-.506.176l-.513-.38c.011.3-.12.427-.195.357s-.56-.057-.569.043-.338.036-.481.026a3.943,3.943,0,0,0-.694.053L28.361,3.6,27.9,3.2c-.01.32-.148.49-.21.446s-.272.124-.335.206-.317-.072-.564-.342L26.46,3.8l-.046.041a5.768,5.768,0,0,1-.776.163l-.32.073-.042.009a.639.639,0,0,1-.153-.2c-.018-.041-.078-.031-.133.022l-.045.051-.04.047c-.04.057-.226-.05-.271-.094s-.488.131-.667.1-.776.016-.946,0a1.737,1.737,0,0,0-.406.006l-.053.01-.164.032c-.159.064-.5.2-.757.312l-.124-.157L21.268,3.9a2.037,2.037,0,0,1-1.153.09l.015.411v.016c-.039.017-.754-.25-.963-.1a1.6,1.6,0,0,1-.56.285c-.056-.01-.41-.105-.788-.212l-.089.083c-.236.219-.543-.1-.761.136-.068.072-.431.293-.672.02-.008-.009-.236.061-.237.1-.011.347-.142.135-.341.089l-.194-.045A15.326,15.326,0,0,0,13.92,4.7c-.308.067-.614.144-.682.171l0,.03-.038.4a4.915,4.915,0,0,0-.81-.266l-.03.146-.008.041c-.058.038-.393-.087-.511-.046a1.441,1.441,0,0,1-.627.063c-.149-.048-.446.263-.509.39s-.332.066-.39.025a2.619,2.619,0,0,0-.651-.133c-.153,0-.414.3-.543.239a1.6,1.6,0,0,0-.656-.088l-.125.151-.128.156c-.149.224-.545.047-.679-.031s-.813.092-1,.019a1.458,1.458,0,0,0-.6-.1l-.069.063-.125.116a.344.344,0,0,1-.532.046C5.15,6,4.987,6.15,4.959,6.2s-.319.012-.359.088a.206.206,0,0,1-.227.1l-.078-.01c-.17-.02-.34-.035-.511-.041H3.768c-.021.062.156.165.227.185s-.16.232-.514.473l-.131-.215L3.1,6.358a1.366,1.366,0,0,0-.749.5c-.022.092-.228.026-.458-.145l-.214.243C1.433,7.241,1.182,7.2.9,7l-.027-.02c-.109.035.114.48-.038.6a1.122,1.122,0,0,1-.6.147c-.084-.017-.1.04-.036.128l.011.083c.01.073-.057.15-.076.225l-.075.3A.963.963,0,0,1,.319,9L0,9.165l.012.043c.091.323.266-.026.292,0,.092.1.4.1.231.346l-.187.27c.285-.1.521-.019.526.191l-.008.111c-.024.3-.033.56.426.707l.183.059a1.317,1.317,0,0,1,.177.744l.086.168.022.042c.071.031.481.329.91.664L2.6,13.32,2.6,13.4c.022.109.336.206.7.214l.316-.021.166-.011c.3-.1.326.041.068.3l-.152.175-.028.032a.173.173,0,0,0,.205.082l.078-.015.1-.017a.238.238,0,0,1,.25.171l-.02.093-.022.1c-.074.1-.3.532-.231.659a1.762,1.762,0,0,0,.171.269l.177.141c.042.033.32-.248.483-.228s.175.534.027,1.144L6,16.526a8.733,8.733,0,0,0-1.531.445l-.039.126c-.252,0-.888-.2-.976-.082s.088.41.172.476a1.889,1.889,0,0,0,.789-.077,5.31,5.31,0,0,0,.517-.189l.09-.061.06-.041c.045-.063.218,0,.27.043a2.533,2.533,0,0,1,.3.433l-.18.194-.017.017c.13.1-.069.342.141.4a3.332,3.332,0,0,0,.74-.007.084.084,0,0,0-.006.072c.062.159.09.266.319.232l.51-.079c.488.17-.574.348-.489.369a3.882,3.882,0,0,1,.749,0c.136.069-.18.291-.7.493l.052.521a.6.6,0,0,1-.181.05l-.331.057c-.092.228.516.69.637.722a1.177,1.177,0,0,0,.424-.007c.057-.019.076.053.045.16l-.034.1-.033.092c-.041.1.1.1.3,0l.162-.074.07-.032c.149.062.223.218.2.258a1.752,1.752,0,0,1-.977.133c-.234-.118-.454-.136-.488-.04l.019.072.062.232a1.3,1.3,0,0,1-.011.876l.164.206.073.092a1.211,1.211,0,0,0,.612.17l-.012.276-.005.124c.23.146.148.334.073.354s.8.628.715.843.257.552.415.615.626.385.4.386-.678-.035-.824-.026a4.492,4.492,0,0,1-.8.131,2.078,2.078,0,0,0-.423-.071l0,.011c-.082.518-.374.194-.626.108l-.06-.021a.151.151,0,0,0-.068.218.873.873,0,0,1-.568.166c.146.069.392.212.379.311-.021.157-.271.114-.318.078s-.346-.251-.409-.194a2.356,2.356,0,0,1-.289.223,3.489,3.489,0,0,1-.633.088c-.148,0-.354.24-.437.269s-.273.113-.423.186l-.025.087c-.109.393,1.5.79,1.449,1.189l-.017.131c.094.156-.053.36-.326.453l-.117-.321c-.047-.13-.288-.328-.4-.313l-.571.076c-.47-.246-1.482.211-1.857.319s-.408.222-.072.251l.047.087a.485.485,0,0,0,.389.3c.191.048.134.367-.061.472-.08.043-.22.04-.27.093-.094.1-.2.234-.187.342l.01.066c.224.059.246.137.048.172l-.047.068c-.166.243-.331-.16-.472.016-.127.157-.264.31-.38.471-.048.066-.044.154-.082.227l-.12.223c.228.264.552.407.719.321l.146-.1.137-.089c.236-.056.238.646-.085.769a.94.94,0,0,0-.525.7,3.212,3.212,0,0,0,.345.793l-.038.308-.014.111c-.065.133.077.159.318.056l.1.037.195.071a2.015,2.015,0,0,0-.276.487l.107.13.21.255a1.053,1.053,0,0,1,.4-.261,7.345,7.345,0,0,1-.189.986c-.067.266-.109.937.066,1.015a1.131,1.131,0,0,0,.676.033l.184-.019.159-.016c.217.031-.02.6-.217.753s-.472.354-.612.457l.138.114c.128.106.158.176-.011.241a1.748,1.748,0,0,1-.47.133c-.35.035-.075.14-.087.228-.025.167-.242.315.2.293a2.425,2.425,0,0,0,.811-.15.378.378,0,0,1,.281.015l.084.074a.3.3,0,0,0,.281.147,2.452,2.452,0,0,1,.588.136,3.648,3.648,0,0,1,.643.267,1.981,1.981,0,0,0,.591.3l.255-.116c.036-.017.211.063.22.111l.088.437c.443-.031,1.458-.085,1.7-.071s.557.007.623.025.685.089,1.376.16l.391.463.011.012c.075-.017.914.083.986.251s.557.087.74.068.883.244,1.1.234a6.917,6.917,0,0,1,1.183.051.657.657,0,0,0,.458.014l.059-.014.315-.068c-.047.162.071.267.263.234l.177-.024a.254.254,0,0,1,.071.139l.011.1c0,.214.321,0,.4-.093s.385-.05.482-.006,0,.152-.21.244l-.007.078c-.022.284.287.159.466.171.049,0,.109-.107.168-.162l.048-.046c.059-.046.421.15.521.054s.42.053.5.145.891-.172,1.05-.072a2.174,2.174,0,0,0,.565.243l.081-.042.14-.073c.113-.128.723.019.931.007s.526-.068.616-.057.412.024.715.027l.217-.087c.409-.163.415.327.745.24l.031-.009c.032-.014.533-.274.508-.118s.053.131.093.071.31.063.386-.009.4-.359.526-.327a1.071,1.071,0,0,1,.408.316c.054.08.286-.074.348-.149s.231.12.375.435l.2-.264c.3-.4.433-.316.722-.063a.321.321,0,0,0,.218.046c.264-.244.426,0,.622.071.15.057.3.119.453.167l.3.093a5.427,5.427,0,0,0,.748-.147c.065-.035.37-.136.44-.083s.285-.045.346-.1a.418.418,0,0,1,.3-.057l.077.046.114.067c.112.1.424.014.511-.051s.231.042.257.1a5.878,5.878,0,0,0,.927-.045c.25,0,.676.021.777,0s.6-.139,1.116-.251l.287.128.39.173c.391-.051,1.391.134,1.715.053a9.881,9.881,0,0,1,1.363-.24,9.011,9.011,0,0,1,1.022.051l.278-.066.4-.094a1.106,1.106,0,0,0,1.063-.019,1.97,1.97,0,0,1,.888-.074c.178.014.538-.035.681-.009a3.664,3.664,0,0,0,.966.142,5.049,5.049,0,0,1,.73-.141l.238.11.19.088a7.857,7.857,0,0,1,1.112-.188l.224.019c.177.015.255.214.543.126.367-.111.539.052.413.331l-.043.1c-.09.1.669.389.771.307s-.121-.3-.243-.365-.118-.123.009-.135l.034-.033c.1-.094.149-.263.262-.29s.286.118.431.116c.336,0,.594.009.693.334l.04.133c.223.109.627.282.9.384l.032.183.018.1c.036.111.189.026.339-.189l.229-.167c.256-.186.675-.215.8-.561.073-.193.456-.514.584.051l.008.037c.146.021.579.2.582.3a.585.585,0,0,1-.178.343,3.292,3.292,0,0,1-.674.15l-.14-.279-.026-.053a.64.64,0,0,0-.387.113c-.063.048.194.2.3.241a3.831,3.831,0,0,1,.389.175c.049.032.261.282.36.235a2.489,2.489,0,0,0,.531-.523l.4.014a5.916,5.916,0,0,0,1.688-.29c.034-.009.13.067.151.116l.016.038a1.482,1.482,0,0,1-.468.187c-.108.019-.686.187-.686.334s-.4.306-.538.32a.406.406,0,0,0-.245.083c0,.016.559.028.763.028a2.073,2.073,0,0,0,.84-.457c.137-.134.357.062.388.15s-.131.187-.36.222l.132.22.007.012a1.558,1.558,0,0,1,.648-.036c.068.036.156-.13.195-.373h.042l.245-.011c.3.042.554-.014.56-.124l-.016-.105-.016-.1c-.047-.11-.173-.453-.059-.482s.634.27.813.166.182.028.127.108-.526.307-.425.4a4.635,4.635,0,0,1,.376.391.268.268,0,0,0,.226.072c.041-.014.069-.615.173-.817a1.048,1.048,0,0,0,.143-.54l0-.072,0-.116c.083-.126.378-.384.437-.306s.223.313.364.524l.225.151.093.063c.062.136.409.353.351.435s-.371.456-.467.581.526-.052.649-.246a1.836,1.836,0,0,1,.689-.563l.134.089c.264.173.433.152.61-.04l.142-.156c.237-.007.448-.591.448-.817s.323-.353.427-.334a1.287,1.287,0,0,1,.49.364l-.289.212c-.152.113-.151.342-.276.49l-.055.066a.61.61,0,0,0-.466.4l-.1.191c-.025.048-.181.087-.269.077l-.181-.021a1.831,1.831,0,0,1-.532-.228l-.121-.025-.131-.026c-.164-.019-.454.22-.449.332s-.008.256-.005.316.073.082.157.051l.078,0,.365-.017c.407-.024.944.007,1.04-.007s.34-.346.392-.451.292-.665.448-.541.323-.16.339-.315.089-.241.164-.192l.008.025c.075.209-.159.749.537.3.014-.009.3.149.307.237l.057.655a3.165,3.165,0,0,0,.683.428l.122-.014.1-.011a.216.216,0,0,0,.038-.263c-.035-.026-.619-.146-.537-.31s.377.272.649.258,1.14-.009,1.306-.189.333-.312.372-.291l.025.019c.172.123-.152.458.259.438.149-.007.312-.238.408-.39l.078-.124c0-.135.546-.16.73-.13s.1.441-.09.461-.518.035-.732.035l.059.2.018.061a3.175,3.175,0,0,0,.575.08c.077-.006.577-.244.7-.131a1.576,1.576,0,0,0,.386.275.184.184,0,0,0,.17-.078l.006-.052.007-.058c-.018-.063.361-.3.529-.372s.407.062.53.3l.193.062.2.062a3.113,3.113,0,0,1,1.072-.085c.142.042.411.118.465.137a9.326,9.326,0,0,1,1.1-.016,4.355,4.355,0,0,0,.99.079l0-.407,0-.137c.164-.171.515.063.591.194s.663.048.875-.057a.488.488,0,0,1,.6.124l.12.088.1.074c.151.064.307-.357.319-.529s.2-.089.225-.01.337.328.185.376.1.144.563.214l.338.05.05.007c.053,0,.354-.036.667-.077l.281-.038c.407-.053.845.124,1.232-.139a.212.212,0,0,1,.348.16c.016.193.11.087.249.054l.179-.042a.5.5,0,0,0,.483-.3c.025-.119.388-.129.806-.022l.036.379a.618.618,0,0,0,.348.03l.15-.068a.483.483,0,0,1,.571.046c.086.1.367-.1.427-.177s.375-.05.7.064l.2.134.348.237a.955.955,0,0,1,.855-.2l.206-.024c.237-.026.549-.289.663-.234l.416.2c.136-.227.274-.312.286-.272a3.879,3.879,0,0,0,.892.211,5.826,5.826,0,0,0,.846-.014,2.19,2.19,0,0,1,.565-.019c.087.037.349.012.48.037a4.774,4.774,0,0,0,1.168.23,1.327,1.327,0,0,0,.57-.223l.053-.059.1-.111c.187-.2.339.1.489.1s.669,0,1.151-.01l.342.093a2.76,2.76,0,0,0,1.111.069l.081-.01c.079-.035.561.08.705.012s.65.058.8,0,.91.077,1.167.059a5.76,5.76,0,0,0,.8-.115h.174l.216,0c.249.05.456-.05.461-.218l-.012-.111-.009-.088c-.072-.082.13-.15.225-.15s.167.251.146.338.151.243.382.345l.251-.045c.06-.01.1-.076.155-.115.013-.009,1-.212,1.011-.206l.412.253a11.077,11.077,0,0,1,1.863-.142,6.455,6.455,0,0,0,.768.045c.075-.01.554-.181.7-.116s.5-.006.582.036a4.431,4.431,0,0,0,.754.178l.131-.1.476-.358a13.517,13.517,0,0,0,2.163.453c.337-.035.528-.374.609-.443s.7.411.915.394,1.193-.106,1.495-.135a2.938,2.938,0,0,1,.585-.025c.019.016.122.347.235.272a2.55,2.55,0,0,1,.658-.222,1.739,1.739,0,0,1,.662.173l.293-.182c.152-.094.546.077.832.078h.183a1.916,1.916,0,0,1,.749-.062.486.486,0,0,0,.285.026c.031-.025-.008-.083-.087-.126v-.04c0-.043.111-.128.132-.12.123.041.273.17.339.146.142-.053.225-.213.4-.028.016.017.2-.1.293-.084l.207.036a8.746,8.746,0,0,1,.916.094,1.881,1.881,0,0,0,.768.087c.136-.026.562.124.676.108s.337-.064.494-.1l.188.067.359.13c.058-.24.148-.209.164-.121s.319.027.413-.015a.958.958,0,0,1,.537.047l.176-.156.153-.135a.309.309,0,0,1,.459.093c.017.082.508.22.672.2s.619-.328.772-.254a1.332,1.332,0,0,0,.751.01l.22.165.368.274c.315-.2,1.074-.168,1.226-.25a2.109,2.109,0,0,1,.744-.211c.125.026,1.071.17,1.4.175a2.865,2.865,0,0,0,.7-.037c.038-.03.371-.208.443-.114s.43.02.8-.166l.216.066.7.212a14.026,14.026,0,0,1,2.035-.061.7.7,0,0,0,.465-.369c.02-.089.444.128.588.229s.58-.037.682-.109a.433.433,0,0,1,.387-.038l.078.048c.493.307.505.3.972.047.164-.092.438-.135.5-.25l.07-.14a.457.457,0,0,1,.42.083c.038.077.2.068.26.037s.145.209.157.3.43.161.583.165a5.138,5.138,0,0,0,.776.015c.124-.035.586.048.725-.033a1.658,1.658,0,0,1,.661-.151c.12.021.54.11.657.15a.928.928,0,0,0,.58-.121l.259.125a.97.97,0,0,0,.8.021l.263-.1a1.692,1.692,0,0,1,.95.194c.092.093.527-.113.639-.2s.6.038.78.125a.473.473,0,0,0,.565-.258l.229.069.393.118c.415-.054.856-.125.921-.113a9.242,9.242,0,0,0,1.725.233,6.5,6.5,0,0,1,1.681-.151.607.607,0,0,0,.693-.078l.059.021.394.137a7.462,7.462,0,0,1,1.531-.145l.275.161.376.219a5.779,5.779,0,0,1,1.324-.224c.221-.025.9-.141.981-.038s.332.016.433.016.921.064,1.2.084.662.045.792.033.465.076.572.063a4.125,4.125,0,0,1,.977-.26c.238.042,1.036,0,1.26.028a6.462,6.462,0,0,0,1.017.083c.171-.031.815.05,1.053.021s.743-.048.858-.045.671.3.68.139.084-.154.11-.1.737-.079,1.012-.072a3.6,3.6,0,0,0,.807-.025c.119-.05.535.062.659.045s.549-.11.945-.209l.293.068.442.1a8.7,8.7,0,0,1,1.4-.1l.222-.1.31-.136a1.529,1.529,0,0,0,.932.073l.264-.031.28-.033a4.159,4.159,0,0,1,1.012.109l.268-.067.263-.066a2.006,2.006,0,0,0,1.035-.188l.292.175.065.04c.184-.074,1,.131,1.2-.01s.576-.229.615-.172.532-.071.746-.092.688-.08,1.051-.131l.356.077.208.046c.264-.078.836-.291.927-.22s1.022-.15,1.372-.149a9.924,9.924,0,0,0,1.141-.108c.137-.022.691.114.825.05a2.271,2.271,0,0,1,.864-.064l.264-.187.028-.02a1.452,1.452,0,0,0,.762-.227l.066.1c.189.293.454-.251.587.063.005.011.449-.124.483-.083l.253.3a2.829,2.829,0,0,1,.858-.5h.277l.543,0a11.893,11.893,0,0,0,1.589-.14l.271-.033.264-.031c.282-.067,1.94-.163,2.45-.292a4.92,4.92,0,0,1,1.389-.172l.216-.084.181-.071a3.244,3.244,0,0,1,.668-.149,2.76,2.76,0,0,0,.543-.218.8.8,0,0,1,.281-.1c.027,0,.191.041.364.082l-.089-.129-.311-.452a3.781,3.781,0,0,1-.661-.906c.014-.011.312-.178.663-.372l-.415-.462-.168-.187c.079-.182.187-.459.242-.617l-.169-.129-.141-.108c-.023-.161-.064-.447-.091-.637l.014-.131.034-.319c-.264-.015.027-.2.122-.338a5.71,5.71,0,0,1,.609-.682l-.371-.161c-.48-.207-.56-.384-.222-.726l.124-.125a1.167,1.167,0,0,0-.34-.7c-.112-.087-.16-.193-.138-.209s.081-.146.148-.16.055-.233.109-.287a5.338,5.338,0,0,0,.612-.427c.1-.128.118-.279.047-.337l-.056,0a.532.532,0,0,1-.5-.357l-.1-.219a.688.688,0,0,1,.5-.362c.1.007.343-.385.4-.394a.512.512,0,0,1,.3.159c.039.069.537-.063.719-.136s.014-.188-.089-.172-.651.157-.632.025-.053-.217-.091-.213-.376.163-.482.1-.347-.249-.412-.3.3-.114.434-.085a1.91,1.91,0,0,0,.612,0,.988.988,0,0,1,.551.105c.091.074.094-.025.007-.219l-.1-.152-.053-.078c.008-.114.545-.284.659-.4s-.047-.447-.126-.511-.087-.274-.017-.469l.092-.167.173-.317c-.443-.156-.456-.258-.03-.225l.031.071.077.177a.346.346,0,0,0,.385-.187l-.133-.111c-.023-.019.059-.114.094-.173.126-.217.031-.3-.266-.3h-.112a.18.18,0,0,1-.069-.256,4.185,4.185,0,0,0,.314-.383l-.094-.151c-.229-.367-.537-.561-.743-.515l-.06.014c-.07.069-.287-.165-.339-.26s.272-.388.4-.464-.3-.182-.448-.194-.084-.272-.028-.349a.413.413,0,0,1,.259-.152l.02.015.159.107a.6.6,0,0,0,.515.062c.056-.045-.1-.322-.216-.568a.588.588,0,0,0-.6-.355l-.08-.114-.189-.272c.294-.168.32-.394.24-.427a1.181,1.181,0,0,0-.617.183l-.215-.26-.014-.017c-.033-.01-.075.079-.093.2l-.067.085-.1.131a.784.784,0,0,1-.632.058c-.092-.069.069-.35.356-.623l.045-.24c.04-.208-.2-.446-.3-.674l-.015-.035c.064-.074.487.249.668.354a.736.736,0,0,0,.593-.012,1.125,1.125,0,0,1,.622.059c.119.068.17-.038.115-.238l-.035-.173-.043-.213a3.108,3.108,0,0,1-.8-.1l-.008-.069-.037-.349a.291.291,0,0,1-.48-.045l-.058.006c-.355.038-.253-.211-.376-.308l-.058-.047c-.131,0-.682-.067-.705-.2a1.229,1.229,0,0,1,.148-.54c.056-.092.513.13.693.162a9.692,9.692,0,0,1,1.265.071,4.7,4.7,0,0,0,1.464.281,3.745,3.745,0,0,1,1.137-.11,3.442,3.442,0,0,0,.565.165l.02-.028c.156-.224.328.028.468-.02l.165-.057c.131-.073-.033-.341-.132-.42s-.247-.526-.08-.594-.025-.916-.13-1.176-.146-.741.016-.752a5.963,5.963,0,0,0,.8-.146l.063-.224.044-.152c0-.23.234-.306.526-.167M3.235,32.474c-.126.144-.259.385-.409.4-.416.027-.1-.319-.267-.427-.207-.13-.106-.2.025-.307.167-.139.212.01.314.051l.114.046c.135.028.251.12.259.2Zm2.807-3.739c-.166-.036-.611-.4-.49-.6s.261-.238.31-.087l-.014.105c-.028.224.048.354.365.373l.04,0c.051.15-.044.243-.211.207M54.519,42.271a3.3,3.3,0,0,0-.815-.341c-.17,0,.063-.088.515-.192l.375.279.047.036a.319.319,0,0,1,.415.27c0,.128-.4.02-.537-.052m2.812-.245a3.539,3.539,0,0,0-.905.106c-.121.067-.619.327-.726.2s.032-.3.306-.383l.223-.1.236-.1a2.965,2.965,0,0,0,.782.067c.136-.037.7-.149.794-.022s-.5.229-.71.228m5.874-.17-.1.1a.3.3,0,0,1-.168.068l-.305-.229a1.731,1.731,0,0,1-1.04-.01c-.114-.084-.167-.213-.152-.235a.88.88,0,0,1,.385.069c.2.061,1.081-.13,1.275-.1s.244.182.109.337m4.323,1.694c-.173.014-.1-.5-.115-.686s.011-.165.051.052.237.62.064.634m7.728-.16-.04.072a1.087,1.087,0,0,1-.71-.2l-.265-.121-.214-.1c-.159-.3-.209-.531-.111-.515a1.33,1.33,0,0,1,.491.421l.18.079.159.071c.288-.031.54.061.561.2Zm27.726-.884c-.194.046-.583.23-.687.177s-.125-.208-.046-.347l-.077-.141-.018-.033a1.169,1.169,0,0,1,.587-.121c.276-.006.434.42.24.466m35.956-.014c-.136.054-.632-.258-.7-.442s.252-.266.311-.194.348.3.45.385.073.2-.064.251m56.9-22c-.177-.057-.7-.358-.989-.5l.236-.263.326-.363c.181.284.542.827.644.977s.005.218-.217.149m4.171-.071-.008.1-.017.215c-.192-.016-.85-.253-.9-.466s.026-.212.172,0l.2.072.136.048c.387-.185.574-.171.415.03m4.619-.388-.153-.182-.208-.245c-.3-.015-.357.093-.123.24l-.491.009-.2,0c-.265-.068-.378.072-.251.311l.135.175a.487.487,0,0,0,.319.185l.572-.1c.475.275.782.431.684.346s.124-.43.218-.453-.13-.156-.5-.292" transform="translate(-0.022 -0.262)" fill="#3d3d3d"/>
    </g>
  </g>
</svg>
