<svg xmlns="http://www.w3.org/2000/svg" xmlns:xlink="http://www.w3.org/1999/xlink" width="214" height="65" viewBox="0 0 214 65">
  <defs>
    <clipPath id="clip-path">
      <rect id="Rectangle_117" data-name="Rectangle 117" width="214" height="65" transform="translate(0 0)" fill="#ef8f21"/>
    </clipPath>
  </defs>
  <g id="Group_201" data-name="Group 201" transform="translate(-0.215 -0.453)">
    <g id="Group_198" data-name="Group 198" transform="translate(0.215 0.453)" clip-path="url(#clip-path)">
      <path id="Path_142" data-name="Path 142" d="M5.874,38.353a.167.167,0,0,0,.073.031c-.092-.062-.145-.086-.073-.031M212.082,25.319l.211-.016.262-.018c.3-.188.3-.443.02-.567l-.243-.137a.351.351,0,0,1-.146-.267c.005-.08.132-.221.188-.212a.619.619,0,0,0,.66-.355.37.37,0,0,0-.012-.322.321.321,0,0,0-.293-.064l-.088.027c-.088.112-.177-.134-.2-.545l-.347-.24a1.369,1.369,0,0,1-.324-.589c-.128-.307.047-.606.377-.547l.167.029c.041-.08-.335-1.024-.65-1.037s-.985.075-1.117.035a2.051,2.051,0,0,0-.493-.07l-.127.022-.225.038c-.238.053-.432-.424-.432-.578s.545-.326.739-.34.02-.106-.383-.2l-.361-.037c-.427-.046-.764-.812-.582-1.262l.168-.417a8.172,8.172,0,0,1-.225-1.584c.089-.183-.049-.439-.308-.569l-.124-.17c-.216-.293-.349.591-.559.013l-.072-.2a3.54,3.54,0,0,0-.54-.41c-.073-.026.5-.287.706-.368a4.719,4.719,0,0,0-.046-2.42c-.209-.631.409-.737.665-.606s.453,0,.438-.3l-.091-.148-.141-.231a1.366,1.366,0,0,1-.358-.677c.01-.08-.142-.123-.338-.093l-.177.037c-.03.005-.051.075-.08.08-.052.007-.141,0-.153-.027-.028-.07-.052-.2-.021-.231l.136-.11c.164-.1.33-.256.323-.315s-.082-.1-.168-.1l-.078-.007-.073-.007a2.593,2.593,0,0,1-.3-1.045L207.2,7.66l-.031-.241a2.624,2.624,0,0,1,.2-.962l-.306-.163-.006,0a.442.442,0,0,0-.124-.456l-.758-.371-.046-.223c-.1-.5-.64-.531-.7-.785l-.114-.514c-.362-.124-1.306-.589-1.613-.507a.537.537,0,0,1-.588-.359c-.006-.112-.273-.091-.353-.06a11.247,11.247,0,0,0-1.131-.406,4.452,4.452,0,0,0-.781,0c-.095.038-.646.333-.623.128s-.2-.166-.3-.117-.562-.124-.712-.093a4.278,4.278,0,0,1-1.2-.247c-.248-.1-.764-.3-1.146-.434L196.7,1.4c-.054-.141-.339-.21-.528-.236-.118-.015-.285.2-.372.163-.306-.141.169-.32.034-.4-.278-.156-.706-.419-.866-.3-.353.263-.641.04-.842-.068a1.94,1.94,0,0,0-1.6-.174l-.452.181c-.217-.265-.428-.128-.47.3L191.12.464l-.261-.218c-.711-.027-1.191.113-1.153.177s-.514.082-.659-.057A.993.993,0,0,0,188.425.2c-.1.022-.612-.177-.522.059s-.362.082-.476,0-.553-.335-.657-.243a.7.7,0,0,1-.275.145,2.923,2.923,0,0,0-.471.439l-.38-.177-.325-.154c-.336.278-.864.853-1.01.752a1.655,1.655,0,0,0-.827-.15l-.259-.159L183.167.68c-.12.082-.856-.225-1.121-.176a1.991,1.991,0,0,0-.591.17,1.238,1.238,0,0,0,.087.49c.046.128-.241.079-.639-.108l-.044.066-.284.421c-.41-.051-.829-.06-.88-.071a1.643,1.643,0,0,1-.4-.362l-.221-.016c-.3-.022-.745-.143-.876.022l-.313.4c-.289-.174-.309-.031-.211.1s-.545-.053-.631-.143-.234-.234-.268-.256-.441.245-.607.2a5.243,5.243,0,0,1-.789-.165c-.122-.075-.621-.2-.644-.015s-.372.37-.779.4l-.213-.19-.4-.364a2.872,2.872,0,0,1-.987.218l-.087.053-.178.11a2.383,2.383,0,0,0-.745.231l-.278-.06-.283-.062a1.509,1.509,0,0,1-.879-.331c-.118-.154-.563.1-.675.229s-.358-.04-.435-.174-.324-.053-.552.177l-.167-.018-.217-.022a2.56,2.56,0,0,0-.97.084l-.272.075-.071.02a2.86,2.86,0,0,0-.58-.152,2.153,2.153,0,0,1-.689-.082l-.132.1c-.454.351-.679.011-.947-.28l-.034-.035c-.067-.007-.184.342-.207.479s-.421-.071-.575-.031-.782.282-.985.327a1.532,1.532,0,0,1-.879-.2l-.263-.02-.2-.018c-.233,0-.472.335-.5.483s-.367-.36-.435-.333a2.9,2.9,0,0,1-1.1.223A2.565,2.565,0,0,0,158.2,1.9a1.116,1.116,0,0,1-.389.183,1.405,1.405,0,0,1-.51-.238l-.267.223-.2.166c-.345.029-.788.079-.985.11L155.7,2.27l-.093-.044c-.062-.251-.223-.1-.25-.018s-.3-.19-.42-.256-1.006.007-1.3-.037-.826.188-.961.148a2.758,2.758,0,0,0-.827.172,2.346,2.346,0,0,1-.892.053c-.158-.062-.837-.3-.843-.09s-.057.331-.116.278l-.053-.048-.528-.47a2.093,2.093,0,0,1-1,.545l0-.033c-.039-.4-.142-.509-.493-.271l-.112.077a.9.9,0,0,0-.761.079l-.241-.011c-.351-.013-.693.075-1.059.053l-.359-.024a15.048,15.048,0,0,0-1.455.467,5.324,5.324,0,0,1-1.192-.364c-.222-.1-.457.218-.474.346s-.164-.027-.327-.342l-.379.265-.2.141a4.473,4.473,0,0,0-.781.293,3.394,3.394,0,0,1-.886-.062c-.2-.015-.762-.346-.915-.229a4.717,4.717,0,0,1-.978.318c-.192.053-.55.168-.8.256l-.2-.287L136.669,3a1.473,1.473,0,0,0-.312.719l-.162-.252-.271-.424a1.234,1.234,0,0,1-.95.318l-.252-.016c-.3-.016-.6,0-.9,0h-.6c-.663,0-1.491-.007-1.84-.018l-.3.049c-.3.048.365.342-.045.472l-.388.123a.355.355,0,0,0-.594-.177c-.073.11-.618.309-.659.2a1.475,1.475,0,0,0-.77-.41c-.2,0-.938.265-1.119.1s-.376.046-.394.183-.24-.024-.307-.1a1.622,1.622,0,0,0-.594-.289l.01.428v.062c-.062.07-.744-.373-1.03-.315s-.463-.051-.393-.245l-.014-.007-.437-.247c-.019.375-.26.45-.347.362s-.351.049-.426.126a.512.512,0,0,1-.362.137.991.991,0,0,1-.25-.523l-.28.165c-.019.011.111.3.144.472l.011.057c-.058.073-.34-.088-.43-.172s-.62.2-.738.02-.37-.4-.447-.388-.533.059-1.011.106l-.425.088-.244.049c-.261-.031-.717-.113-1.012-.185l-.3.11c-.175.062-.43-.159-.614-.108l-.334.1c-.3-.106-1.014.141-1.179.057a2.492,2.492,0,0,0-.513-.139,1.149,1.149,0,0,0-.551.112l-.143.013c-.3.027-.659-.441-.9.123l-.017.04c-.049.005-.3-.34-.37-.465s-.419.016-.5.126-.56.086-.575-.051-.226-.029-.3.059-.253.026-.385-.137l-.141-.115-.077-.062a.858.858,0,0,0-.526.362l-.312-.117c-.151-.057-.388.194-.554.152l-.16-.04c-.154-.229-.517.07-.582.082s-.631-.578-.876-.441a3.469,3.469,0,0,1-1.152.247c-.194-.011-1.03.558-1.331.441a5.169,5.169,0,0,0-1.566-.163,2.419,2.419,0,0,1-.564.124,3.668,3.668,0,0,1-.59-.262l-.324.059a5.119,5.119,0,0,1-1.3-.1.427.427,0,0,0-.21.037c-.011.542-.168.212-.357.108l-.179-.1a.894.894,0,0,0-.639.17c-.058.073-.35.046-.647-.059l-.282-.026-.333-.027c-.356-.029-1.083-.24-1.2-.145s-.478.119-.564.2a.71.71,0,0,1-.423.154l-.118-.046-.3-.115a1.432,1.432,0,0,0-1.049,0l-.255-.258c-.025-.026-.179.154-.266.145l-.15-.013a.844.844,0,0,0-.638.141c-.088.1-.188.185-.206.177s-.227-.227-.3-.309-.574.236-.776.174a4.075,4.075,0,0,0-1.158-.284c-.2.057-.443.108-.471.117s-.567-.353-.6-.115-.044.156-.018-.183l-.373.267-.491.353c.057-.36-.054-.732-.246-.823l-.152.179-.032.037a1.8,1.8,0,0,1-1.171.152.751.751,0,0,0-.367-.161l-.043.048-.384.415a3.1,3.1,0,0,1-.509-.467c-.036-.071-.243.02-.459.2l-.164.139-.72-.295-.24-.156a1.177,1.177,0,0,0-.734.327c-.058.1-.21-.1-.239-.179s-.35.037-.475.005a1.224,1.224,0,0,0-.658-.013c-.168.088-.822.518-.8.3s-.293-.148-.461-.143a6.624,6.624,0,0,1-1.55-.6l-.516.792-.006.009c-.187-.135-.729.249-.941.145a8.568,8.568,0,0,0-1.219-.062,3.418,3.418,0,0,0-1.335.09c-.205.123-.431.252-.446.252a5.407,5.407,0,0,1-.318-.47c-.075-.123-.362.024-.437.1s-.446-.015-.827-.21l-.355.391-.06.068a3.775,3.775,0,0,0-.949-.174l-.234-.148c-.269-.17-.364.5-.655.093-.068-.1-.4-.024-.589.053l-.355.148c-.116-.276-.387-.488-.461-.445s-.4.229-.733.408l-.292-.015-.373-.02a3.84,3.84,0,0,0-.953-.316v0l.006.474c-.2-.181-.6-.368-.726-.309a.5.5,0,0,1-.4.005l-.07.016c-.118.027-.219.134-.337.166a1.3,1.3,0,0,1-.338.005H66.3c-.165,0-.616-.071-.739-.091s-.446-.1-.719-.163l-.1.106-.3.327c-.194-.262-.752-.333-.77-.2s-.436.015-.606.013a3.375,3.375,0,0,0-.674.079l-.062-.08-.306-.4a15.655,15.655,0,0,1-1.793.263l-.525.02c-.179.007-.479-.17-.52-.106l-.241.381c-.205-.21-1.079-.042-1.359-.071a7.119,7.119,0,0,0-1.282.049l-.318-.353-.039-.044c-.108.011-.3.267-.345.368s-.188-.079-.225-.165-.509.038-1.049.284l-.447-.086L53.546,3.9c-.286.093-.981-.209-1.078,0s-.227.026-.25-.128-.191.066-.232.161-.632-.318-.761-.075a.291.291,0,0,1-.438.139,2.425,2.425,0,0,0-.866-.3l-.224.177a1.385,1.385,0,0,1-1.383.174l-.484-.176c-.442.113-1.187.07-1.233.2a.264.264,0,0,1-.3.139c-.059-.027-.173.161-.2.241s-.3-.1-.386-.179-.422,0-.739.185l-.087-.172c-.2-.4-.419.231-.606-.09L44.2,4.046a3.324,3.324,0,0,0-.931.338c-.127.082-.44-.082-.53-.181s-.336.086-.392.174-.459.148-.477.04-.123-.148-.23-.088l-.1,0-.339.013a7.007,7.007,0,0,0-1.21.124,6.258,6.258,0,0,0-.749.368l-.268,0h-.147a2.343,2.343,0,0,1-.685-.293L37.9,4.8l-.1.106A8.6,8.6,0,0,0,36.027,4.9a8.344,8.344,0,0,1-.877.187c-.079,0-1.066-.627-1.449-.488a6.094,6.094,0,0,0-.864.373l-.095.053c-.179.1-.474.316-.528.26L31.68,4.72c.011.448-.126.631-.2.527s-.583-.084-.593.064-.353.053-.5.038a2.932,2.932,0,0,0-.724.079l-.084-.1-.485-.6c-.011.472-.154.724-.219.659s-.284.183-.349.3-.331-.106-.588-.5l-.34.432-.048.06a4.543,4.543,0,0,1-.809.241l-.334.108-.044.013a.981.981,0,0,1-.16-.3c-.019-.06-.081-.046-.139.033l-.047.075-.042.07c-.042.084-.236-.073-.283-.139s-.509.194-.7.148-.809.024-.987.005a1.284,1.284,0,0,0-.423.009l-.055.015-.171.048c-.165.1-.521.3-.789.461l-.129-.232-.259-.468a1.544,1.544,0,0,1-1.2.134l.016.607v.024c-.041.026-.787-.37-1-.145a1.545,1.545,0,0,1-.583.421c-.058-.015-.428-.156-.821-.313l-.093.123c-.246.324-.566-.143-.794.2-.071.106-.45.434-.7.029-.008-.013-.246.09-.248.143-.011.512-.149.2-.355.132l-.2-.066a11.326,11.326,0,0,0-1.675-.11A6.215,6.215,0,0,0,13.8,7.2l0,.044-.04.595a4.151,4.151,0,0,0-.845-.393l-.031.216-.009.06c-.061.057-.41-.128-.533-.068a1.09,1.09,0,0,1-.654.093c-.156-.071-.465.388-.531.576s-.347.1-.407.037a2.057,2.057,0,0,0-.679-.2c-.16-.007-.431.446-.566.353a1.225,1.225,0,0,0-.684-.13l-.131.223-.133.231c-.156.331-.568.07-.708-.046S7,8.929,6.809,8.821a1.127,1.127,0,0,0-.624-.15l-.072.093-.131.172A.3.3,0,0,1,5.428,9c-.057-.135-.227.08-.256.157s-.332.018-.375.13a.2.2,0,0,1-.237.141l-.081-.015a4.754,4.754,0,0,0-.533-.06H3.929c-.022.091.163.243.237.273s-.167.342-.536.7l-.136-.318-.263-.618a1.557,1.557,0,0,0-.781.745c-.023.135-.238.038-.477-.214l-.223.359c-.257.415-.519.359-.817.064l-.028-.029c-.114.051.119.71-.04.884a.905.905,0,0,1-.624.218c-.088-.026-.105.059-.038.188l.011.123a1.341,1.341,0,0,1-.08.333L.057,12.5a1.754,1.754,0,0,1,.275.792L0,13.539l.012.064c.095.477.278-.038.3,0,.1.15.422.141.241.51l-.2.4c.3-.154.544-.027.548.282L.9,14.963c-.025.439-.034.827.445,1.045l.191.088a2.622,2.622,0,0,1,.185,1.1l.09.249.023.062a12.934,12.934,0,0,1,.949.981l-.07,1.191-.007.117c.023.161.35.3.726.316l.33-.031.173-.016c.309-.141.339.06.071.446l-.158.258-.029.048a.165.165,0,0,0,.214.121l.081-.022.1-.026c.113-.02.23.093.261.252l-.021.137-.023.146a2.263,2.263,0,0,0-.241.973,2.893,2.893,0,0,0,.179.4L4.554,23c.044.049.334-.366.5-.337s.182.788.028,1.69l1.172.057c.074,0-1.552.456-1.6.657l-.041.187c-.263-.007-.926-.295-1.017-.121s.092.606.179.7.646-.035.823-.113a4.634,4.634,0,0,0,.539-.28l.094-.09L5.3,25.3c.047-.093.227,0,.281.064a4.04,4.04,0,0,1,.311.64l-.187.287-.018.026c.135.148-.072.5.147.585a2.46,2.46,0,0,0,.772-.011.171.171,0,0,0-.006.106c.065.234.094.393.332.342l.532-.117c.509.251-.6.514-.51.545s.639-.1.781,0-.187.43-.731.728l.054.77c0,.018-.122.057-.189.073l-.345.084c-.1.337.538,1.019.664,1.067a.875.875,0,0,0,.442-.011c.059-.027.08.079.047.236l-.035.141-.034.135c-.042.146.1.148.316,0l.169-.11.072-.048a.474.474,0,0,1,.213.381c-.02.057-.774.371-1.018.2s-.473-.2-.509-.059l.019.106.065.342a2.678,2.678,0,0,1-.011,1.293l.171.3.076.135a1.008,1.008,0,0,0,.638.251L7.8,34.19l-.005.183c.24.216.155.494.076.523s.834.928.745,1.246a1.092,1.092,0,0,0,.433.909c.164.091.652.569.42.571s-.707-.051-.859-.038-.676.254-.838.194a1.593,1.593,0,0,0-.441-.1l0,.016c-.086.765-.39.287-.653.159l-.063-.031a.276.276,0,0,0-.071.322c.034.042-.37.293-.592.245.152.1.409.313.4.459-.022.232-.283.168-.332.115s-.361-.371-.426-.287a2.793,2.793,0,0,1-.3.329,2.651,2.651,0,0,1-.66.13c-.155,0-.37.355-.455.4a5.193,5.193,0,0,0-.441.274L3.7,39.93c-.113.58,1.565,1.167,1.511,1.756l-.018.194a.558.558,0,0,1-.34.67l-.122-.474c-.05-.192-.3-.485-.419-.463l-.6.112c-.49-.364-1.545.311-1.937.472s-.425.327-.075.371l.049.128c.092.243.157.353.406.439.2.071.14.542-.064.7-.083.064-.23.059-.281.137a.9.9,0,0,0-.194.5l.011.1c.233.088.256.2.05.254l-.05.1c-.173.359-.345-.236-.492.024-.133.232-.275.457-.4.7a3.064,3.064,0,0,0-.086.335l-.125.329c.238.39.575.6.75.474l.152-.141.143-.132c.246-.082.248.955-.088,1.136a1.462,1.462,0,0,0-.547,1.035,5.949,5.949,0,0,0,.36,1.171l-.04.456-.014.165c-.068.2.08.234.332.082l.108.055.2.1a3.471,3.471,0,0,0-.287.719l.111.192L1.934,52a1.13,1.13,0,0,1,.413-.386c.028.013-.127,1.063-.2,1.456s-.113,1.385.069,1.5a.855.855,0,0,0,.705.049l.192-.027.165-.024c.226.046-.021.893-.226,1.112s-.492.523-.638.675l.144.168c.133.157.164.26-.011.357a1.438,1.438,0,0,1-.49.2c-.365.051-.078.207-.091.337-.027.247-.253.465.21.434a1.882,1.882,0,0,0,.846-.221.29.29,0,0,1,.293.022l.088.11a.3.3,0,0,0,.293.218,1.946,1.946,0,0,1,.613.2,3.313,3.313,0,0,1,.671.4,1.963,1.963,0,0,0,.616.446l.266-.172c.038-.026.22.093.23.165l.092.646c.462-.046,1.52-.126,1.778-.1s.581.011.65.037.714.132,1.435.236l.408.684.011.018c.079-.026.953.123,1.028.371s.581.128.772.1.921.36,1.152.346a5.116,5.116,0,0,1,1.234.075c.209.086.423.093.477.02l.062-.02.328-.1c-.049.24.074.4.274.346l.185-.035a.439.439,0,0,1,.074.2l.011.154c0,.316.335-.005.412-.137s.4-.073.5-.009,0,.225-.219.36l-.007.115c-.023.419.3.234.486.252.051,0,.113-.157.175-.24l.05-.068c.062-.068.439.221.544.081s.438.079.522.214.929-.254,1.1-.106a1.992,1.992,0,0,0,.589.359l.085-.062.146-.108c.118-.188.754.027.971.011s.548-.1.643-.084.43.035.746.04l.226-.128c.426-.241.433.483.777.355l.033-.013c.034-.02.556-.4.53-.174s.055.194.1.1.324.093.4-.013.415-.531.549-.483a1.278,1.278,0,0,1,.425.466c.057.119.3-.11.363-.22s.241.177.391.642l.209-.39c.311-.584.452-.467.753-.093.046.057.2.1.227.068.275-.36.445-.007.649.1.156.084.31.176.472.247l.312.137A4.242,4.242,0,0,0,30,63c.068-.051.386-.2.459-.123s.3-.066.361-.143a.335.335,0,0,1,.315-.084l.08.068.118.1c.117.143.442.02.533-.075s.24.062.268.146.705-.064.967-.066a5.981,5.981,0,0,0,.81-.005c.105-.038.628-.2,1.163-.371l.3.188.407.256c.408-.075,1.451.2,1.788.079a7.612,7.612,0,0,1,1.421-.355,6.663,6.663,0,0,1,1.066.075l.29-.1.419-.139c.28.349.946.154,1.109-.027s.742-.13.926-.11.561-.051.71-.013.815.291,1.008.21a3.927,3.927,0,0,1,.761-.209l.248.163.2.13a6.031,6.031,0,0,1,1.16-.278l.233.027c.185.022.266.316.567.187.383-.165.562.077.431.488l-.045.141c-.094.141.7.574.8.454s-.126-.448-.254-.54-.123-.181.01-.2l.035-.049c.1-.139.156-.388.273-.428s.3.174.449.172c.35,0,.62.013.722.494l.042.2c.232.161.654.417.936.567l.034.271.019.152c.038.165.2.038.354-.28l.239-.247c.267-.274.7-.318.839-.829.076-.285.476-.759.609.075l.009.055c.152.031.6.295.606.441a1.018,1.018,0,0,1-.186.507,2.617,2.617,0,0,1-.7.221l-.146-.412-.027-.079c-.092-.051-.339.1-.4.166s.2.3.315.357a3.571,3.571,0,0,1,.406.258c.051.048.272.417.376.348a3.313,3.313,0,0,0,.553-.772l.417.02a4.566,4.566,0,0,0,1.76-.428c.035-.013.135.1.157.172l.017.057a1.334,1.334,0,0,1-.488.276c-.113.027-.715.276-.715.494s-.417.452-.561.472a.363.363,0,0,0-.255.123,5.842,5.842,0,0,0,.8.042c.212,0,.733-.477.876-.675s.372.091.4.221-.137.276-.376.327l.138.326.007.018a1.163,1.163,0,0,1,.675-.053c.071.053.163-.192.2-.551l.043,0,.255-.016c.314.062.577-.02.584-.183l-.017-.156-.017-.154c-.05-.163-.18-.67-.062-.712s.661.4.848.245.19.042.133.159-.549.454-.443.593a6.43,6.43,0,0,1,.392.578.231.231,0,0,0,.236.106c.042-.02.072-.909.18-1.207a2.079,2.079,0,0,0,.149-.8l0-.106,0-.172c.087-.187.394-.567.456-.452s.232.463.379.774l.234.223.1.093c.065.2.426.521.366.642s-.387.673-.487.858.549-.077.676-.364a2.252,2.252,0,0,1,.719-.832l.14.132c.275.256.452.225.636-.059l.149-.231c.248-.011.467-.873.467-1.207a.5.5,0,0,1,.446-.494,1.477,1.477,0,0,1,.511.538l-.3.313c-.158.166-.157.5-.287.724l-.057.1c-.18.005-.4.273-.486.595l-.1.282c-.026.071-.189.128-.28.113l-.188-.031a1.686,1.686,0,0,1-.555-.337l-.126-.037-.136-.038c-.171-.027-.474.326-.469.49s-.008.379-.005.466.076.121.164.075l.081-.005.38-.026c.424-.035.984.011,1.085-.011s.354-.51.409-.666.3-.982.467-.8.337-.236.354-.465.093-.357.171-.284l.009.037c.078.309-.166,1.107.56.445.015-.013.312.22.32.349l.059.968a3.371,3.371,0,0,0,.713.633l.127-.02.1-.016a.424.424,0,0,0,.04-.388c-.036-.038-.645-.216-.56-.457s.393.4.676.381,1.189-.013,1.362-.28.347-.461.388-.43l.027.027c.179.181-.158.677.271.648.156-.011.325-.351.425-.576l.081-.183c0-.2.569-.236.761-.192s.1.651-.094.681a6.7,6.7,0,0,1-.764.051l.062.3.019.09a2.406,2.406,0,0,0,.6.119c.08-.009.6-.36.725-.194a1.781,1.781,0,0,0,.4.406.176.176,0,0,0,.178-.115l.006-.077.007-.086c-.019-.093.377-.443.552-.549s.424.091.552.441l.2.091.206.091a2.327,2.327,0,0,1,1.117-.126c.149.062.429.174.485.2a6.874,6.874,0,0,1,1.152-.024,3.247,3.247,0,0,0,1.033.117l0-.6,0-.2c.171-.252.537.093.616.287s.691.071.912-.084a.418.418,0,0,1,.627.183l.126.13.105.11c.157.1.32-.527.332-.781s.206-.132.234-.015.351.485.193.556.106.212.587.316l.353.073.052.011c.056,0,.369-.053.7-.113l.293-.057c.424-.079.881.183,1.284-.2.144-.137.344-.068.362.236.017.285.115.128.26.08l.187-.062c.231.055.476-.267.5-.441s.4-.19.841-.033l.038.56a.471.471,0,0,0,.362.044l.156-.1c.167-.22.506-.075.6.068s.383-.146.446-.262.391-.073.728.1l.205.2.362.349a.79.79,0,0,1,.892-.3l.215-.035c.248-.038.573-.426.691-.346l.434.289c.141-.335.286-.461.3-.4a3.108,3.108,0,0,0,.93.311,4.3,4.3,0,0,0,.882-.02,1.621,1.621,0,0,1,.589-.027c.091.055.364.018.5.055s.948.419,1.218.34a1.2,1.2,0,0,0,.594-.329l.056-.088.105-.165c.194-.289.354.15.51.154s.7,0,1.2-.015l.357.137a2.064,2.064,0,0,0,1.158.1l.084-.015c.082-.051.585.119.735.018s.678.086.836,0a10.159,10.159,0,0,1,1.217.088,4.378,4.378,0,0,0,.835-.17l.181,0,.225,0a.349.349,0,0,0,.481-.322l-.012-.165-.01-.13c-.075-.121.135-.221.234-.221s.174.371.152.5.157.359.4.51l.262-.066c.063-.015.108-.112.162-.17.013-.013,1.044-.313,1.055-.3l.43.373a8.235,8.235,0,0,1,1.943-.21,4.776,4.776,0,0,0,.8.066c.078-.015.578-.267.729-.172s.517-.009.607.053a3.548,3.548,0,0,0,.786.263l.136-.146.5-.529a10.59,10.59,0,0,0,2.255.67c.351-.051.551-.552.635-.655s.725.607.954.582,1.244-.157,1.559-.2a2.171,2.171,0,0,1,.61-.037c.019.024.127.512.245.4a2.179,2.179,0,0,1,.686-.327,1.407,1.407,0,0,1,.69.256l.306-.269c.158-.139.569.113.867.115h.191a1.436,1.436,0,0,1,.781-.091c.11.053.265.077.3.038s-.009-.123-.091-.187v-.059c0-.064.116-.188.138-.177.128.06.285.251.354.216.148-.079.235-.315.42-.042.017.026.213-.146.306-.124l.216.053c.245.086.8.018.955.139a1.424,1.424,0,0,0,.8.128c.142-.038.586.183.7.159a5.136,5.136,0,0,0,.515-.154l.2.1.374.192c.06-.355.154-.309.171-.179s.332.04.431-.022a.725.725,0,0,1,.56.07l.184-.23.16-.2a.28.28,0,0,1,.478.137c.018.121.53.326.7.293s.645-.485.805-.375a1,1,0,0,0,.783.015l.229.243.384.4c.329-.293,1.12-.249,1.278-.37a1.735,1.735,0,0,1,.776-.311,10.711,10.711,0,0,0,1.462.258,2.13,2.13,0,0,0,.728-.055c.04-.044.387-.307.461-.168s.448.029.832-.245l.225.1.728.313a10.349,10.349,0,0,1,2.122-.09c.224-.031.463-.413.484-.545s.463.188.614.338.6-.055.712-.161a.34.34,0,0,1,.4-.057l.081.071c.514.454.527.45,1.014.07.171-.135.457-.2.516-.37l.072-.207a.376.376,0,0,1,.438.123c.04.113.21.1.271.055s.151.309.164.437.448.238.608.243a3.79,3.79,0,0,0,.809.022c.129-.051.611.071.756-.049a1.322,1.322,0,0,1,.689-.223,6.419,6.419,0,0,1,.685.221.737.737,0,0,0,.6-.179l.271.185a.747.747,0,0,0,.83.031l.274-.15a1.359,1.359,0,0,1,.991.287c.1.137.55-.166.667-.295s.628.057.813.185.451-.042.59-.381l.239.1.409.174a8.3,8.3,0,0,1,.961-.166,7.016,7.016,0,0,0,1.8.344c.469-.064,1.535-.406,1.753-.223a.5.5,0,0,0,.722-.115l.062.031.411.2a5.582,5.582,0,0,1,1.6-.214l.286.238.393.324a4.442,4.442,0,0,1,1.381-.331c.231-.037.939-.209,1.023-.057s.347.024.452.024.961.1,1.256.124a6.187,6.187,0,0,0,.826.049c.135-.016.484.112.6.093s.772-.445,1.019-.384,1.08,0,1.314.042a4.81,4.81,0,0,0,1.061.123c.179-.046.849.073,1.1.031a7.342,7.342,0,0,1,.895-.066c.118.005.7.439.709.2s.087-.227.115-.148.768-.117,1.055-.106a2.665,2.665,0,0,0,.842-.037c.124-.073.558.091.687.066s.573-.163.986-.309l.306.1.461.154a6.457,6.457,0,0,1,1.462-.143l.232-.145.324-.2a1.164,1.164,0,0,0,.972.108l.276-.046.292-.049a3.127,3.127,0,0,1,1.056.161l.279-.1.274-.1a1.574,1.574,0,0,0,1.079-.278l.3.258.068.059c.192-.11,1.043.194,1.254-.015s.6-.338.642-.254.555-.1.778-.135.717-.119,1.1-.194l.371.113.217.068c.275-.115.872-.43.967-.326s1.065-.221,1.431-.22a7.414,7.414,0,0,0,1.19-.159c.143-.033.72.168.86.073a1.7,1.7,0,0,1,.9-.1l.275-.276.029-.029a1.2,1.2,0,0,0,.795-.335l.069.15c.2.434.474-.371.613.093.005.016.469-.183.5-.123l.264.437a2.926,2.926,0,0,1,.895-.734l.289,0,.566,0a8.873,8.873,0,0,0,1.658-.207l.283-.049.276-.046c.294-.1,2.023-.241,2.555-.432a3.713,3.713,0,0,1,1.448-.254l.225-.124.188-.1a2.558,2.558,0,0,1,.7-.22,2.471,2.471,0,0,0,.567-.322.684.684,0,0,1,.293-.146c.028.005.2.06.379.121l-.093-.19-.324-.668a6.027,6.027,0,0,1-.69-1.339c.014-.016.325-.263.691-.549l-.432-.682-.175-.276c.082-.269.2-.679.253-.911l-.176-.19-.147-.159c-.024-.238-.066-.66-.095-.94l.015-.194.035-.472c-.275-.022.028-.289.127-.5a8.22,8.22,0,0,1,.635-1.008l-.387-.238c-.5-.306-.583-.567-.232-1.072l.129-.185a2.063,2.063,0,0,0-.354-1.03c-.117-.128-.167-.285-.144-.309s.085-.216.155-.236.057-.344.114-.424a6.013,6.013,0,0,0,.638-.631.527.527,0,0,0,.049-.5l-.058-.005c-.3-.035-.43-.227-.523-.527l-.1-.324a.772.772,0,0,1,.526-.534c.1.011.358-.569.42-.582a.508.508,0,0,1,.314.234c.041.1.56-.093.75-.2s.015-.278-.093-.254-.679.232-.659.037-.055-.32-.095-.315-.393.241-.5.146-.362-.368-.43-.437.316-.168.453-.126a1.415,1.415,0,0,0,.638,0,.779.779,0,0,1,.575.156c.095.11.1-.037.007-.324l-.106-.225-.056-.115c.008-.168.568-.419.687-.6s-.049-.66-.132-.756a.983.983,0,0,1-.018-.693l.1-.247.18-.468c-.461-.231-.476-.381-.031-.333l.032.1.08.262a.348.348,0,0,0,.4-.276l-.139-.165c-.024-.027.062-.168.1-.256.132-.32.032-.439-.278-.445l-.117,0a.334.334,0,0,1-.072-.379,6.21,6.21,0,0,0,.328-.565l-.1-.223c-.239-.542-.56-.829-.775-.761l-.063.02c-.072.1-.3-.243-.354-.384s.284-.573.418-.686-.316-.269-.468-.287-.087-.4-.029-.516a.43.43,0,0,1,.271-.225l.021.022.165.157a.47.47,0,0,0,.537.091c.058-.066-.1-.476-.225-.84s-.4-.6-.623-.525l-.083-.168-.2-.4c.307-.249.333-.582.25-.631s-.373.071-.644.271l-.225-.384-.015-.026c-.034-.015-.079.117-.1.3l-.07.126-.107.194a.607.607,0,0,1-.659.086c-.1-.1.072-.518.371-.92l.047-.355c.042-.307-.211-.659-.317-1l-.016-.051c.066-.11.508.368.7.523a.566.566,0,0,0,.618-.018c.073-.08.526-.013.649.088s.178-.057.12-.351l-.036-.256-.045-.315a2.351,2.351,0,0,1-.834-.148l-.008-.1-.039-.516c-.175.229-.4.2-.5-.066l-.06.009c-.37.057-.263-.311-.392-.456l-.061-.07c-.136,0-.712-.1-.736-.289a2.42,2.42,0,0,1,.155-.8c.058-.135.535.192.722.24a7.174,7.174,0,0,1,1.319.1,3.668,3.668,0,0,0,1.527.415,2.808,2.808,0,0,1,1.185-.163,2.839,2.839,0,0,0,.59.243l.02-.042c.163-.331.342.042.488-.029l.172-.084c.136-.108-.035-.5-.138-.62s-.257-.778-.083-.878-.026-1.354-.135-1.738-.152-1.094.017-1.11a4.605,4.605,0,0,0,.832-.216l.065-.331.046-.225c0-.34.244-.452.549-.247M3.373,47.973c-.132.212-.27.569-.427.584-.434.04-.1-.472-.278-.631-.216-.192-.111-.293.026-.454.174-.2.221.015.327.075l.118.068a.384.384,0,0,1,.27.3ZM6.3,42.45c-.173-.053-.637-.595-.511-.887s.272-.351.324-.128L6.1,41.59c-.029.331.05.523.38.551l.042,0c.053.221-.046.359-.22.306m50.552,20a3,3,0,0,0-.85-.5c-.177,0,.065-.13.537-.284l.391.412.049.053c.238-.141.432.21.432.4s-.422.029-.56-.077m2.932-.362a2.672,2.672,0,0,0-.944.157c-.126.1-.645.483-.757.3s.034-.441.319-.565l.232-.143.246-.15a2.213,2.213,0,0,0,.815.1c.141-.055.733-.22.828-.033s-.519.338-.74.337m6.125-.251-.109.146c-.041.053-.159.119-.175.1l-.318-.338a1.3,1.3,0,0,1-1.085-.015.552.552,0,0,1-.158-.348c.016-.035.2.013.4.1s1.127-.192,1.33-.146.255.269.114.5m4.508,2.5c-.18.02-.109-.734-.12-1.014s.011-.243.053.077.247.917.067.937m8.059-.236-.042.106c-.14.073-.473-.06-.74-.293l-.277-.179-.224-.146c-.165-.443-.217-.785-.116-.761a1.644,1.644,0,0,1,.512.622l.187.117.165.1c.3-.046.563.09.585.3Zm28.912-1.306c-.2.068-.608.34-.716.262s-.13-.307-.048-.512l-.08-.209-.019-.049a.939.939,0,0,1,.613-.179c.287-.009.453.62.25.688m37.494-.02c-.142.08-.659-.381-.728-.653s.263-.393.324-.287.363.445.469.569a.235.235,0,0,1-.066.371m59.34-32.505c-.185-.084-.726-.529-1.032-.739.015-.024.065-.1.246-.388l.34-.536c.188.419.565,1.222.672,1.443s.005.322-.226.22m4.349-.1-.008.145-.018.318c-.2-.024-.887-.373-.94-.688s.027-.313.179,0l.212.106.141.071c.4-.273.6-.252.432.044m4.817-.573-.16-.269-.217-.362c-.315-.022-.372.137-.128.355l-.512.013-.211.005c-.277-.1-.394.106-.262.459l.141.258c.068.124.24.293.332.273l.6-.141c.5.406.816.637.713.51s.129-.635.227-.67-.135-.231-.52-.432" transform="translate(-0.142 -0.387)" fill="#ef8f21"/>
    </g>
  </g>
</svg>
