<svg xmlns="http://www.w3.org/2000/svg" xmlns:xlink="http://www.w3.org/1999/xlink" width="288" height="46" viewBox="0 0 288 46">
  <defs>
    <clipPath id="clip-path">
      <rect id="Rectangle_117" data-name="Rectangle 117" width="288" height="46" transform="translate(-0.333 0)" fill="#2163EF"/>
    </clipPath>
  </defs>
  <g id="Group_198" data-name="Group 198" transform="translate(0.333 0)" clip-path="url(#clip-path)">
    <path id="Path_142" data-name="Path 142" d="M7.882,27.4a.349.349,0,0,0,.1.022c-.123-.044-.195-.061-.1-.022m276.677-9.313.284-.012.351-.013c.4-.135.409-.316.027-.405l-.326-.1c-.1-.03-.2-.129-.2-.191s.177-.158.253-.152a1.114,1.114,0,0,0,.885-.254.159.159,0,0,0-.015-.23.736.736,0,0,0-.393-.046l-.119.02c-.117.08-.237-.1-.267-.389l-.465-.171a1.052,1.052,0,0,1-.435-.421c-.172-.22.063-.433.506-.391l.224.021a1.274,1.274,0,0,0-.872-.741c-.422-.009-1.321.054-1.5.025a5.049,5.049,0,0,0-.662-.05l-.171.016-.3.027a.6.6,0,0,1-.58-.413c0-.11.732-.233.992-.243s.027-.076-.514-.141l-.484-.026c-.573-.033-1.025-.58-.78-.9l.225-.3c-.069-.32-.422-1-.3-1.132s-.065-.314-.413-.406l-.166-.122c-.289-.209-.469.422-.75.009l-.1-.14a5.7,5.7,0,0,0-.725-.293,4.692,4.692,0,0,1,.948-.263c.281-.058.219-1.278-.062-1.729s.549-.527.892-.433.607,0,.587-.214l-.122-.106-.19-.165c-.291-.15-.493-.426-.48-.484s-.191-.088-.453-.067l-.237.026c-.04,0-.069.054-.108.058a.446.446,0,0,1-.205-.02c-.038-.05-.07-.146-.028-.165l.183-.078c.219-.071.442-.183.433-.225s-.11-.073-.225-.072l-.1-.005-.1-.005c-.1-.013-.285-.349-.408-.746l-.087-.363-.042-.173a1.17,1.17,0,0,1,.266-.688l-.41-.116-.008,0c.1-.132-.072-.3-.166-.325L276.63,3.9l-.062-.159c-.136-.356-.859-.379-.933-.561l-.153-.367a12.035,12.035,0,0,0-2.165-.362.86.86,0,0,1-.789-.256c-.008-.08-.366-.065-.473-.043s-1.114-.288-1.517-.29-.922-.029-1.047,0-.867.238-.836.091-.263-.119-.407-.084-.754-.089-.955-.067a10.288,10.288,0,0,1-1.6-.176c-.332-.075-1.025-.214-1.537-.31L263.92,1c-.072-.1-.455-.15-.708-.169-.158-.01-.382.145-.5.116-.41-.1.227-.229.046-.282A2.826,2.826,0,0,0,261.6.448,1.587,1.587,0,0,1,260.466.4,4.678,4.678,0,0,0,258.32.276l-.606.129c-.291-.19-.574-.091-.631.217l-.651-.29-.35-.156A4.234,4.234,0,0,0,254.536.3a1.913,1.913,0,0,1-.885-.041,2.292,2.292,0,0,0-.834-.119c-.129.016-.821-.127-.7.042s-.485.059-.638,0A2.3,2.3,0,0,0,250.6.014a1.375,1.375,0,0,1-.369.1,4.085,4.085,0,0,0-.632.314L249.086.3l-.436-.11c-.451.2-1.159.609-1.355.537a3.964,3.964,0,0,0-1.11-.107l-.348-.114-.075-.025c-.161.059-1.148-.161-1.5-.125a4.55,4.55,0,0,0-.794.122c-.046.033.053.26.116.35s-.324.056-.858-.077L242.664.8l-.381.3c-.55-.037-1.113-.043-1.181-.051a2.355,2.355,0,0,1-.537-.259l-.3-.012A3.335,3.335,0,0,0,239.093.8l-.42.282c-.388-.124-.414-.022-.284.069s-.732-.038-.847-.1-.314-.167-.359-.183a4.81,4.81,0,0,1-.815.145c-.223-.03-.894-.064-1.058-.118s-.834-.146-.863-.01-.5.264-1.045.285l-.286-.136-.541-.26a6.88,6.88,0,0,1-1.324.156l-.116.038-.238.078a5.428,5.428,0,0,0-1,.165l-.372-.043-.38-.044a3.207,3.207,0,0,1-1.179-.237c-.158-.11-.756.075-.906.163a.66.66,0,0,1-.584-.124c-.1-.094-.435-.038-.74.127l-.224-.013-.292-.016a6.361,6.361,0,0,0-1.3.06l-.365.054-.095.014a6.7,6.7,0,0,0-.778-.108,5.33,5.33,0,0,1-.925-.059l-.177.073a1.2,1.2,0,0,1-1.27-.2l-.045-.025c-.09-.005-.247.244-.278.342s-.565-.051-.771-.022-1.05.2-1.321.234a3.615,3.615,0,0,1-1.179-.144l-.353-.014-.274-.013a.847.847,0,0,0-.664.345c-.03.106-.492-.257-.584-.238a6.932,6.932,0,0,1-1.47.159,6.175,6.175,0,0,0-1.11-.123,2.27,2.27,0,0,1-.522.131,2.9,2.9,0,0,1-.684-.17l-.358.159-.266.119c-.463.021-1.057.056-1.321.078l-.2-.051-.125-.031c-.083-.179-.3-.075-.336-.013s-.4-.136-.563-.183-1.35.005-1.751-.026-1.108.135-1.289.106a6.621,6.621,0,0,0-1.11.123,5.85,5.85,0,0,1-1.2.038c-.212-.044-1.123-.212-1.132-.064s-.077.237-.155.2l-.071-.034-.708-.336a4.042,4.042,0,0,1-1.338.389l0-.024c-.052-.286-.191-.363-.662-.193l-.151.055a2.159,2.159,0,0,0-1.021.056l-.324-.008c-.471-.009-.93.054-1.421.038l-.482-.017c-.58.009-1.651.333-1.952.333a12.178,12.178,0,0,1-1.6-.26.636.636,0,0,0-.636.247c-.024.09-.221-.02-.439-.244l-.509.19-.27.1a9.761,9.761,0,0,0-1.047.209,8.485,8.485,0,0,1-1.188-.044,6,6,0,0,0-1.228-.163,10.654,10.654,0,0,1-1.312.227c-.257.038-.738.12-1.068.183l-.274-.205-.171-.127a.936.936,0,0,0-.419.514l-.217-.18-.363-.3A2.706,2.706,0,0,1,181.1,2.4l-.338-.012c-.4-.012-.808,0-1.212,0h-.81c-.89,0-2-.005-2.469-.013l-.406.035c-.4.034.49.244-.06.337l-.521.088c-.174-.281-.7-.2-.8-.127a1.864,1.864,0,0,1-.884.145,2.8,2.8,0,0,0-1.033-.293,6.291,6.291,0,0,1-1.5.071.412.412,0,0,0-.529.131c-.025.1-.323-.017-.412-.075a3.207,3.207,0,0,0-.8-.207l.013.306v.044c-.083.05-1-.267-1.382-.225s-.621-.037-.528-.175l-.019-.005-.586-.176a.344.344,0,0,1-.465.259.955.955,0,0,0-.572.09,1.1,1.1,0,0,1-.486.1.708.708,0,0,1-.336-.374l-.376.118c-.026.008.148.217.193.337l.014.041c-.078.052-.457-.063-.576-.123s-.831.145-.99.014a1.43,1.43,0,0,0-.6-.277c-.1.008-.715.042-1.357.076l-.571.063-.327.035c-.35-.022-.962-.081-1.358-.132l-.4.078c-.235.044-.576-.114-.824-.077l-.448.068c-.4-.076-1.36.1-1.582.041a5.824,5.824,0,0,0-.688-.1,2.76,2.76,0,0,0-.739.08l-.192.009c-.4.02-.884-.315-1.205.088l-.023.029a2.041,2.041,0,0,1-.5-.332c-.1-.09-.562.012-.668.09s-.751.061-.771-.037-.3-.021-.409.042a.587.587,0,0,1-.517-.1l-.19-.082-.1-.044a1.465,1.465,0,0,0-.706.259l-.419-.084c-.2-.041-.521.139-.744.108l-.215-.029c-.206-.163-.694.05-.78.059s-.847-.413-1.175-.315a8.3,8.3,0,0,1-1.545.176,10.978,10.978,0,0,1-1.786.315,12.831,12.831,0,0,0-2.1-.116,5.8,5.8,0,0,1-.757.089,7.7,7.7,0,0,1-.792-.187l-.434.042a12.779,12.779,0,0,1-1.748-.072,1.021,1.021,0,0,0-.281.026c-.014.387-.225.152-.479.077l-.241-.071a2.017,2.017,0,0,0-.858.122,2.11,2.11,0,0,1-.868-.042l-.378-.018-.447-.02a12.441,12.441,0,0,0-1.607-.1c-.153.069-.642.085-.757.142a1.535,1.535,0,0,1-.568.11l-.159-.033-.4-.082a3.518,3.518,0,0,0-1.408,0l-.342-.184c-.033-.018-.24.11-.357.1l-.2-.009a1.959,1.959,0,0,0-.856.1.994.994,0,0,1-.276.127c-.024-.005-.3-.162-.4-.221s-.77.169-1.041.124a9.618,9.618,0,0,0-1.554-.2c-.27.041-.594.077-.632.084s-.76-.252-.809-.082-.059.111-.024-.131l-.5.191-.658.252a.466.466,0,0,0-.33-.588l-.2.128-.043.026a4.4,4.4,0,0,1-1.572.108,1.563,1.563,0,0,0-.492-.115l-.058.034-.515.3a4.259,4.259,0,0,1-.683-.333c-.049-.051-.326.014-.616.145l-.221.1-.967-.21-.321-.111a2.358,2.358,0,0,0-.984.234c-.078.068-.281-.072-.32-.128s-.47.026-.637,0a3.043,3.043,0,0,0-.882-.009c-.225.063-1.1.37-1.076.212s-.394-.106-.619-.1a14.5,14.5,0,0,1-2.079-.429l-.693.566-.008.007c-.25-.1-.979.178-1.263.1s-1.268-.009-1.636-.044a8.509,8.509,0,0,0-1.791.064c-.275.088-.578.18-.6.18a4.977,4.977,0,0,1-.427-.336c-.1-.088-.486.017-.586.073a2.762,2.762,0,0,1-1.11-.15l-.477.28-.081.048A9.14,9.14,0,0,0,97.9,2.657l-.314-.106c-.361-.122-.489.361-.879.067a1.77,1.77,0,0,0-.79.038l-.477.106a.917.917,0,0,0-.618-.318c-.1.033-.541.163-.983.291l-.391-.01-.5-.014a8.7,8.7,0,0,0-1.279-.226h0l.008.339A2.275,2.275,0,0,0,90.7,2.6a1.227,1.227,0,0,1-.538,0l-.094.012c-.158.02-.294.1-.452.119a3.263,3.263,0,0,1-.453,0h-.2c-.222,0-.827-.051-.992-.065s-.6-.068-.964-.116l-.132.076-.4.234c-.261-.187-1.009-.238-1.033-.144s-.585.01-.814.009a8.368,8.368,0,0,0-.9.056l-.083-.058-.41-.286c-.549.068-1.631.153-2.405.188l-.7.014c-.24.005-.643-.122-.7-.076l-.324.272A8.4,8.4,0,0,0,77.272,2.8c-.375-.02-1.148,0-1.72.035l-.427-.252-.052-.031a.967.967,0,0,0-.463.263c-.057.071-.253-.056-.3-.118a4.215,4.215,0,0,0-1.408.2l-.6-.061-.455-.047c-.384.067-1.317-.149-1.446,0a.2.2,0,0,1-.336-.091c-.032-.111-.256.047-.311.115s-.848-.227-1.021-.054a.594.594,0,0,1-.587.1,5.3,5.3,0,0,0-1.162-.216l-.3.127a3.275,3.275,0,0,1-1.855.124l-.65-.125a15.141,15.141,0,0,0-1.655.142c-.062.094-.319.119-.4.1s-.232.115-.267.173-.4-.068-.518-.128a2.1,2.1,0,0,0-.992.132l-.116-.123c-.273-.288-.562.165-.812-.064l-.113-.1a7.3,7.3,0,0,0-1.249.242A1.3,1.3,0,0,1,57.347,3c-.121-.071-.451.061-.527.124s-.616.106-.64.029-.165-.106-.308-.063l-.134,0-.454.009c-.5,0-1.434.055-1.624.089s-.642.153-1,.263H52.1a4.953,4.953,0,0,1-.919-.209l-.333.18-.139.076a21.618,21.618,0,0,0-2.369,0c-.439.059-1.071.135-1.177.133a7.415,7.415,0,0,0-1.944-.349c-.512.1-1.034.22-1.159.267l-.127.038a2.718,2.718,0,0,1-.708.186l-.718-.4c.015.32-.168.451-.273.376s-.783-.06-.8.046-.473.038-.673.027a7.282,7.282,0,0,0-.971.056L39.681,3.8l-.651-.426c-.014.337-.206.518-.294.471s-.381.131-.469.217-.444-.076-.789-.361l-.457.308-.064.043a10.383,10.383,0,0,1-1.085.173l-.448.077-.059.009A.737.737,0,0,1,35.15,4.1c-.025-.043-.109-.033-.186.024L34.9,4.18l-.056.05c-.056.06-.317-.052-.38-.1s-.683.139-.933.106-1.085.017-1.324,0a3.215,3.215,0,0,0-.568.007l-.074.01-.23.034c-.222.068-.7.216-1.059.329L30.1,4.454l-.348-.335a3.729,3.729,0,0,1-1.613.1l.021.434v.017c-.055.018-1.056-.264-1.347-.1a2.6,2.6,0,0,1-.783.3c-.078-.01-.574-.111-1.1-.224l-.125.088c-.33.231-.759-.1-1.065.144a.844.844,0,0,1-.941.021c-.011-.009-.33.064-.332.1-.015.366-.2.142-.477.094l-.272-.047c-.374.013-1.818-.149-2.248-.078s-.859.152-.954.18l0,.031-.053.425a8.558,8.558,0,0,0-1.134-.281l-.042.154-.012.043c-.082.041-.55-.091-.715-.048a2.642,2.642,0,0,1-.878.067c-.209-.051-.624.277-.713.412s-.465.069-.546.026a4.721,4.721,0,0,0-.911-.14c-.215-.005-.579.319-.759.252a2.916,2.916,0,0,0-.918-.093l-.176.159-.179.165c-.209.237-.763.05-.95-.033s-1.137.1-1.4.02A2.647,2.647,0,0,0,8.3,6.2l-.1.067-.176.123a.587.587,0,0,1-.745.048c-.077-.1-.3.058-.344.112s-.446.013-.5.093a.333.333,0,0,1-.318.1l-.109-.01c-.237-.021-.476-.037-.715-.043H5.272c-.03.065.218.174.318.195s-.224.244-.719.5l-.183-.227L4.336,6.71a1.987,1.987,0,0,0-1.047.532c-.031.1-.319.027-.64-.153l-.3.256a.883.883,0,0,1-1.1.046L1.216,7.37c-.153.037.16.507-.053.631a2,2,0,0,1-.837.156C.208,8.139.184,8.2.274,8.292l.015.088c.014.077-.079.158-.107.238l-.106.316c.292.277.412.549.369.566L0,9.673l.017.046c.127.341.372-.027.408,0,.129.107.566.1.324.365l-.262.285c.4-.11.729-.02.735.2l-.012.118c-.033.314-.046.591.6.746l.256.063a1.126,1.126,0,0,1,.248.786l.121.178.031.044c.1.033.673.348,1.274.7l-.094.851-.009.084c.031.115.47.217.974.226l.442-.022.232-.012c.414-.1.455.043.095.319l-.212.184-.039.034a.279.279,0,0,0,.287.086l.109-.016.135-.018a.344.344,0,0,1,.35.18l-.028.1-.031.1c-.1.108-.416.562-.324.7a1.9,1.9,0,0,0,.24.284l.248.149c.059.035.448-.261.676-.24s.244.563.038,1.208l1.573.041a15.388,15.388,0,0,0-2.142.469l-.055.133c-.352-.005-1.243-.21-1.365-.086s.123.433.241.5a3.469,3.469,0,0,0,1.1-.081c.237-.055.563-.145.724-.2l.126-.064.084-.043c.063-.067.3,0,.377.046a2.815,2.815,0,0,1,.418.457l-.251.205-.024.018c.181.106-.1.361.2.418a6.171,6.171,0,0,0,1.035-.008.07.07,0,0,0-.008.076c.087.167.126.281.446.244l.714-.084c.683.179-.8.367-.684.389a7.193,7.193,0,0,1,1.049,0c.19.073-.251.307-.981.52l.072.55a1.05,1.05,0,0,1-.254.052l-.463.06c-.129.24.722.728.891.762a2.175,2.175,0,0,0,.593-.008c.079-.02.107.056.063.169l-.047.1-.046.1c-.057.1.134.106.425,0l.227-.078.1-.034c.209.065.312.23.286.272a3.176,3.176,0,0,1-1.366.14c-.327-.124-.635-.144-.683-.042l.026.076.087.244a1.057,1.057,0,0,1-.015.924l.229.217.1.1a2.12,2.12,0,0,0,.856.179l-.017.291-.007.131c.321.154.208.353.1.374s1.12.663,1,.89.359.583.581.65.875.406.563.408-.949-.037-1.153-.027a8.185,8.185,0,0,1-1.124.139,3.786,3.786,0,0,0-.592-.074l0,.012c-.115.546-.523.205-.877.114l-.084-.022c-.155.06-.146.2-.095.23a1.5,1.5,0,0,1-.795.175c.2.073.549.224.53.328-.03.166-.38.12-.445.082s-.484-.265-.572-.205a3.363,3.363,0,0,1-.4.235,6.383,6.383,0,0,1-.886.093c-.208,0-.5.254-.611.284s-.382.119-.592.2l-.034.091c-.152.414,2.1.834,2.027,1.255l-.024.139c.132.165-.074.38-.457.478l-.164-.339a.827.827,0,0,0-.562-.331l-.8.08c-.657-.26-2.073.222-2.6.337s-.571.234-.1.265l.065.091a.676.676,0,0,0,.544.314c.267.051.187.387-.085.5-.111.046-.308.042-.377.1-.132.107-.285.247-.261.361l.014.069c.313.063.344.145.068.182L2.19,32.1c-.232.256-.463-.169-.661.017-.178.166-.369.327-.531.5-.068.069-.062.162-.115.239l-.167.235a1.2,1.2,0,0,0,1.006.339l.2-.1.192-.094c.33-.059.333.682-.119.812s-.759.6-.734.74a3.02,3.02,0,0,0,.483.837l-.053.325-.019.118c-.091.14.108.167.445.059l.145.039.273.074a2.062,2.062,0,0,0-.385.514l.149.137.294.269a1.6,1.6,0,0,1,.554-.276,6.079,6.079,0,0,1-.265,1.04c-.094.281-.152.989.093,1.072a2.073,2.073,0,0,0,.947.035l.257-.02.222-.017c.3.033-.028.638-.3.795s-.661.374-.856.482l.193.12c.179.112.221.186-.015.255a3.083,3.083,0,0,1-.657.14c-.49.037-.1.148-.122.24-.036.176-.339.332.282.31a4.394,4.394,0,0,0,1.135-.158.688.688,0,0,1,.393.016l.117.078c.06.122.317.171.394.156a4.4,4.4,0,0,1,.823.144,6.123,6.123,0,0,1,.9.282,3.164,3.164,0,0,0,.827.319l.357-.123c.051-.018.3.067.308.118l.123.461c.62-.033,2.04-.09,2.385-.075s.779.008.872.026.958.094,1.925.169l.547.489.015.013c.106-.018,1.279.088,1.379.265s.779.091,1.035.072,1.236.257,1.545.247a12.805,12.805,0,0,1,1.656.054,1.2,1.2,0,0,0,.64.014l.083-.014.44-.072c-.065.171.1.282.368.247l.248-.025c.02,0,.093.094.1.146l.015.11c0,.226.45,0,.553-.1a1.118,1.118,0,0,1,.675-.007c.136.046,0,.161-.294.257l-.009.082c-.031.3.4.167.652.18.069,0,.152-.112.235-.171l.068-.048c.083-.048.589.158.729.058s.587.056.7.153,1.247-.182,1.47-.076a3.63,3.63,0,0,0,.79.256l.114-.044.2-.077c.158-.135,1.012.02,1.3.008s.735-.072.862-.06.576.025,1,.029l.3-.091c.572-.173.581.345,1.043.254l.044-.009c.045-.014.746-.289.71-.124s.074.139.13.075.434.067.54-.009.557-.379.737-.345a1.516,1.516,0,0,1,.571.333c.076.085.4-.078.487-.157s.324.127.524.459l.28-.278c.418-.417.606-.333,1.011-.067a.574.574,0,0,0,.3.048c.369-.257.6-.005.871.074.21.06.416.125.633.176l.419.1a9.8,9.8,0,0,0,1.046-.156,1.407,1.407,0,0,1,.616-.088c.1.056.4-.047.484-.1a.745.745,0,0,1,.422-.06l.108.048.159.071a1.029,1.029,0,0,0,.715-.054.345.345,0,0,1,.359.1,10.881,10.881,0,0,0,1.3-.047c.35,0,.947.022,1.086,0s.842-.146,1.561-.265l.4.135.546.183c.547-.054,1.946.141,2.4.056a17.966,17.966,0,0,1,1.907-.254c.382-.007,1.026.018,1.43.054l.389-.069.562-.1a2,2,0,0,0,1.487-.02,3.616,3.616,0,0,1,1.243-.078c.249.014.753-.037.952-.009a6.689,6.689,0,0,0,1.352.15,9.14,9.14,0,0,1,1.021-.149l.333.116.266.093a14.308,14.308,0,0,1,1.556-.2l.313.02c.248.016.357.226.76.133.514-.118.754.055.578.349l-.06.1c-.126.1.936.41,1.078.324s-.17-.32-.34-.386-.165-.129.013-.142l.047-.035c.136-.1.209-.277.367-.306s.4.124.6.123c.47,0,.831.009.969.353l.056.14c.312.115.878.3,1.256.405l.045.193.025.108c.051.118.264.027.474-.2l.32-.176c.358-.2.944-.227,1.126-.592.1-.2.638-.542.817.054l.012.039c.2.022.81.21.814.315a.588.588,0,0,1-.249.362,5.9,5.9,0,0,1-.943.158l-.2-.294-.037-.056a1.116,1.116,0,0,0-.542.119c-.088.051.272.213.422.255s.476.15.544.184.365.3.5.248a3.252,3.252,0,0,0,.742-.552l.56.014a10.745,10.745,0,0,0,2.362-.306.332.332,0,0,1,.211.123l.023.041a2.5,2.5,0,0,1-.655.2c-.152.02-.96.2-.96.353s-.56.323-.753.337a.684.684,0,0,0-.343.088c0,.017.782.03,1.067.03a3.277,3.277,0,0,0,1.175-.482c.192-.141.5.065.543.158s-.184.2-.5.234l.185.233.009.013a2.872,2.872,0,0,1,.906-.038c.095.038.218-.137.273-.393h.058l.343-.012c.421.044.775-.014.784-.131l-.023-.111-.023-.11c-.066-.116-.242-.478-.083-.508s.887.285,1.137.175.255.03.178.114-.737.324-.594.423a5.866,5.866,0,0,1,.525.413.461.461,0,0,0,.317.076c.057-.014.1-.65.242-.863a.9.9,0,0,0,.2-.57l0-.076,0-.123c.116-.133.529-.405.612-.323s.312.331.509.553l.314.159.13.067c.087.144.572.373.491.459s-.52.481-.654.613.737-.055.907-.26a2.547,2.547,0,0,1,.964-.595l.187.094a.691.691,0,0,0,.853-.042l.2-.165c.332-.008.626-.623.626-.863s.452-.373.6-.353a1.871,1.871,0,0,1,.686.384l-.4.224c-.212.119-.211.361-.385.518l-.077.069a.831.831,0,0,0-.652.425l-.14.2a.63.63,0,0,1-.376.081l-.253-.022a3.049,3.049,0,0,1-.745-.24l-.17-.026L82.62,46c-.229-.02-.636.233-.629.35s-.011.271-.007.333.1.086.219.054l.109,0,.51-.018c.569-.025,1.32.008,1.455-.008s.476-.365.549-.476.409-.7.626-.571.452-.169.474-.332.125-.255.229-.2l.012.026c.1.221-.223.791.752.318.02-.009.419.157.429.25l.079.691a4.844,4.844,0,0,0,.956.452l.171-.014.134-.012c.128-.1.1-.25.053-.277s-.866-.154-.751-.327.528.288.907.272a5.908,5.908,0,0,0,1.828-.2c.231-.191.466-.329.521-.307l.036.02c.241.129-.212.484.363.463.209-.008.436-.251.571-.412l.109-.131c0-.142.764-.169,1.021-.137s.138.465-.126.486-.725.037-1.025.037l.083.213.025.064a5.813,5.813,0,0,0,.8.085c.108-.007.808-.257.973-.139a2.321,2.321,0,0,0,.54.29.3.3,0,0,0,.238-.082l.008-.055.009-.061c-.025-.067.505-.316.74-.392a.723.723,0,0,1,.741.315l.27.065.276.065a5.736,5.736,0,0,1,1.5-.09c.2.044.575.124.651.145s1.17-.08,1.545-.017a8.033,8.033,0,0,0,1.385.084l.006-.43,0-.145c.229-.18.72.067.827.205s.928.051,1.224-.06a.838.838,0,0,1,.841.131l.168.093.141.078c.211.068.429-.376.446-.558s.276-.094.314-.01.471.346.259.4.142.152.788.226l.473.052.07.008c.075,0,.495-.038.933-.081l.394-.041a4.524,4.524,0,0,0,1.723-.146c.193-.1.461-.048.486.169s.154.091.349.058l.25-.044a.734.734,0,0,0,.676-.315c.036-.125.543-.136,1.128-.024l.051.4a1.128,1.128,0,0,0,.486.031l.21-.072a.853.853,0,0,1,.8.048c.121.1.514-.1.6-.187a1.685,1.685,0,0,1,.977.068l.275.141.486.25a1.675,1.675,0,0,1,1.2-.212l.288-.025c.332-.027.769-.3.928-.247l.582.207c.19-.239.383-.329.4-.288a6.924,6.924,0,0,0,1.248.222A10.8,10.8,0,0,0,123.2,46.7a4.051,4.051,0,0,1,.79-.02c.122.039.489.013.671.039a8.621,8.621,0,0,0,1.634.243,2.222,2.222,0,0,0,.8-.235l.075-.063.141-.118c.261-.207.474.107.684.11s.936,0,1.611-.01l.479.1a5.085,5.085,0,0,0,1.554.073l.113-.01a8.862,8.862,0,0,0,.987.013c.2-.071.91.061,1.122,0s1.273.081,1.633.063a10.537,10.537,0,0,0,1.12-.122h.243l.3,0c.349.052.638-.052.645-.23l-.017-.118-.013-.093c-.1-.086.181-.158.314-.158s.234.265.2.357.211.256.535.365l.351-.047c.084-.01.145-.08.217-.122.018-.009,1.4-.224,1.415-.217l.576.267a20.457,20.457,0,0,1,2.607-.15c.38.033.969.058,1.075.047a3.6,3.6,0,0,1,.979-.123c.2.067.694-.007.815.038a7.917,7.917,0,0,0,1.054.188l.183-.1.667-.378a24.39,24.39,0,0,0,3.026.478,1.5,1.5,0,0,0,.852-.468c.112-.073.973.434,1.28.416s1.669-.112,2.091-.142a5.44,5.44,0,0,1,.818-.026c.026.017.171.366.329.288a4.414,4.414,0,0,1,.92-.234,3.089,3.089,0,0,1,.926.183l.41-.192c.212-.1.764.081,1.164.082h.256a3.526,3.526,0,0,1,1.048-.065.891.891,0,0,0,.4.027c.044-.026-.012-.088-.122-.133v-.042c0-.046.155-.135.185-.127.172.043.382.179.474.154.2-.056.316-.225.563-.03.023.018.286-.1.41-.089l.289.038c.329.061,1.072.013,1.281.1a3.445,3.445,0,0,0,1.075.091c.191-.027.786.131.945.114s.471-.068.691-.11l.263.071.5.137c.081-.254.206-.221.229-.128s.446.029.578-.016a1.756,1.756,0,0,1,.751.05l.247-.165.215-.142a.51.51,0,0,1,.642.1,2.027,2.027,0,0,0,.941.209c.229-.022.866-.346,1.081-.268a2.449,2.449,0,0,0,1.051.01l.307.174.515.289a11.478,11.478,0,0,1,1.715-.264,3.718,3.718,0,0,1,1.041-.222c.176.027,1.5.179,1.962.184a5.29,5.29,0,0,0,.976-.039c.053-.031.52-.22.619-.12s.6.021,1.116-.175l.3.069.976.224a25.99,25.99,0,0,1,2.847-.064.956.956,0,0,0,.65-.389c.028-.094.622.135.823.242a1.67,1.67,0,0,0,.955-.115.78.78,0,0,1,.541-.041l.109.051c.69.324.707.322,1.36.05.23-.1.613-.142.693-.264l.1-.148a.8.8,0,0,1,.588.088c.053.081.282.072.364.039s.2.221.219.312.6.17.816.174a9.522,9.522,0,0,0,1.085.016,7.027,7.027,0,0,0,1.014-.035,2.967,2.967,0,0,1,.925-.159c.167.022.756.116.919.158a1.662,1.662,0,0,0,.811-.128l.363.132a1.764,1.764,0,0,0,1.114.022l.368-.107a3.015,3.015,0,0,1,1.33.205c.129.1.738-.119.894-.21a2.362,2.362,0,0,1,1.091.132.755.755,0,0,0,.791-.272l.32.073.549.124c.581-.058,1.2-.132,1.289-.119a16.913,16.913,0,0,0,2.414.246,11.974,11.974,0,0,1,2.352-.159,1.074,1.074,0,0,0,.969-.082l.083.022.552.145a13.744,13.744,0,0,1,2.142-.153l.384.17.527.231a10.517,10.517,0,0,1,1.853-.237,4.845,4.845,0,0,1,1.372-.041c.111.107.465.017.606.017s1.289.068,1.685.089.926.047,1.108.035.65.08.8.067a7.306,7.306,0,0,1,1.368-.274c.333.044,1.449,0,1.763.03a11.927,11.927,0,0,0,1.423.088c.24-.033,1.14.052,1.473.022s1.04-.051,1.2-.047.938.314.951.146.117-.162.154-.106,1.031-.084,1.416-.076a6.665,6.665,0,0,0,1.129-.026,8.46,8.46,0,0,1,.922.047c.174-.017.769-.116,1.323-.221l.41.072.618.11a16.075,16.075,0,0,1,1.962-.1l.311-.1.434-.144a2.8,2.8,0,0,0,1.3.077l.37-.033.391-.035a7.643,7.643,0,0,1,1.416.115l.375-.071.368-.069a3.614,3.614,0,0,0,1.448-.2l.408.184.091.042c.257-.078,1.4.139,1.683-.01a1.587,1.587,0,0,1,.861-.182,5.965,5.965,0,0,0,1.044-.1c.3-.024.962-.085,1.471-.139l.5.081.291.048a5.082,5.082,0,0,1,1.3-.233c.128.076,1.429-.158,1.92-.157s1.4-.09,1.6-.114a10.077,10.077,0,0,0,1.154.052,4.175,4.175,0,0,1,1.209-.068l.369-.2.039-.021a2.549,2.549,0,0,0,1.066-.239l.092.107c.264.31.636-.265.822.067a4.269,4.269,0,0,1,.676-.088l.355.312a4.4,4.4,0,0,1,1.2-.524h.388l.759,0a21.929,21.929,0,0,0,2.224-.148l.38-.035.37-.033c.395-.071,2.714-.173,3.428-.308a9.026,9.026,0,0,1,1.943-.182l.3-.089.253-.075a5.836,5.836,0,0,1,.935-.157,4.665,4.665,0,0,0,.76-.23,1.379,1.379,0,0,1,.394-.1c.038,0,.267.043.509.086l-.125-.136-.435-.477a4.2,4.2,0,0,1-.925-.957c.019-.012.436-.188.928-.392l-.58-.488-.235-.2c.11-.192.262-.485.339-.651l-.236-.136-.2-.114c-.032-.17-.089-.472-.127-.672l.02-.139.047-.337c-.369-.016.038-.207.171-.357a7,7,0,0,1,.852-.72l-.52-.17c-.671-.218-.783-.405-.311-.766l.173-.132c.023-.238-.318-.643-.476-.736s-.224-.2-.193-.221.114-.154.208-.169.077-.246.153-.3a7.888,7.888,0,0,0,.856-.451c.135-.135.165-.294.066-.356l-.078,0a.755.755,0,0,1-.7-.376l-.135-.231a1.006,1.006,0,0,1,.706-.382c.139.008.48-.406.563-.416a.813.813,0,0,1,.421.167,2.8,2.8,0,0,0,1.006-.144c.253-.076.02-.2-.125-.182s-.911.166-.884.026a.176.176,0,0,0-.127-.225c-.052,0-.527.173-.675.1s-.485-.263-.576-.312.425-.12.607-.09a3.533,3.533,0,0,0,.856,0,1.776,1.776,0,0,1,.771.111c.127.078.132-.026.009-.231l-.142-.161-.075-.082c.011-.12.763-.3.922-.427s-.065-.472-.177-.54-.122-.289-.024-.5l.128-.176.242-.335c-.619-.165-.638-.272-.042-.238l.043.075.108.187a.538.538,0,0,0,.538-.2l-.186-.118c-.032-.02.083-.12.132-.183.177-.229.043-.314-.372-.318h-.157c-.171-.069-.157-.231-.1-.271a4.991,4.991,0,0,0,.44-.4l-.132-.159a1.282,1.282,0,0,0-1.04-.544l-.084.014c-.1.073-.4-.174-.474-.274s.381-.409.561-.49-.423-.192-.627-.205-.117-.288-.039-.369a.636.636,0,0,1,.363-.161l.028.016.222.112a1.085,1.085,0,0,0,.72.065c.078-.047-.136-.34-.3-.6a.892.892,0,0,0-.836-.375l-.112-.12-.264-.288c.412-.178.447-.416.336-.451a2.078,2.078,0,0,0-.863.193l-.3-.274-.02-.018c-.046-.01-.106.084-.13.212l-.094.09-.144.139a1.422,1.422,0,0,1-.884.061c-.128-.073.1-.37.5-.657l.063-.254c.056-.22-.283-.471-.426-.711l-.021-.037c.089-.078.682.263.935.374a1.338,1.338,0,0,0,.829-.013,2.058,2.058,0,0,1,.871.063c.166.072.238-.041.161-.251l-.049-.183-.061-.225a5.7,5.7,0,0,1-1.118-.106l-.011-.073-.052-.369a.486.486,0,0,1-.671-.047l-.081.007c-.5.041-.353-.222-.525-.325l-.082-.05c-.183,0-.955-.071-.987-.207a1.066,1.066,0,0,1,.208-.57c.078-.1.718.137.969.171s1.446-.021,1.77.075a8.493,8.493,0,0,0,2.048.3,6.891,6.891,0,0,1,1.591-.116,6.06,6.06,0,0,0,.791.174l.027-.03c.218-.237.459.03.655-.021l.231-.06c.183-.077-.046-.359-.185-.443s-.345-.555-.112-.627-.036-.967-.181-1.242-.2-.782.023-.793a10.829,10.829,0,0,0,1.116-.154l.088-.237.062-.161c0-.243.327-.323.737-.176M4.526,34.275c-.177.152-.362.406-.573.417-.582.029-.135-.337-.374-.451-.289-.137-.148-.209.034-.324.234-.146.3.01.439.054l.159.048c.189.03.351.127.362.214Zm3.927-3.946c-.232-.038-.855-.425-.686-.634s.365-.251.434-.091l-.019.111c-.039.237.068.374.51.393l.056,0c.071.158-.062.256-.3.218M76.28,44.615a5.526,5.526,0,0,0-1.14-.359c-.237,0,.088-.093.721-.2l.524.294.066.038a.449.449,0,0,1,.58.285c0,.135-.566.021-.752-.055m3.934-.259a6.492,6.492,0,0,0-1.267.112c-.17.071-.866.345-1.015.213s.045-.315.428-.4l.312-.1.33-.107a5.466,5.466,0,0,0,1.094.071c.19-.039.983-.157,1.111-.024s-.7.242-.993.24m8.218-.179-.146.1a.512.512,0,0,1-.235.072l-.427-.242a3.176,3.176,0,0,1-1.455-.01c-.159-.089-.234-.225-.212-.248a1.6,1.6,0,0,1,.538.073c.276.064,1.512-.137,1.784-.1s.342.192.153.356m6.049,1.788c-.242.014-.146-.524-.161-.724s.015-.174.071.055.331.655.09.669m10.812-.169-.056.076a1.911,1.911,0,0,1-.993-.209l-.371-.128-.3-.1c-.222-.316-.292-.561-.155-.544a1.834,1.834,0,0,1,.687.444l.251.084.222.075c.4-.033.756.064.785.214Zm38.793-.933a4.038,4.038,0,0,1-.961.187c-.146-.055-.174-.22-.064-.366l-.108-.149-.025-.035a2.083,2.083,0,0,1,.822-.128c.385-.007.607.443.336.491m50.307-.014a1.5,1.5,0,0,1-.976-.467c-.091-.2.352-.281.435-.205s.487.318.63.406.1.209-.089.265m79.618-23.224c-.248-.06-.974-.378-1.384-.528l.33-.277.457-.383c.253.3.758.873.9,1.031s.007.23-.3.157m5.836-.074-.011.1-.024.227c-.269-.017-1.19-.267-1.261-.491s.037-.224.241,0l.285.076.19.051c.542-.195.8-.18.58.031m6.463-.409-.215-.192-.292-.259c-.422-.016-.5.1-.172.254l-.687.009-.284,0c-.371-.072-.529.076-.351.328l.189.184a.755.755,0,0,0,.446.195l.8-.1c.664.29,1.095.455.957.365s.173-.454.3-.478-.181-.165-.7-.308" transform="translate(0.344 -0.276)" fill="#ffffff"/>
  </g>
</svg>
