<svg id="Group_4" data-name="Group 4" xmlns="http://www.w3.org/2000/svg" xmlns:xlink="http://www.w3.org/1999/xlink" width="380" height="70.516" viewBox="0 0 380 70.516">
  <defs>
    <clipPath id="clip-path">
      <rect id="Rectangle_3" data-name="Rectangle 3" width="380" height="70.515" fill="#2e4f93"/>
    </clipPath>
  </defs>
  <g id="Group_3" data-name="Group 3" transform="translate(0 0)" clip-path="url(#clip-path)">
    <path id="Path_12" data-name="Path 12" d="M376.56,27.1l.374-.018.465-.02c.524-.2.542-.474.036-.607L377,26.307c-.133-.045-.27-.194-.259-.286s.234-.237.334-.227a1.367,1.367,0,0,0,1.171-.378.26.26,0,0,0-.02-.345.841.841,0,0,0-.52-.069l-.157.027c-.155.119-.314-.143-.353-.583l-.615-.256c-.281-.116-.421-.405-.578-.63-.226-.329.085-.648.672-.585l.3.031c.072-.086-.595-1.1-1.154-1.11s-1.748.08-1.984.039a5.665,5.665,0,0,0-.876-.076l-.226.023-.4.043c-.422.055-.769-.456-.769-.621s.97-.349,1.314-.364.036-.112-.68-.211l-.64-.041c-.758-.047-1.356-.867-1.033-1.349l.3-.446c-.091-.48-.559-1.5-.4-1.7s-.086-.47-.546-.609l-.22-.182c-.383-.313-.62.632-.992.016l-.129-.211a6.965,6.965,0,0,0-.959-.439,5.634,5.634,0,0,1,1.254-.394c.372-.084.29-1.915-.082-2.59s.727-.789,1.18-.646.8,0,.777-.323l-.162-.159-.251-.247a1.4,1.4,0,0,1-.636-.724c.017-.086-.253-.131-.6-.1l-.314.039c-.053.006-.091.08-.144.086-.091.008-.248,0-.27-.029-.05-.074-.093-.219-.038-.247l.242-.117c.29-.106.585-.274.573-.337s-.146-.11-.3-.108l-.138-.008-.13-.008c-.133-.02-.377-.523-.54-1.118l-.115-.544-.055-.258a1.9,1.9,0,0,1,.352-1.03l-.543-.174-.011,0c.129-.2-.1-.452-.22-.488s-.73-.215-1.345-.4l-.082-.239c-.181-.533-1.136-.568-1.235-.84l-.2-.55a14.23,14.23,0,0,0-2.866-.542,1.066,1.066,0,0,1-1.042-.384c-.011-.119-.485-.1-.626-.065s-1.474-.431-2.008-.435a13.132,13.132,0,0,0-1.387,0c-.166.041-1.146.356-1.1.137s-.348-.176-.538-.125-1-.133-1.264-.1a12.09,12.09,0,0,1-2.122-.264c-.439-.112-1.356-.321-2.034-.464l-.308-.482c-.1-.151-.6-.225-.937-.251-.209-.018-.505.215-.661.172-.543-.151.3-.343.061-.423-.493-.166-1.254-.448-1.538-.321A1.879,1.879,0,0,1,344.678.6a5.483,5.483,0,0,0-2.841-.188l-.8.194a.483.483,0,0,0-.835.325L339.339.5l-.463-.233a5.03,5.03,0,0,0-2.047.19,2.245,2.245,0,0,1-1.171-.061,2.707,2.707,0,0,0-1.1-.178c-.173.023-1.086-.19-.928.065s-.64.086-.846,0-.979-.358-1.165-.26a1.655,1.655,0,0,1-.488.155,5.162,5.162,0,0,0-.837.47l-.673-.19-.579-.164c-.6.3-1.534.912-1.792.8a4.661,4.661,0,0,0-1.469-.161l-.46-.17-.1-.037c-.214.088-1.519-.241-1.99-.188a5.379,5.379,0,0,0-1.05.182c-.061.049.071.39.154.527s-.429.082-1.135-.117l-.078.07-.5.45c-.728-.055-1.472-.065-1.565-.076a3.027,3.027,0,0,1-.709-.388l-.392-.018c-.534-.023-1.323-.153-1.555.023l-.556.423c-.513-.184-.548-.033-.375.1s-.968-.057-1.121-.151-.416-.253-.476-.276a5.7,5.7,0,0,1-1.078.217c-.3-.045-1.183-.1-1.4-.176s-1.1-.219-1.143-.016-.661.4-1.383.427l-.378-.206-.716-.388a8.089,8.089,0,0,1-1.752.233l-.154.057-.317.117a6.424,6.424,0,0,0-1.322.247l-.493-.065-.5-.065a3.853,3.853,0,0,1-1.56-.356c-.209-.164-1,.112-1.2.245s-.636-.043-.772-.186-.578-.057-.979.19l-.3-.02-.386-.023a7.447,7.447,0,0,0-1.722.09l-.483.08-.126.022a7.577,7.577,0,0,0-1.031-.161,6.427,6.427,0,0,1-1.223-.09l-.234.11a1.451,1.451,0,0,1-1.681-.3l-.06-.039c-.119-.006-.326.368-.367.515s-.747-.076-1.02-.033-1.389.3-1.75.35a4.213,4.213,0,0,1-1.559-.215l-.468-.022-.363-.02a1.1,1.1,0,0,0-.879.517c-.039.159-.651-.386-.772-.356a8.153,8.153,0,0,1-1.945.239,7.256,7.256,0,0,0-1.469-.184,2.747,2.747,0,0,1-.689.2,3.518,3.518,0,0,1-.907-.253l-.474.237-.352.178c-.612.031-1.4.084-1.749.117l-.268-.076-.165-.047c-.11-.268-.4-.112-.444-.02s-.524-.2-.746-.274-1.786.008-2.317-.037-1.466.2-1.706.155a7.956,7.956,0,0,0-1.469.186,6.847,6.847,0,0,1-1.584.057c-.281-.067-1.486-.317-1.5-.1s-.1.354-.206.3l-.094-.051-.937-.5a4.882,4.882,0,0,1-1.771.583l-.006-.035c-.069-.429-.253-.544-.876-.29l-.2.082a2.537,2.537,0,0,0-1.351.084l-.428-.012c-.623-.014-1.231.08-1.88.057l-.637-.025c-.768.014-2.185.5-2.584.5a14.432,14.432,0,0,1-2.116-.39.8.8,0,0,0-.841.37c-.031.135-.292-.029-.581-.366l-.673.284-.358.151a11.6,11.6,0,0,0-1.386.313,9.928,9.928,0,0,1-1.573-.067c-.353-.016-1.353-.37-1.623-.245a12.683,12.683,0,0,1-1.738.341c-.341.057-.976.18-1.413.274l-.363-.307-.226-.19a1.385,1.385,0,0,0-.554.769l-.287-.27-.482-.454a3.208,3.208,0,0,1-1.686.341l-.446-.016c-.534-.02-1.07-.006-1.606-.006h-1.072c-1.177,0-2.648-.008-3.268-.02l-.537.053c-.529.051.648.366-.08.505l-.689.131c-.231-.419-.926-.305-1.055-.19s-1.1.331-1.171.217a3.4,3.4,0,0,0-1.366-.439,7.365,7.365,0,0,1-1.987.106.514.514,0,0,0-.7.2c-.033.149-.427-.025-.545-.112a3.788,3.788,0,0,0-1.056-.309l.019.458,0,.067c-.11.074-1.322-.4-1.829-.337s-.822-.055-.7-.262l-.025-.008-.775-.264a.45.45,0,0,1-.615.388c-.152-.1-.623.053-.757.135a1.309,1.309,0,0,1-.644.147,1.02,1.02,0,0,1-.444-.56l-.5.176c-.035.012.2.325.256.505l.019.061c-.105.078-.6-.094-.763-.184s-1.1.217-1.311.022a1.8,1.8,0,0,0-.794-.415c-.138.012-.946.063-1.8.114l-.757.094-.432.053c-.463-.033-1.273-.121-1.8-.2l-.531.117c-.311.067-.763-.17-1.091-.116l-.593.1c-.535-.114-1.8.151-2.094.061a6.867,6.867,0,0,0-.91-.149,3.31,3.31,0,0,0-.978.119l-.254.014c-.531.029-1.169-.472-1.595.133l-.03.041a2.7,2.7,0,0,1-.658-.5c-.132-.135-.744.018-.884.135s-.994.092-1.019-.055-.4-.031-.545.063a.7.7,0,0,1-.683-.147L198.32,3.4l-.135-.067a1.8,1.8,0,0,0-.934.388L196.7,3.6c-.268-.061-.689.208-.984.163l-.284-.043c-.273-.245-.918.076-1.033.088s-1.122-.619-1.555-.47A9.881,9.881,0,0,1,190.8,3.6c-.344-.012-1.829.6-2.364.472a15.032,15.032,0,0,0-2.78-.174,6.813,6.813,0,0,1-1,.133,9.2,9.2,0,0,1-1.048-.28l-.574.063a14.954,14.954,0,0,1-2.314-.108,1.2,1.2,0,0,0-.372.039c-.02.58-.3.227-.634.116l-.319-.106a2.388,2.388,0,0,0-1.135.182,2.475,2.475,0,0,1-1.149-.063l-.5-.025-.592-.031a14.24,14.24,0,0,0-2.127-.153c-.2.1-.849.125-1,.213a1.861,1.861,0,0,1-.752.163l-.21-.049-.524-.123a4.125,4.125,0,0,0-1.863,0l-.452-.276c-.044-.027-.317.164-.472.155l-.267-.014a2.313,2.313,0,0,0-1.133.151,1.244,1.244,0,0,1-.366.19c-.031-.008-.4-.243-.535-.331s-1.019.253-1.378.186a11.5,11.5,0,0,0-2.056-.3c-.359.061-.786.116-.837.125s-1.006-.378-1.07-.123-.078.166-.031-.2l-.662.288-.871.376a.713.713,0,0,0-.436-.881l-.27.192-.058.039a5.15,5.15,0,0,1-2.078.163,1.869,1.869,0,0,0-.651-.172l-.077.051-.681.444a5.4,5.4,0,0,1-.9-.5c-.066-.076-.432.022-.815.217l-.292.151-1.278-.317-.427-.166a2.807,2.807,0,0,0-1.3.352c-.1.1-.372-.11-.424-.194s-.622.039-.843.006a3.513,3.513,0,0,0-1.168-.012c-.3.092-1.46.552-1.424.315s-.521-.159-.819-.153a17,17,0,0,1-2.751-.642l-.917.848-.011.01c-.333-.145-1.3.266-1.672.155s-1.678-.014-2.164-.067a9.957,9.957,0,0,0-2.37.1c-.364.131-.766.27-.791.27a6.773,6.773,0,0,1-.565-.5c-.133-.131-.644.025-.775.11a3.256,3.256,0,0,1-1.469-.225l-.631.421-.107.07a10.733,10.733,0,0,0-1.684-.186l-.416-.159c-.477-.182-.647.54-1.163.1a2.077,2.077,0,0,0-1.045.057l-.631.159a1.173,1.173,0,0,0-.818-.476c-.13.049-.716.245-1.3.437l-.518-.016-.662-.022a10.293,10.293,0,0,0-1.692-.339v0l.011.507a2.71,2.71,0,0,0-1.287-.331,1.439,1.439,0,0,1-.713.006l-.124.018c-.209.029-.389.143-.6.178a3.816,3.816,0,0,1-.6.006h-.268c-.293,0-1.092-.076-1.312-.1s-.793-.1-1.276-.174l-.174.114-.535.35c-.345-.28-1.336-.356-1.367-.215s-.775.016-1.077.014a9.8,9.8,0,0,0-1.2.084l-.11-.086-.543-.431c-.727.1-2.158.231-3.183.284l-.932.022c-.317.008-.851-.182-.923-.114l-.428.407a9.834,9.834,0,0,0-2.412-.076,20.916,20.916,0,0,0-2.276.053l-.565-.378-.069-.047a1.268,1.268,0,0,0-.612.394c-.077.106-.334-.084-.4-.176a4.964,4.964,0,0,0-1.863.3l-.794-.092-.6-.07c-.509.1-1.742-.223-1.913,0s-.4.027-.444-.137-.341.072-.411.174-1.122-.343-1.351-.082a.713.713,0,0,1-.777.149,6.4,6.4,0,0,0-1.538-.323l-.4.19a3.857,3.857,0,0,1-2.455.186l-.862-.188a17.252,17.252,0,0,0-2.188.215c-.082.137-.422.176-.527.147s-.306.172-.352.258-.527-.1-.686-.192a2.48,2.48,0,0,0-1.312.2L79.7,4.581c-.361-.431-.744.247-1.075-.094l-.149-.157a8.668,8.668,0,0,0-1.653.362,1.547,1.547,0,0,1-.94-.194c-.16-.106-.6.092-.7.186s-.815.159-.848.043-.218-.159-.408-.094l-.177,0-.6.014a19.778,19.778,0,0,0-2.149.135c-.25.051-.849.227-1.329.392l-.476,0h-.261a5.911,5.911,0,0,1-1.216-.313l-.441.27-.184.114a25.277,25.277,0,0,0-3.134-.006c-.581.088-1.417.2-1.557.2a8.8,8.8,0,0,0-2.573-.523,15.236,15.236,0,0,0-1.533.4l-.168.057c-.319.1-.841.339-.937.278l-.95-.6c.02.48-.223.675-.361.564s-1.037-.09-1.053.069-.626.057-.89.041a8.275,8.275,0,0,0-1.285.084L52.51,5.7l-.862-.638c-.019.505-.273.775-.389.7s-.5.2-.62.325-.587-.112-1.044-.54l-.6.462-.085.067a12.908,12.908,0,0,1-1.436.256l-.593.116-.078.016a1.077,1.077,0,0,1-.284-.319c-.033-.065-.144-.049-.246.035l-.083.08-.074.074c-.074.09-.419-.078-.5-.149s-.9.208-1.235.159-1.436.025-1.752.006a3.761,3.761,0,0,0-.752.01l-.1.016-.306.051c-.292.1-.923.325-1.4.493l-.229-.249-.46-.5a4.38,4.38,0,0,1-2.135.143l.028.65,0,.025c-.072.027-1.4-.4-1.783-.155a3.2,3.2,0,0,1-1.036.45c-.1-.016-.76-.166-1.458-.335l-.165.131c-.436.347-1-.153-1.409.215a1.011,1.011,0,0,1-1.245.031c-.014-.014-.436.1-.439.153-.02.548-.264.213-.633.141l-.358-.07c-.494.02-2.406-.223-2.976-.117s-1.135.227-1.26.27l0,.047-.071.636a10.191,10.191,0,0,0-1.5-.421L22.88,8.2l-.016.065c-.108.061-.728-.137-.946-.072a3.1,3.1,0,0,1-1.161.1c-.276-.076-.826.415-.943.617s-.617.1-.722.039a5.7,5.7,0,0,0-1.205-.21c-.284-.008-.766.478-1,.378a3.445,3.445,0,0,0-1.216-.139l-.232.239-.237.247c-.276.354-1.009.074-1.257-.049s-1.505.145-1.847.029a3.132,3.132,0,0,0-1.11-.161l-.127.1-.232.184a.707.707,0,0,1-.986.072c-.1-.147-.4.086-.455.168s-.589.02-.665.139a.411.411,0,0,1-.421.151l-.144-.016c-.314-.031-.629-.055-.946-.065H6.977c-.039.1.289.26.421.292s-.3.366-.951.748L6.2,10.714l-.466-.662a2.569,2.569,0,0,0-1.386.8c-.042.145-.422.041-.848-.229l-.4.384a1.065,1.065,0,0,1-1.45.069l-.05-.031c-.2.055.212.76-.071.946a2.37,2.37,0,0,1-1.108.233c-.155-.027-.187.063-.067.2l.02.131c.019.116-.105.237-.141.358l-.14.472c.386.415.545.822.488.848L0,14.49l.022.069c.168.511.493-.041.54,0,.171.161.749.151.428.546l-.347.427c.527-.164.965-.029.973.3l-.017.176c-.042.47-.061.885.791,1.118l.339.094A1.842,1.842,0,0,1,3.058,18.4l.16.266.041.067c.132.049.89.521,1.686,1.049L4.82,21.059l-.013.125c.042.172.622.325,1.289.339l.585-.033.308-.018c.548-.151.6.065.124.478l-.279.276-.052.051a.345.345,0,0,0,.38.129l.144-.023.179-.027a.445.445,0,0,1,.463.27l-.038.147-.041.157c-.137.163-.551.842-.428,1.042a2.783,2.783,0,0,0,.317.425l.328.223c.078.053.593-.392.895-.36s.323.846.05,1.809l2.081.061c.132,0,.383.488.3.7l-.072.2c-.466-.008-1.645-.317-1.807-.127s.162.646.319.75a4.07,4.07,0,0,0,1.461-.121c.314-.082.746-.217.957-.3l.166-.1.111-.063c.083-.1.4,0,.5.067a4.065,4.065,0,0,1,.552.685l-.333.307-.031.029a10.9,10.9,0,0,0,1.83.625,1.528,1.528,0,0,0,1.19-.268l.17.37c.115.251.166.423.59.366l.945-.125c.9.268,2.077.55,2.234.583a8.411,8.411,0,0,1,1.388,0c.251.11-.333.46-1.3.779l.1.824a1.269,1.269,0,0,1-.337.078l-.611.09c-.173.358-.614,1.091-.391,1.141a2.545,2.545,0,0,0,.785-.012c.105-.029.141.084.083.253l-.063.151-.061.145c-.075.157.177.159.562,0l.3-.117L20.78,33c.276.1.413.345.378.405a3.717,3.717,0,0,1-1.808.211c-.433-.186-.84-.213-.9-.063l.035.114.115.366a1.773,1.773,0,0,1-.02,1.384l.3.325.135.145a2.533,2.533,0,0,0,1.133.268l-.022.439-.009.194c.425.229.275.529.135.56s1.482.993,1.323,1.333.476.873.769.973-.411.611-.824.611-1.257-.055-1.526-.041a9.632,9.632,0,0,1-1.488.208,4.456,4.456,0,0,0-.783-.112l0,.018c-.152.818-.692.307-1.16.17l-.111-.033c-.206.09-.193.294-.126.345a1.7,1.7,0,0,1-1.183.229c-.333-.157-.7.274-.736.525s-.5.18-.589.123-.64-.4-.757-.307a4.356,4.356,0,0,1-.535.352,7.5,7.5,0,0,1-1.174.139c-.273,0-.655.38-.807.425s-.505.178-.783.294l-.046.139a11.879,11.879,0,0,0-.457,1.878l-.031.208c.174.247-.1.57-.6.717L8.4,45.033a1.078,1.078,0,0,0-.744-.5L6.6,44.657c-.87-.39-2.744.333-3.439.505s-.755.35-.133.4l.086.137a.892.892,0,0,0,.72.472c.353.074.248.578-.113.746-.148.067-.408.061-.5.145-.174.161-.377.37-.345.54l.019.1c.414.094.455.217.089.27l-.089.11c-.306.384-.611-.253-.873.025-.235.249-.488.489-.7.744-.089.1-.082.245-.152.358l-.221.352a1.474,1.474,0,0,0,1.331.507l.27-.149.254-.143c.436-.088.441,1.022-.157,1.216A1.519,1.519,0,0,0,1.673,52.1a4.717,4.717,0,0,0,.639,1.253l-.071.488-.025.176c-.121.209.143.251.589.088L3,54.166l.361.112a3.093,3.093,0,0,0-.51.769l.2.206.389.4a2.022,2.022,0,0,1,.733-.413,10.059,10.059,0,0,1-.35,1.559c-.124.421-.2,1.482.122,1.606a2.413,2.413,0,0,0,1.253.053l.342-.029.292-.025c.4.049-.038.955-.4,1.19s-.874.56-1.133.722l.256.18c.237.168.29.278-.02.384a3.787,3.787,0,0,1-.87.208c-.648.055-.138.221-.162.36-.047.264-.449.5.374.464a5.25,5.25,0,0,0,1.5-.237.8.8,0,0,1,.52.024l.155.117a.579.579,0,0,0,.521.231,5.36,5.36,0,0,1,1.089.217,7.435,7.435,0,0,1,1.191.423,3.917,3.917,0,0,0,1.094.478l.472-.184c.067-.027.391.1.408.176l.163.691c.821-.049,2.7-.135,3.155-.112s1.033.012,1.155.039,1.268.141,2.547.253l.724.732.02.02c.14-.027,1.692.131,1.825.4s1.031.139,1.37.108,1.635.386,2.045.37a14.981,14.981,0,0,1,2.191.08,1.4,1.4,0,0,0,.848.022l.11-.02.582-.11c-.086.256.132.423.487.37l.328-.037c.027,0,.122.141.132.219l.022.164c-.009.339.593-.006.73-.145s.713-.08.893-.012,0,.241-.389.386l-.011.123c-.044.448.531.251.862.27.091,0,.2-.168.311-.256l.091-.072c.108-.074.779.237.964.086s.777.084.926.229,1.65-.272,1.945-.114a4.417,4.417,0,0,0,1.045.384l.151-.067.259-.116c.209-.2,1.339.029,1.723.012s.973-.108,1.141-.09.763.037,1.325.043l.4-.137c.757-.256.769.517,1.38.38l.058-.014c.06-.022.987-.431.94-.186s.1.208.173.112.574.1.714-.014.738-.568.976-.517a1.977,1.977,0,0,1,.753.5c.1.127.529-.117.645-.235s.428.19.694.687l.37-.417c.551-.623.8-.5,1.337-.1a.681.681,0,0,0,.4.072c.49-.386.788-.008,1.152.112.278.09.551.19.838.264l.554.147a11.166,11.166,0,0,0,1.384-.233c.121-.055.686-.215.815-.131s.527-.07.64-.151a.871.871,0,0,1,.559-.092l.143.072.21.106a1.216,1.216,0,0,0,.946-.08c.163-.1.427.067.476.157a12.72,12.72,0,0,0,1.717-.07c.463,0,1.253.033,1.438-.006s1.114-.219,2.066-.4l.531.2.722.274c.724-.08,2.576.211,3.175.084a21.157,21.157,0,0,1,2.524-.38c.505-.01,1.358.027,1.893.08l.515-.1.744-.149a2.366,2.366,0,0,0,1.968-.027,4.244,4.244,0,0,1,1.645-.119c.328.022,1-.055,1.259-.014a7.889,7.889,0,0,0,1.791.225,10.784,10.784,0,0,1,1.351-.223l.441.174.352.139a17.266,17.266,0,0,1,2.059-.3l.414.031c.328.023.472.339,1.006.2.68-.176,1,.082.764.523l-.08.151c-.166.151,1.237.615,1.427.486s-.224-.48-.45-.578-.218-.194.017-.213l.063-.053c.181-.149.276-.415.485-.458s.529.186.8.184c.622,0,1.1.014,1.282.529l.074.21c.413.172,1.161.446,1.662.607l.06.29.033.163c.067.176.35.041.628-.3l.422-.26c.476-.3,1.251-.343,1.491-.889.135-.305.844-.813,1.081.08l.016.059c.27.033,1.072.315,1.077.472a.891.891,0,0,1-.33.542,6.985,6.985,0,0,1-1.248.237l-.259-.441-.049-.084a1.335,1.335,0,0,0-.717.178c-.116.076.359.319.557.382a7.617,7.617,0,0,1,.722.276c.091.051.483.446.667.372a4.373,4.373,0,0,0,.983-.826l.741.022a12.682,12.682,0,0,0,3.127-.458c.061-.014.239.106.278.184l.03.061a2.969,2.969,0,0,1-.866.3c-.2.029-1.27.3-1.27.529s-.741.484-1,.505a.849.849,0,0,0-.454.131c0,.025,1.034.045,1.413.045a4.074,4.074,0,0,0,1.555-.722c.254-.211.661.1.719.237s-.243.3-.667.35l.245.349.013.018a3.4,3.4,0,0,1,1.2-.055c.126.059.289-.208.361-.589l.077,0,.454-.018c.557.067,1.025-.022,1.037-.2l-.03-.166-.03-.164c-.088-.174-.32-.717-.11-.762s1.174.427,1.505.262.337.045.235.17-.976.486-.786.634a8,8,0,0,1,.7.619.555.555,0,0,0,.419.114c.075-.022.127-.973.32-1.292a1.469,1.469,0,0,0,.265-.854l0-.114,0-.184c.154-.2.7-.605.81-.484s.411.5.673.828l.416.239.173.1c.115.215.755.558.65.687s-.687.721-.865.918.975-.082,1.2-.39a3.341,3.341,0,0,1,1.276-.891l.248.141a.833.833,0,0,0,1.129-.063l.264-.247c.438-.012.829-.934.829-1.292s.6-.558.791-.529a2.406,2.406,0,0,1,.907.576l-.535.335c-.281.178-.279.542-.51.775l-.1.1a1.1,1.1,0,0,0-.863.636l-.185.3a.772.772,0,0,1-.5.119l-.334-.033a3.693,3.693,0,0,1-.986-.36l-.224-.037-.242-.043c-.3-.027-.841.349-.832.525s-.014.405-.009.5.135.131.29.08l.143-.006.678-.027c.752-.037,1.745.012,1.924-.012s.629-.544.725-.713.543-1.051.83-.856.6-.253.628-.5.165-.382.3-.3l.016.039c.138.331-.3,1.185,1,.476.027-.014.554.235.568.376l.105,1.034a6.1,6.1,0,0,0,1.265.677l.226-.022.177-.018a.3.3,0,0,0,.071-.415c-.064-.041-1.146-.231-.994-.489s.7.431,1.2.409a6.994,6.994,0,0,0,2.419-.3c.306-.286.617-.493.689-.46l.047.029c.319.2-.281.724.48.693.276-.012.578-.376.755-.617l.144-.2c0-.213,1.011-.253,1.351-.206s.182.7-.166.728-.959.055-1.356.055l.11.319.033.1a6.835,6.835,0,0,0,1.063.127c.144-.01,1.07-.386,1.289-.208a2.913,2.913,0,0,0,.716.435.366.366,0,0,0,.314-.123l.011-.082.011-.092c-.031-.1.669-.474.981-.587a.91.91,0,0,1,.981.472l.358.1.366.1a6.721,6.721,0,0,1,1.984-.135c.264.067.761.186.863.217A20.176,20.176,0,0,1,133.128,70a9.41,9.41,0,0,0,1.833.125l.008-.644,0-.217c.3-.27.953.1,1.094.307s1.227.076,1.62-.09a1,1,0,0,1,1.111.2l.223.141.188.116c.279.1.568-.564.592-.834s.364-.143.413-.018.625.519.344.593.188.229,1.042.341l.626.078.093.012c.1,0,.655-.059,1.235-.121l.521-.059c.753-.086,1.565.194,2.282-.221a.4.4,0,0,1,.642.253c.03.305.2.137.461.086l.331-.067a.937.937,0,0,0,.895-.472c.047-.188.719-.2,1.493-.035l.067.6a1.3,1.3,0,0,0,.644.049l.278-.108a1.016,1.016,0,0,1,1.058.072c.159.153.68-.155.791-.28s.694-.078,1.293.1l.364.211.644.374a2.016,2.016,0,0,1,1.584-.317l.381-.037c.439-.041,1.017-.456,1.227-.37l.771.309c.253-.358.507-.493.529-.431a8.323,8.323,0,0,0,1.651.335,13.443,13.443,0,0,0,1.566-.022,4.629,4.629,0,0,1,1.045-.031c.162.059.648.022.888.059a10.163,10.163,0,0,0,2.163.364,2.7,2.7,0,0,0,1.055-.352l.1-.094.185-.174c.345-.311.628.159.906.163s1.238,0,2.131-.016l.634.147a5.962,5.962,0,0,0,2.056.11l.148-.016a10.392,10.392,0,0,0,1.307.02c.267-.106,1.2.092,1.485,0s1.684.119,2.161.092a12.378,12.378,0,0,0,1.482-.182l.322,0,.4,0c.461.078.844-.076.854-.345l-.022-.176-.017-.139c-.133-.129.24-.237.416-.237s.309.4.27.535.279.384.708.546l.465-.07c.11-.016.191-.119.287-.182.024-.014,1.854-.335,1.873-.325l.763.4a23.953,23.953,0,0,1,3.45-.225,13.98,13.98,0,0,0,1.422.07,4.243,4.243,0,0,1,1.295-.184c.267.1.918-.01,1.077.057a9.466,9.466,0,0,0,1.4.282l.242-.157.882-.566a28.807,28.807,0,0,0,4,.717,1.95,1.95,0,0,0,1.127-.7c.148-.11,1.287.65,1.694.623s2.208-.168,2.767-.213a6.364,6.364,0,0,1,1.083-.039c.035.025.226.548.435.431a5.3,5.3,0,0,1,1.218-.35,3.669,3.669,0,0,1,1.226.274l.543-.288c.281-.149,1.012.121,1.54.123h.339a4.128,4.128,0,0,1,1.386-.1,1.052,1.052,0,0,0,.529.041c.058-.039-.016-.129-.162-.2l0-.063c0-.069.206-.2.245-.19.228.065.505.268.626.231.264-.084.419-.337.747-.045.03.027.378-.157.543-.133l.381.057c.436.092,1.42.02,1.7.149a4.041,4.041,0,0,0,1.42.137c.254-.041,1.042.2,1.252.17s.623-.1.915-.164l.348.106.664.206c.107-.38.273-.331.3-.19s.59.041.764-.025a2.062,2.062,0,0,1,.994.074l.326-.247.284-.213a.624.624,0,0,1,.849.147,2.43,2.43,0,0,0,1.245.313c.3-.033,1.146-.519,1.43-.4a2.872,2.872,0,0,0,1.391.016l.407.258.681.435a13.547,13.547,0,0,1,2.27-.4,4.43,4.43,0,0,1,1.378-.333c.232.041,1.982.268,2.6.276a6.2,6.2,0,0,0,1.292-.059c.071-.047.687-.329.819-.18s.8.033,1.477-.262l.4.1,1.292.335a30.391,30.391,0,0,1,3.767-.1,1.25,1.25,0,0,0,.86-.583c.038-.141.822.2,1.089.362a1.963,1.963,0,0,0,1.263-.172.922.922,0,0,1,.716-.061l.144.076c.913.486.935.482,1.8.074.3-.145.81-.213.915-.4l.129-.221a.959.959,0,0,1,.779.131c.071.121.374.108.482.059s.268.331.29.468.8.255,1.08.26a11.5,11.5,0,0,0,1.436.023,8.448,8.448,0,0,0,1.342-.051,3.476,3.476,0,0,1,1.224-.241c.221.033,1,.174,1.216.237a1.99,1.99,0,0,0,1.074-.192l.48.2a2.078,2.078,0,0,0,1.474.033l.487-.161a3.579,3.579,0,0,1,1.759.307c.171.147.976-.178,1.183-.315a2.787,2.787,0,0,1,1.444.2.936.936,0,0,0,1.047-.407l.424.11.727.186c.769-.086,1.585-.2,1.706-.178a19.872,19.872,0,0,0,3.194.368,14.024,14.024,0,0,1,3.111-.239,1.281,1.281,0,0,0,1.284-.123l.11.033.73.217a16.107,16.107,0,0,1,2.835-.229l.509.255.7.347a12.384,12.384,0,0,1,2.452-.354c.41-.039,1.667-.223,1.816-.061s.615.025.8.025,1.706.1,2.23.133,1.226.07,1.466.053.86.119,1.059.1a8.446,8.446,0,0,1,1.81-.411c.441.065,1.918,0,2.331.043a13.99,13.99,0,0,0,1.885.131c.317-.049,1.508.078,1.949.033s1.376-.076,1.588-.07,1.242.47,1.257.219.157-.243.207-.159,1.362-.125,1.872-.116a7.668,7.668,0,0,0,1.494-.037,9.538,9.538,0,0,1,1.22.072c.231-.027,1.017-.176,1.75-.333l.543.108.818.164a19.157,19.157,0,0,1,2.6-.155l.411-.153.574-.213a3.285,3.285,0,0,0,1.727.114l.49-.049.518-.053a8.976,8.976,0,0,1,1.874.172l.5-.106.487-.1a4.275,4.275,0,0,0,1.916-.3l.54.276.121.063c.341-.117,1.852.208,2.227-.016a1.871,1.871,0,0,1,1.139-.27,7.206,7.206,0,0,0,1.381-.147c.4-.035,1.271-.127,1.946-.208l.659.123.385.07a6.02,6.02,0,0,1,1.717-.349c.17.114,1.891-.237,2.541-.235s1.857-.135,2.113-.17a11.794,11.794,0,0,0,1.527.078,4.889,4.889,0,0,1,1.6-.1l.49-.3.052-.031a3.06,3.06,0,0,0,1.411-.356l.121.159c.352.464.843-.4,1.089.1a4.984,4.984,0,0,1,.895-.131l.469.47a5.463,5.463,0,0,1,1.588-.787l.513,0,1,0a25.692,25.692,0,0,0,2.943-.221l.5-.053.49-.051c.523-.1,3.59-.256,4.536-.46a10.69,10.69,0,0,1,2.569-.272l.4-.133.333-.112a7.115,7.115,0,0,1,1.237-.237,5.483,5.483,0,0,0,1.006-.343,1.586,1.586,0,0,1,.521-.155c.05,0,.353.063.673.127l-.165-.2-.576-.715a6.068,6.068,0,0,1-1.224-1.433c.025-.018.578-.282,1.227-.587l-.768-.73-.311-.3c.144-.288.347-.726.449-.975l-.312-.2-.261-.17c-.042-.255-.118-.707-.168-1l.027-.21.063-.5c-.488-.027.05-.311.226-.536a9.837,9.837,0,0,1,1.127-1.079l-.687-.253c-.888-.329-1.038-.609-.411-1.149l.229-.2a1.762,1.762,0,0,0-.629-1.1c-.209-.137-.3-.305-.256-.331s.151-.231.275-.253.1-.368.2-.454A10.072,10.072,0,0,0,366,52.011c.179-.2.218-.441.088-.533l-.1-.006a.983.983,0,0,1-.929-.564l-.179-.347a1.3,1.3,0,0,1,.934-.572c.184.014.636-.609.746-.623a1.01,1.01,0,0,1,.557.251c.072.11,1-.1,1.331-.215s.027-.3-.166-.272-1.2.249-1.168.039-.1-.343-.168-.337-.7.258-.893.157-.642-.394-.763-.468.562-.18.8-.135a4.145,4.145,0,0,0,1.135,0,2.1,2.1,0,0,1,1.02.166c.168.117.174-.039.013-.347l-.19-.239-.1-.125c.014-.18,1.009-.448,1.22-.64s-.086-.707-.234-.809-.162-.433-.031-.74l.17-.266.32-.5c-.819-.247-.844-.407-.055-.356l.057.112.141.28a.671.671,0,0,0,.713-.3l-.245-.176c-.042-.029.11-.18.174-.274.234-.343.057-.47-.493-.476l-.207,0a.262.262,0,0,1-.129-.405,6.985,6.985,0,0,0,.582-.605l-.174-.239a1.639,1.639,0,0,0-1.377-.815l-.111.022c-.129.11-.532-.26-.628-.411s.5-.613.742-.734-.56-.288-.83-.307-.155-.431-.052-.552a.8.8,0,0,1,.479-.241l.039.023.293.168a1.281,1.281,0,0,0,.953.1c.1-.07-.18-.509-.4-.9a1.13,1.13,0,0,0-1.107-.562l-.148-.18-.352-.431c.546-.266.593-.623.446-.675a2.478,2.478,0,0,0-1.143.29l-.4-.411-.027-.027c-.061-.016-.14.125-.173.317l-.124.135-.19.208a1.677,1.677,0,0,1-1.169.092c-.17-.11.127-.554.659-.985l.083-.38c.074-.327-.375-.7-.563-1.065l-.028-.055c.118-.117.9.394,1.237.562a1.585,1.585,0,0,0,1.1-.022,2.418,2.418,0,0,1,1.152.094c.22.108.315-.061.213-.376l-.066-.274-.078-.339a6.564,6.564,0,0,1-1.48-.157l-.014-.11-.069-.552a.591.591,0,0,1-.888-.07l-.107.01c-.658.061-.468-.333-.7-.488l-.108-.074c-.242,0-1.263-.106-1.306-.309a1.747,1.747,0,0,1,.275-.854c.1-.145.95.206,1.282.256a20.986,20.986,0,0,1,2.342.112,10.025,10.025,0,0,0,2.711.444,8.079,8.079,0,0,1,2.1-.174,7.489,7.489,0,0,0,1.047.26l.036-.045c.289-.354.607.045.866-.031l.306-.09c.242-.116-.061-.538-.245-.664s-.458-.834-.149-.94-.046-1.449-.239-1.86-.27-1.171.03-1.188a12.757,12.757,0,0,0,1.477-.231l.116-.352.082-.243c0-.364.433-.484.976-.264M5.989,51.343c-.234.227-.479.609-.76.625-.769.045-.177-.505-.493-.675-.381-.206-.2-.313.046-.486.309-.219.392.016.581.08l.21.072c.25.043.465.19.479.323Zm5.2-5.911c-.308-.057-1.132-.636-.907-.95s.483-.376.574-.137l-.025.166c-.052.354.089.56.675.589l.074,0c.094.237-.082.384-.391.327m89.756,21.4a6.714,6.714,0,0,0-1.508-.538c-.314,0,.116-.139.954-.3l.694.441.088.057a.588.588,0,0,1,.768.427c0,.2-.749.031-1-.082m5.206-.388a7.62,7.62,0,0,0-1.676.168c-.224.106-1.146.517-1.344.319s.06-.472.567-.605l.413-.153.436-.161a6.4,6.4,0,0,0,1.447.106c.251-.059,1.3-.235,1.471-.035s-.921.362-1.314.36m10.876-.268-.193.157a.621.621,0,0,1-.311.108l-.565-.362a3.727,3.727,0,0,1-1.926-.016c-.21-.133-.309-.337-.281-.372a1.886,1.886,0,0,1,.713.11c.366.1,2-.206,2.361-.157s.452.288.2.533m8,2.678c-.32.022-.193-.785-.215-1.085s.02-.26.1.084.438.979.119,1m14.308-.251-.074.114a2.3,2.3,0,0,1-1.314-.315l-.491-.192-.4-.157c-.294-.474-.386-.84-.206-.815a2.412,2.412,0,0,1,.909.666l.333.125.294.112c.534-.049,1,.1,1.039.321Zm51.334-1.4c-.359.072-1.08.364-1.273.28s-.229-.329-.083-.548l-.143-.223-.033-.053a2.473,2.473,0,0,1,1.088-.192c.51-.01.8.664.444.736m66.572-.022a1.888,1.888,0,0,1-1.292-.7c-.121-.294.466-.421.576-.307s.645.476.833.609.135.313-.118.4M362.6,32.394c-.33-.088-1.289-.566-1.832-.791.027-.025.116-.112.436-.415l.606-.574c.333.448,1,1.308,1.191,1.545s.009.345-.4.235m7.722-.112-.014.157-.031.339c-.356-.025-1.574-.4-1.668-.736s.05-.335.319,0l.377.114.251.076c.717-.292,1.063-.27.767.047m8.553-.613-.286-.288-.385-.388c-.559-.023-.661.147-.228.38l-.909.014-.375.006c-.491-.108-.7.114-.465.491l.25.276a.936.936,0,0,0,.59.292l1.059-.151c.879.435,1.449.681,1.267.546s.229-.679.4-.717-.24-.247-.923-.462" transform="translate(0.158 0.028)" fill="#2163ef"/>
  </g>
</svg>
